<svg width="56" height="48" viewBox="0 0 56 48" fill="none" xmlns="http://www.w3.org/2000/svg">
<path d="M52.6398 0H3.36013C2.46852 0.00125468 1.61388 0.357507 0.983858 0.990522C0.353835 1.62354 2.43917e-06 2.48156 3.3161e-06 3.37615V33.4868C-0.000616875 33.9302 0.0857618 34.3693 0.254292 34.7792C0.422821 35.189 0.670107 35.5616 0.98213 35.8755C1.29415 36.1895 1.66478 36.4387 2.07279 36.6089C2.48081 36.7792 2.91825 36.8671 3.36013 36.8677H22.7521V41.9485H18.7028C18.0661 41.9498 17.4559 42.2041 17.0056 42.6558C16.5554 43.1075 16.3019 43.7198 16.3006 44.3587V45.5898C16.3019 46.2287 16.5554 46.841 17.0056 47.2927C17.4559 47.7444 18.0661 47.9987 18.7028 48H37.3018C37.9389 48 38.55 47.7461 39.0005 47.2941C39.451 46.8421 39.704 46.229 39.704 45.5898V44.3587C39.7028 43.7198 39.4493 43.1075 38.9991 42.6558C38.5489 42.2041 37.9385 41.9498 37.3018 41.9485H33.2527V36.8914H52.6445C53.5361 36.8889 54.3903 36.5314 55.0195 35.8975C55.6486 35.2636 56.0013 34.4051 56 33.5105V3.37615C56 2.48156 55.6462 1.62354 55.0161 0.990522C54.3861 0.357507 53.5314 0.00125468 52.6398 0ZM3.36013 2.07399H52.6398C52.9831 2.07524 53.3121 2.21299 53.5545 2.45706C53.7968 2.70112 53.9329 3.03161 53.9329 3.37615V29.8124H2.06703V3.37615C2.06703 3.03161 2.20316 2.70112 2.44553 2.45706C2.6879 2.21299 3.01675 2.07524 3.36013 2.07399ZM37.637 44.3587V45.5898C37.637 45.6802 37.6011 45.767 37.5374 45.8309C37.4737 45.8948 37.3872 45.9308 37.2971 45.9308H18.7028C18.6584 45.9308 18.6145 45.9219 18.5735 45.9047C18.5326 45.8875 18.4954 45.8623 18.4642 45.8306C18.433 45.7989 18.4084 45.7613 18.3918 45.7199C18.3753 45.6786 18.3671 45.6344 18.3678 45.5898V44.3587C18.3678 44.2695 18.4031 44.184 18.4659 44.121C18.5288 44.0579 18.6139 44.0225 18.7028 44.0225H37.3018C37.3907 44.0225 37.476 44.0579 37.5388 44.121C37.6016 44.184 37.637 44.2695 37.637 44.3587ZM31.1808 41.9485H24.838V36.8914H27.7356C27.7765 36.894 27.8175 36.894 27.8583 36.8914C27.8992 36.8937 27.9402 36.8937 27.981 36.8914H31.2044L31.1808 41.9485ZM52.6398 34.7937H27.9575C27.9167 34.7914 27.8757 34.7914 27.8348 34.7937C27.794 34.7911 27.753 34.7911 27.7121 34.7937H3.36013C3.1897 34.7931 3.02111 34.7588 2.86389 34.6928C2.70666 34.6268 2.56387 34.5303 2.4438 34.409C2.32372 34.2876 2.22869 34.1437 2.16405 33.9855C2.0994 33.8273 2.06641 33.6578 2.06703 33.4868V31.8864H53.9329V33.4868C53.9335 33.6578 53.9006 33.8273 53.836 33.9855C53.7713 34.1437 53.6762 34.2876 53.5561 34.409C53.436 34.5303 53.2933 34.6268 53.1361 34.6928C52.9789 34.7588 52.8102 34.7931 52.6398 34.7937Z" fill="#FEDA44"/>
<path d="M45.0299 14H26.9701C26.7128 14 26.466 13.8946 26.2841 13.7071C26.1022 13.5196 26 13.2652 26 13C26 12.7348 26.1022 12.4804 26.2841 12.2929C26.466 12.1054 26.7128 12 26.9701 12H45.0299C45.2872 12 45.534 12.1054 45.7159 12.2929C45.8978 12.4804 46 12.7348 46 13C46 13.2652 45.8978 13.5196 45.7159 13.7071C45.534 13.8946 45.2872 14 45.0299 14Z" fill="#FEDA44"/>
<path d="M44.9711 17.9977H27.0289C26.8971 18.007 26.765 17.988 26.6406 17.9421C26.5162 17.8961 26.4021 17.8241 26.3057 17.7306C26.2092 17.637 26.1323 17.5239 26.0797 17.3982C26.0271 17.2726 26 17.137 26 17C26 16.863 26.0271 16.7274 26.0797 16.6018C26.1323 16.4761 26.2092 16.363 26.3057 16.2694C26.4021 16.1759 26.5162 16.1039 26.6406 16.0579C26.765 16.012 26.8971 15.993 27.0289 16.0023H44.9711C45.1029 15.993 45.235 16.012 45.3594 16.0579C45.4838 16.1039 45.5979 16.1759 45.6943 16.2694C45.7908 16.363 45.8677 16.4761 45.9203 16.6018C45.9729 16.7274 46 16.863 46 17C46 17.137 45.9729 17.2726 45.9203 17.3982C45.8677 17.5239 45.7908 17.637 45.6943 17.7306C45.5979 17.8241 45.4838 17.8961 45.3594 17.9421C45.235 17.988 45.1029 18.007 44.9711 17.9977Z" fill="#FEDA44"/>
<path d="M41.0113 21.9989H27.1318C26.9869 22.0035 26.8415 21.994 26.7047 21.971C26.5678 21.9481 26.4424 21.9121 26.3363 21.8653C26.2301 21.8185 26.1455 21.762 26.0877 21.6991C26.0299 21.6363 26 21.5685 26 21.5C26 21.4315 26.0299 21.3637 26.0877 21.3009C26.1455 21.238 26.2301 21.1815 26.3363 21.1347C26.4424 21.0879 26.5678 21.0519 26.7047 21.029C26.8415 21.006 26.9869 20.9965 27.1318 21.0011H41.0113C41.2795 21.0097 41.5308 21.066 41.7143 21.1586C41.8979 21.2512 42 21.3732 42 21.5C42 21.6268 41.8979 21.7488 41.7143 21.8414C41.5308 21.934 41.2795 21.9903 41.0113 21.9989Z" fill="#FEDA44"/>
<path d="M20.8482 23C20.6811 22.9992 20.5167 22.9597 20.3688 22.8848L17.4925 21.4288L14.6161 22.8848C14.4431 22.9721 14.2481 23.0111 14.0531 22.9973C13.8582 22.9834 13.6713 22.9173 13.5135 22.8065C13.3557 22.6954 13.2332 22.5444 13.1596 22.3703C13.0859 22.1962 13.064 22.0058 13.0965 21.8204L13.6477 18.7378L11.3131 16.5538C11.174 16.4215 11.0758 16.2546 11.0297 16.0718C10.9836 15.889 10.9913 15.6974 11.052 15.5185C11.1127 15.3397 11.224 15.1806 11.3734 15.0591C11.5228 14.9376 11.7044 14.8584 11.898 14.8305L15.1195 14.3697L16.5577 11.5636C16.6443 11.3945 16.7783 11.252 16.9448 11.1524C17.1113 11.0528 17.3036 11 17.4997 11C17.6958 11 17.888 11.0528 18.0545 11.1524C18.221 11.252 18.3551 11.3945 18.4417 11.5636L19.8798 14.3697L23.1061 14.8305C23.2993 14.8591 23.4804 14.9388 23.6292 15.0606C23.778 15.1824 23.8887 15.3415 23.9488 15.5203C24.009 15.699 24.0162 15.8903 23.9699 16.0728C23.9235 16.2553 23.8254 16.4218 23.6863 16.5538L21.3516 18.7378L21.8742 21.6591C21.9293 21.8113 21.9456 21.9739 21.9219 22.1334C21.8983 22.2928 21.8353 22.4446 21.7382 22.5758C21.641 22.7071 21.5125 22.8141 21.3635 22.8879C21.2146 22.9617 21.0494 23.0001 20.8818 23H20.8482ZM17.4925 19.2815C17.6597 19.2816 17.8243 19.3212 17.9719 19.3967L19.4628 20.1478L19.1799 18.5535C19.1497 18.3929 19.1615 18.2275 19.2142 18.0723C19.2669 17.9171 19.359 17.7768 19.482 17.6642L20.6853 16.5353L19.0217 16.3003C18.8534 16.2776 18.6935 16.2159 18.5556 16.1203C18.4178 16.0248 18.3063 15.8983 18.2307 15.752L17.4877 14.3006L16.7399 15.752C16.6648 15.8978 16.5541 16.0238 16.4171 16.1193C16.2802 16.2148 16.1211 16.2769 15.9536 16.3003L14.2854 16.5353L15.4886 17.6642C15.6116 17.7768 15.7036 17.9171 15.7563 18.0723C15.809 18.2275 15.8208 18.3929 15.7906 18.5535L15.5078 20.1478L16.9987 19.3967C17.1453 19.3171 17.3098 19.2728 17.4781 19.2677L17.4925 19.2815Z" fill="#FEDA44"/>
</svg>
