<svg width="25" height="25" viewBox="0 0 25 25" fill="none" xmlns="http://www.w3.org/2000/svg">
<circle cx="12.5" cy="12.5" r="12.5" fill="white"/>
<path d="M12.3493 1.8291C7.68971 1.8291 3.74154 4.81691 2.2832 8.94292H22.4153C20.957 4.81691 17.0088 1.8291 12.3493 1.8291Z" fill="#EC1C24"/>
<path d="M12.3493 23.1705C17.0088 23.1705 20.957 20.2182 22.4153 16.0566H2.2832C3.74154 20.2182 7.68971 23.1705 12.3493 23.1705Z" fill="#137A08"/>
<path d="M2.28241 8.94287C1.89115 10.0455 1.67773 11.2549 1.67773 12.4998C1.67773 13.7447 1.89115 14.9541 2.28241 16.0567H22.4145C22.8058 14.9541 23.0192 13.7447 23.0192 12.4998C23.0192 11.2549 22.8058 10.0455 22.4145 8.94287H2.28241Z" fill="#F9F9F9"/>
</svg>
