<svg width="49" height="58" viewBox="0 0 49 58" fill="none" xmlns="http://www.w3.org/2000/svg">
<path d="M23.7999 16.3933H10.2003C9.93169 16.3933 9.67408 16.5 9.48413 16.69C9.29417 16.8799 9.1875 17.1376 9.1875 17.4062C9.1875 17.6748 9.29417 17.9325 9.48413 18.1224C9.67408 18.3124 9.93169 18.4191 10.2003 18.4191H23.7999C24.0685 18.4191 24.3262 18.3124 24.5161 18.1224C24.7061 17.9325 24.8129 17.6748 24.8129 17.4062C24.8129 17.1376 24.7061 16.8799 24.5161 16.69C24.3262 16.5 24.0685 16.3933 23.7999 16.3933Z" fill="#FEDA44"/>
<path d="M10.2003 13.8204H15.1255C15.3942 13.8204 15.6519 13.7137 15.8419 13.5238C16.0318 13.3338 16.1385 13.0762 16.1385 12.8076C16.1385 12.5389 16.0318 12.2813 15.8419 12.0913C15.6519 11.9014 15.3942 11.7947 15.1255 11.7947H10.2003C9.93169 11.7947 9.67408 11.9014 9.48413 12.0913C9.29417 12.2813 9.1875 12.5389 9.1875 12.8076C9.1875 13.0762 9.29417 13.3338 9.48413 13.5238C9.67408 13.7137 9.93169 13.8204 10.2003 13.8204Z" fill="#FEDA44"/>
<path d="M10.2003 34.0686C9.93169 34.0686 9.67408 34.1753 9.48413 34.3653C9.29417 34.5552 9.1875 34.8128 9.1875 35.0815C9.1875 35.3501 9.29417 35.6078 9.48413 35.7977C9.67408 35.9877 9.93169 36.0944 10.2003 36.0944H15.1255C15.3942 36.0944 15.6519 35.9877 15.8419 35.7977C16.0318 35.6078 16.1385 35.3501 16.1385 35.0815C16.1385 34.8128 16.0318 34.5552 15.8419 34.3653C15.6519 34.1753 15.3942 34.0686 15.1255 34.0686H10.2003Z" fill="#FEDA44"/>
<path d="M10.2003 22.869H21.8366C22.1053 22.869 22.3629 22.7623 22.5528 22.5724C22.7428 22.3824 22.8494 22.1248 22.8494 21.8561C22.8494 21.5875 22.7428 21.3299 22.5528 21.1399C22.3629 20.95 22.1053 20.8433 21.8366 20.8433H10.2003C9.93169 20.8433 9.67408 20.95 9.48413 21.1399C9.29417 21.3299 9.1875 21.5875 9.1875 21.8561C9.1875 22.1248 9.29417 22.3824 9.48413 22.5724C9.67408 22.7623 9.93169 22.869 10.2003 22.869Z" fill="#FEDA44"/>
<path d="M23.7999 25.2358H10.2003C9.93169 25.2358 9.67408 25.3425 9.48413 25.5325C9.29417 25.7224 9.1875 25.9801 9.1875 26.2487C9.1875 26.5174 9.29417 26.775 9.48413 26.9649C9.67408 27.1549 9.93169 27.2616 10.2003 27.2616H23.7999C24.0685 27.2616 24.3262 27.1549 24.5161 26.9649C24.7061 26.775 24.8129 26.5174 24.8129 26.2487C24.8129 25.9801 24.7061 25.7224 24.5161 25.5325C24.3262 25.3425 24.0685 25.2358 23.7999 25.2358Z" fill="#FEDA44"/>
<path d="M36.9631 12.2074L25.0534 0.292818C24.8596 0.1068 24.602 0.00202894 24.3334 0H1.01294C0.744304 0 0.486697 0.106703 0.296744 0.296656C0.106791 0.486609 0 0.744245 0 1.01288V47.0968C0.00126235 47.365 0.10847 47.6219 0.29815 47.8116C0.48783 48.0013 0.744693 48.1084 1.01294 48.1097H19.0145C18.5584 47.4328 18.0879 46.6696 17.7711 46.0839H2.02588V2.03056H23.3204V13.0187C23.3217 13.287 23.4288 13.5438 23.6185 13.7335C23.8081 13.9232 24.0651 14.0303 24.3334 14.0316H35.3262V27.4727C36.0311 27.8531 36.708 28.283 37.352 28.7592V13.1531C37.3568 13.1084 37.3568 13.0634 37.352 13.0187C37.3544 12.8626 37.3206 12.7081 37.2531 12.5673C37.1856 12.4265 37.0863 12.3033 36.9631 12.2074ZM25.3462 12.0058V3.46108L33.8909 12.0058H25.3462Z" fill="#FEDA44"/>
<path d="M28.9799 45.3783C28.7338 45.3782 28.4964 45.2877 28.3127 45.1239L24.5924 41.8596C24.486 41.7739 24.398 41.6676 24.3338 41.5471C24.2696 41.4266 24.2304 41.2943 24.2186 41.1582C24.2068 41.0221 24.2227 40.8851 24.2653 40.7553C24.3078 40.6255 24.3762 40.5057 24.4663 40.403C24.5563 40.3003 24.6661 40.2169 24.7893 40.1578C24.9124 40.0987 25.0462 40.065 25.1827 40.059C25.3191 40.0529 25.4554 40.0745 25.5833 40.1224C25.7112 40.1703 25.8279 40.2436 25.9268 40.3379L28.8743 42.9205L34.6636 36.0799C34.8374 35.8749 35.0855 35.7474 35.3533 35.7253C35.6211 35.7033 35.8867 35.7885 36.0917 35.9623C36.2966 36.1361 36.4242 36.3842 36.4463 36.652C36.4684 36.9198 36.3831 37.1855 36.2093 37.3904L29.748 45.0231C29.6605 45.1258 29.5535 45.2101 29.4332 45.2711C29.3129 45.3321 29.1816 45.3685 29.047 45.3783H28.9799Z" fill="#FEDA44"/>
<path d="M45.4654 57.2401C45.1847 57.2408 44.9065 57.186 44.647 57.0789C44.3875 56.9718 44.1517 56.8145 43.9532 56.616L37.1415 49.7899C34.8235 51.4285 31.987 52.1645 29.1648 51.8596C26.3425 51.5547 23.7288 50.2299 21.8143 48.134C19.8997 46.0382 18.8163 43.3154 18.7674 40.4772C18.7184 37.639 19.7073 34.8805 21.5485 32.7199C23.3896 30.5593 25.9562 29.1452 28.7663 28.7432C31.5763 28.3412 34.4365 28.9789 36.8096 30.5367C39.1826 32.0944 40.9053 34.465 41.6541 37.2031C42.4029 39.9412 42.1263 42.8585 40.8762 45.4071L48.0239 52.5549C48.2232 52.7526 48.3814 52.9878 48.4893 53.2469C48.5973 53.506 48.6528 53.7839 48.6528 54.0646C48.6528 54.3453 48.5973 54.6232 48.4893 54.8823C48.3814 55.1415 48.2232 55.3767 48.0239 55.5743L46.9775 56.616C46.7798 56.8156 46.5442 56.9736 46.2845 57.0808C46.0248 57.1879 45.7463 57.2421 45.4654 57.2401ZM37.2759 47.068L45.3885 55.1807C45.409 55.1971 45.4344 55.206 45.4606 55.206C45.4868 55.206 45.5121 55.1971 45.5326 55.1807L46.5838 54.1342C46.6002 54.112 46.609 54.0851 46.609 54.0574C46.609 54.0298 46.6002 54.0029 46.5838 53.9806L38.356 45.7527L38.7448 45.0807C39.9769 42.9686 40.3725 40.4714 39.8536 38.0819C39.3348 35.6924 37.9392 33.5842 35.9421 32.1733C33.945 30.7624 31.4915 30.1514 29.066 30.4608C26.6404 30.7702 24.419 31.9775 22.84 33.8445C21.261 35.7115 20.4392 38.1026 20.5368 40.5458C20.6344 42.9891 21.6442 45.307 23.367 47.0422C25.0898 48.7773 27.4005 49.8037 29.843 49.9187C32.2855 50.0336 34.6824 49.2289 36.5606 47.6633L37.2759 47.068Z" fill="#FEDA44"/>
</svg>
