<svg width="40" height="38" viewBox="0 0 40 38" fill="none" xmlns="http://www.w3.org/2000/svg">
<path d="M38.0708 14.0292L35.4429 12.0618V5.80836C35.4411 5.45529 35.3696 5.10606 35.2326 4.78066C35.0955 4.45525 34.8956 4.16008 34.6443 3.91205C34.393 3.66403 34.0953 3.46801 33.7681 3.33524C33.441 3.20248 33.0908 3.13558 32.7378 3.13836H32.6675C31.9776 3.1455 31.3175 3.42082 30.8271 3.90605C30.3366 4.39128 30.0542 5.04829 30.0396 5.73807V8.05681L20.02 0.468304C19.9409 0.400061 19.8399 0.362549 19.7355 0.362549C19.631 0.362549 19.53 0.400061 19.4509 0.468304L1.53369 13.7481C1.25568 13.9561 1.02402 14.2198 0.853457 14.5222C0.682891 14.8246 0.577147 15.1592 0.542966 15.5047C0.519882 15.8367 0.565194 16.1699 0.676104 16.4836C0.787014 16.7974 0.96116 17.085 1.18775 17.3287C1.41434 17.5725 1.68854 17.7671 1.9934 17.9005C2.29825 18.0339 2.62726 18.1034 2.96004 18.1045C3.47159 18.1101 3.9689 17.936 4.36531 17.6126L12.6002 11.57H26.6529L35.0846 17.8937C35.5084 18.2317 36.0395 18.4062 36.5812 18.3855C36.9083 18.3859 37.232 18.3199 37.5329 18.1914C37.8337 18.063 38.1053 17.8748 38.3313 17.6383C38.5573 17.4018 38.7329 17.1219 38.8475 16.8156C38.9622 16.5092 39.0135 16.1828 38.9982 15.8561C38.9818 15.5032 38.8906 15.1579 38.7307 14.843C38.5708 14.5281 38.3459 14.2507 38.0708 14.0292ZM13.8298 10.6565L19.732 6.30022L25.5638 10.6565H13.8298ZM37.7194 16.9803C37.4593 17.2371 37.1159 17.3925 36.7512 17.4182C36.3865 17.444 36.0247 17.3385 35.731 17.1208C33.8831 15.7155 21.5167 6.44071 20.0271 5.38676C19.948 5.31851 19.847 5.281 19.7425 5.281C19.638 5.281 19.537 5.31851 19.4579 5.38676L3.81725 16.8398C3.55308 17.0389 3.22714 17.1384 2.8968 17.1208C2.68739 17.119 2.48041 17.0756 2.28791 16.9931C2.09541 16.9107 1.92121 16.7907 1.77543 16.6404C1.62965 16.49 1.5152 16.3122 1.43872 16.1173C1.36224 15.9223 1.32525 15.7141 1.32992 15.5047C1.34989 15.2825 1.41731 15.0672 1.52762 14.8732C1.63792 14.6793 1.78854 14.5113 1.96932 14.3805L19.6687 1.31148L30.2083 9.18101C30.2811 9.22881 30.3636 9.25991 30.4498 9.27205C30.5361 9.2842 30.6239 9.27708 30.7071 9.25126C30.7803 9.20997 30.8394 9.14779 30.877 9.07268C30.9145 8.99757 30.9288 8.91296 30.9179 8.82969V5.66783C30.917 5.4351 30.9624 5.20453 31.0517 4.98959C31.1409 4.77466 31.2722 4.57967 31.4377 4.41609C31.6033 4.2525 31.7998 4.12358 32.0158 4.03689C32.2318 3.9502 32.4629 3.9075 32.6956 3.91124C33.1733 3.91864 33.6286 4.11506 33.9618 4.45747C34.295 4.79988 34.4789 5.26034 34.4733 5.73807V12.2023C34.4757 12.3327 34.5256 12.4576 34.6138 12.5537L37.3892 14.6616C37.5654 14.7968 37.7127 14.966 37.8225 15.1591C37.9323 15.3521 38.0024 15.5652 38.0286 15.7858C38.123 15.9906 38.1431 16.2219 38.0854 16.4399C38.0277 16.6579 37.8958 16.849 37.7124 16.9803H37.7194Z" fill="#FF7DCE" stroke="#FF7DCE" stroke-width="0.7"/>
<path d="M30.4688 20.7043C30.5497 20.6752 30.6237 20.6296 30.6859 20.5703C30.7482 20.5111 30.7974 20.4395 30.8305 20.3602C30.8636 20.2808 30.8797 20.1955 30.8779 20.1095C30.8761 20.0236 30.8565 19.939 30.8201 19.8611C30.7903 19.78 30.744 19.7059 30.684 19.6436C30.6241 19.5813 30.552 19.5321 30.4721 19.4991C30.3922 19.466 30.3063 19.45 30.2199 19.4518C30.1335 19.4536 30.0484 19.4734 29.97 19.5098C29.8884 19.5381 29.8138 19.5832 29.7507 19.6421C29.6877 19.7011 29.6377 19.7725 29.6039 19.852C29.5702 19.9314 29.5534 20.017 29.5548 20.1033C29.5561 20.1896 29.5754 20.2746 29.6116 20.353C29.6876 20.5055 29.8164 20.6252 29.9741 20.6899C30.1318 20.7545 30.3076 20.7596 30.4688 20.7043Z" fill="#FF7DCE" stroke="#FF7DCE" stroke-width="0.7"/>
<path d="M9.64265 19.3692C9.72354 19.3401 9.79746 19.2945 9.85974 19.2353C9.92201 19.176 9.97124 19.1045 10.0043 19.0251C10.0374 18.9458 10.0535 18.8604 10.0517 18.7745C10.05 18.6886 10.0303 18.6039 9.99397 18.526C9.96412 18.4449 9.91778 18.3708 9.85787 18.3085C9.79796 18.2462 9.72578 18.197 9.64589 18.164C9.566 18.131 9.48012 18.1149 9.3937 18.1167C9.30728 18.1186 9.22217 18.1383 9.14376 18.1747C9.06226 18.203 8.98759 18.2481 8.92455 18.307C8.86152 18.366 8.81153 18.4375 8.77778 18.5169C8.74403 18.5963 8.72727 18.6819 8.72859 18.7682C8.72991 18.8545 8.74927 18.9395 8.78543 19.0179C8.81326 19.1013 8.85876 19.1777 8.91883 19.2419C8.9789 19.3062 9.05212 19.3567 9.13349 19.3901C9.21487 19.4234 9.30248 19.4388 9.39035 19.4352C9.47822 19.4316 9.56428 19.4091 9.64265 19.3692Z" fill="#FF7DCE" stroke="#FF7DCE" stroke-width="0.7"/>
<path d="M3.31158 28.7142C3.2307 28.7433 3.15675 28.7889 3.09447 28.8482C3.0322 28.9074 2.98297 28.979 2.94991 29.0583C2.91685 29.1376 2.90069 29.223 2.90248 29.309C2.90426 29.3949 2.92395 29.4795 2.96026 29.5574C2.99011 29.6385 3.03645 29.7126 3.09636 29.7749C3.15627 29.8372 3.22845 29.8864 3.30834 29.9194C3.38824 29.9524 3.47409 29.9685 3.56051 29.9667C3.64694 29.9648 3.73204 29.9451 3.81045 29.9087C3.89196 29.8804 3.96664 29.8353 4.02968 29.7764C4.09271 29.7174 4.1427 29.6459 4.17645 29.5665C4.21021 29.4871 4.22696 29.4015 4.22564 29.3152C4.22432 29.2289 4.20496 29.1439 4.1688 29.0655C4.14097 28.9821 4.09547 28.9057 4.0354 28.8415C3.97534 28.7772 3.90212 28.7267 3.82074 28.6933C3.73937 28.66 3.65175 28.6446 3.56388 28.6482C3.47601 28.6518 3.38995 28.6743 3.31158 28.7142Z" fill="#FF7DCE" stroke="#FF7DCE" stroke-width="0.7"/>
<path d="M19.8022 28.0116C19.3031 28.0171 18.8168 28.1702 18.4046 28.4515C17.9923 28.7328 17.6725 29.1297 17.4854 29.5924C17.2982 30.055 17.2521 30.5627 17.3529 31.0515C17.4536 31.5404 17.6967 31.9884 18.0516 32.3394C18.4064 32.6903 18.8571 32.9285 19.347 33.0238C19.8369 33.1191 20.3441 33.0675 20.8046 32.8752C21.2652 32.683 21.6586 32.3587 21.9353 31.9434C22.212 31.528 22.3597 31.0402 22.3598 30.5411C22.3589 30.2068 22.2919 29.876 22.1627 29.5677C22.0335 29.2593 21.8446 28.9796 21.6069 28.7445C21.3692 28.5094 21.0874 28.3237 20.7777 28.1979C20.468 28.0721 20.1364 28.0088 19.8022 28.0116ZM19.8022 32.2274C19.4696 32.2232 19.1456 32.1208 18.8711 31.933C18.5966 31.7452 18.3837 31.4804 18.2593 31.1719C18.1349 30.8634 18.1045 30.525 18.1719 30.1993C18.2394 29.8736 18.4016 29.5751 18.6382 29.3414C18.8749 29.1077 19.1754 28.9491 19.5019 28.8857C19.8284 28.8224 20.1664 28.857 20.4733 28.9852C20.7802 29.1135 21.0424 29.3296 21.2268 29.6064C21.4112 29.8833 21.5095 30.2085 21.5096 30.5411C21.5004 30.9891 21.317 31.4159 20.9981 31.7308C20.6793 32.0457 20.2503 32.2238 19.8022 32.2274Z" fill="#FF7DCE" stroke="#FF7DCE" stroke-width="0.7"/>
<path d="M32.3866 33.3517C32.3711 32.2402 32.0687 31.1514 31.5085 30.1912C30.9484 29.2309 30.1496 28.4317 29.1896 27.8712V26.747C29.1822 26.1667 28.9465 25.6127 28.5335 25.205C28.1206 24.7973 27.5636 24.5687 26.9833 24.5688H22.7675C23.5246 24.0871 24.1486 23.4229 24.582 22.6371C25.0154 21.8514 25.2443 20.9693 25.2478 20.0719C25.2478 18.6202 24.6711 17.228 23.6446 16.2015C22.6181 15.175 21.2259 14.5984 19.7742 14.5984C18.3226 14.5984 16.9304 15.175 15.9039 16.2015C14.8774 17.228 14.3007 18.6202 14.3007 20.0719C14.3062 20.9697 14.5368 21.8517 14.9713 22.6373C15.4059 23.4229 16.0305 24.087 16.788 24.5688H12.5722C11.9919 24.5687 11.435 24.7973 11.022 25.205C10.6091 25.6127 10.3733 26.1667 10.366 26.747V27.8009C9.40595 28.3615 8.60713 29.1607 8.04698 30.1209C7.48684 31.0812 7.18437 32.1699 7.16895 33.2815C6.76664 33.3895 6.41106 33.6269 6.15708 33.957C5.90311 34.2872 5.76486 34.6918 5.76367 35.1083C5.76336 35.3561 5.81348 35.6014 5.91094 35.8292C6.00841 36.057 6.15121 36.2626 6.33064 36.4335C6.51007 36.6044 6.72239 36.737 6.95469 36.8232C7.18699 36.9095 7.4344 36.9476 7.68188 36.9352H31.9228C32.1645 36.938 32.4043 36.8928 32.6284 36.8022C32.8525 36.7117 33.0564 36.5775 33.2283 36.4076C33.4001 36.2377 33.5366 36.0354 33.6297 35.8123C33.7228 35.5893 33.7708 35.35 33.7708 35.1083C33.7828 34.6997 33.6507 34.2998 33.3976 33.9787C33.1446 33.6576 32.7867 33.4356 32.3866 33.3517ZM31.5293 33.2815H29.1896V28.8549C29.8867 29.3699 30.459 30.0351 30.8641 30.8014C31.2691 31.5677 31.4965 32.4153 31.5293 33.2815ZM15.2563 19.9314C15.2451 19.0282 15.5028 18.1422 15.9966 17.3859C16.4904 16.6297 17.198 16.0374 18.0293 15.6843C18.8606 15.3313 19.7782 15.2335 20.6653 15.4033C21.5523 15.5732 22.3689 16.003 23.011 16.6382C23.6531 17.2734 24.0918 18.0852 24.2713 18.9704C24.4508 19.8555 24.363 20.7741 24.019 21.6092C23.675 22.4444 23.0904 23.1583 22.3396 23.6603C21.5887 24.1622 20.7055 24.4296 19.8023 24.4283C19.2079 24.4338 18.6183 24.3217 18.0675 24.0983C17.5166 23.8748 17.0154 23.5446 16.5928 23.1266C16.1702 22.7085 15.8345 22.211 15.6051 21.6626C15.3758 21.1142 15.2572 20.5258 15.2563 19.9314ZM10.4222 28.8549V33.2815H8.07535C8.11004 32.415 8.33894 31.5673 8.74514 30.8012C9.15133 30.035 9.72444 29.3698 10.4222 28.8549ZM6.65603 35.1083C6.65282 34.9747 6.67747 34.8418 6.72845 34.7182C6.77943 34.5945 6.8556 34.4829 6.95212 34.3903C7.04863 34.2978 7.16336 34.2264 7.289 34.1806C7.41465 34.1349 7.54845 34.1158 7.68188 34.1246H10.4573V36.092H7.68188C7.41591 36.0958 7.15914 35.9947 6.96715 35.8106C6.77516 35.6265 6.6634 35.3742 6.65603 35.1083ZM11.3426 26.6767C11.3435 26.4999 11.3794 26.3249 11.4481 26.162C11.5169 25.9991 11.6171 25.8513 11.7431 25.7273C11.8692 25.6032 12.0184 25.5053 12.1824 25.4391C12.3464 25.3729 12.5219 25.3398 12.6987 25.3417H26.9833C27.1595 25.3408 27.3342 25.3745 27.4974 25.4411C27.6606 25.5077 27.809 25.6058 27.9343 25.7298C28.0596 25.8538 28.1592 26.0012 28.2275 26.1637C28.2958 26.3261 28.3314 26.5005 28.3324 26.6767V36.092H11.3426V26.6767ZM31.9579 36.092H29.1896V34.1246H31.9579C32.0888 34.1208 32.2191 34.1435 32.341 34.1914C32.4628 34.2394 32.5737 34.3115 32.6669 34.4034C32.7602 34.4953 32.8338 34.6052 32.8834 34.7263C32.9331 34.8475 32.9577 34.9774 32.9557 35.1083C32.9485 35.3694 32.8406 35.6175 32.6546 35.8008C32.4687 35.9841 32.2191 36.0885 31.9579 36.092Z" fill="#FF7DCE" stroke="#FF7DCE" stroke-width="0.7"/>
<path d="M36.222 23.7958C35.6951 23.8014 35.1817 23.9627 34.7463 24.2594C34.311 24.5561 33.9731 24.975 33.7753 25.4634C33.5776 25.9517 33.5287 26.4877 33.6349 27.0037C33.741 27.5198 33.9975 27.9929 34.372 28.3635C34.7465 28.7341 35.2223 28.9857 35.7395 29.0864C36.2566 29.1872 36.792 29.1327 37.2783 28.9298C37.7645 28.7269 38.1799 28.3847 38.472 27.9463C38.7642 27.5078 38.9201 26.9927 38.9201 26.4658C38.9183 26.1133 38.847 25.7647 38.7104 25.4397C38.5738 25.1148 38.3746 24.82 38.124 24.572C37.8735 24.3241 37.5766 24.1279 37.2502 23.9948C36.9239 23.8616 36.5745 23.794 36.222 23.7958ZM36.222 28.2224C35.8755 28.2183 35.538 28.1117 35.2519 27.9162C34.9658 27.7207 34.7439 27.4449 34.6142 27.1236C34.4845 26.8023 34.4527 26.4497 34.5228 26.1104C34.593 25.771 34.7619 25.46 35.0084 25.2165C35.2549 24.9729 35.5679 24.8077 35.9081 24.7416C36.2482 24.6755 36.6003 24.7115 36.9201 24.8451C37.2398 24.9786 37.5129 25.2038 37.705 25.4921C37.8971 25.7805 37.9996 26.1193 37.9997 26.4658C38.0006 26.6986 37.9552 26.9292 37.8659 27.1441C37.7766 27.359 37.6454 27.554 37.4798 27.7176C37.3143 27.8811 37.1178 28.0101 36.9018 28.0968C36.6858 28.1834 36.4547 28.2262 36.222 28.2224Z" fill="#FF7DCE" stroke="#FF7DCE" stroke-width="0.7"/>
</svg>
