<svg width="25" height="25" viewBox="0 0 25 25" fill="none" xmlns="http://www.w3.org/2000/svg">
<circle cx="12.5" cy="12.5" r="12.5" fill="white"/>
<path d="M12.5524 1.8291C7.89283 1.8291 3.94466 4.81691 2.48633 8.94292H22.6184C21.1601 4.81691 17.2119 1.8291 12.5524 1.8291Z" fill="#C6363C"/>
<path d="M12.5524 23.1705C17.2119 23.1705 21.1601 20.2182 22.6184 16.0566H2.48633C3.94466 20.2182 7.89283 23.1705 12.5524 23.1705Z" fill="#F9F9F9"/>
<path d="M2.48553 8.94287C2.09427 10.0455 1.88086 11.2549 1.88086 12.4998C1.88086 13.7447 2.09427 14.9541 2.48553 16.0567H22.6176C23.0089 14.9541 23.2223 13.7447 23.2223 12.4998C23.2223 11.2549 23.0089 10.0455 22.6176 8.94287H2.48553Z" fill="#0C4076"/>
<path d="M6.68359 8.83643V14.5986C6.68359 16.5905 8.35534 18.1911 10.4184 18.1911C12.4814 18.1911 14.1531 16.5905 14.1531 14.5986V8.83643H6.68359Z" fill="#C6363C"/>
<path d="M11.7693 17.5862L11.6982 17.266L11.4136 16.7681L11.5203 16.6969L11.4492 16.3768L11.2002 15.9856L11.2713 15.95L11.2002 15.6299L11.0224 15.2742L11.3069 14.7406L11.4847 15.3097L11.627 15.0963L11.8404 15.4164L11.9116 15.203L12.125 15.3097L12.0894 14.8829L12.5874 15.0252L12.2317 14.5628H12.2673L11.9827 13.9937L12.0539 13.7803L12.2317 14.136L12.3028 13.9937L12.5874 14.7762V14.7406L12.7297 15.0252L12.8008 14.8829L13.0854 15.452L13.1921 15.1319L13.6189 15.452C13.6189 15.452 13.5833 14.3849 13.5833 14.0648C13.6545 13.14 13.9746 11.2549 13.7256 10.4012C13.6189 9.97438 12.7652 8.94287 12.7652 8.94287C12.7652 8.94287 12.7297 10.1878 12.5163 10.5791C12.4451 10.7213 11.8049 11.1126 11.8049 11.1126L11.5559 11.077L11.6626 11.0414L11.2002 10.5791L11.378 9.65425L11.8404 8.97844L11.1291 9.01401L10.5955 9.15629L10.7378 9.3697L10.4177 10.5079L10.0976 9.40527L10.2398 9.19186L9.70629 9.01401L8.99491 8.97844L9.45731 9.65425L9.63515 10.5791L9.17276 11.0414L9.27946 11.077L8.99491 11.1482C8.99491 11.1482 8.35467 10.7569 8.28353 10.6146C8.07011 10.2589 8.03454 8.97844 8.03454 8.97844C8.03454 8.97844 7.18089 10.0099 7.07418 10.4368C6.8252 11.326 7.18089 13.2112 7.21646 14.1004C7.25202 14.4561 7.18089 15.4876 7.18089 15.4876L7.60772 15.1675L7.71442 15.4876L7.99898 14.9185L8.07011 15.0608L8.21239 14.7762V14.8118L8.49694 14.0293L8.56808 14.1715L8.74593 13.8158L8.81707 14.0293L8.53251 14.5984H8.56808L8.21239 15.0608L8.71036 14.9185V15.3453L8.92377 15.2386L8.99491 15.452L9.20833 15.1319L9.3506 15.3453L9.52845 14.7762L9.813 15.3097L9.63515 15.6654L9.56402 15.9856L9.63515 16.0211L9.38617 16.4124L9.31503 16.7325L9.42174 16.8036L9.17276 17.3372L9.10162 17.6573L11.7693 17.5862Z" fill="#F5F5F5"/>
<path d="M8.28181 15.9499L8.35294 15.8076L8.67307 15.6654L8.88648 15.5942H9.02876L9.06433 15.5587L8.85091 15.452L8.81534 15.4164L8.6375 15.4875L8.49522 15.5942L8.77977 15.2385L9.02876 14.6694L8.6375 14.9184L8.28181 15.5587L8.13953 15.6298H7.78384L7.60599 15.5942L7.39258 15.7009L7.42815 15.7365H7.57042L7.7127 15.8076L8.03282 15.7721L7.67713 15.8788L7.60599 16.0211V16.2345H7.64156L7.67713 16.1278H7.85498L8.1751 15.8432L7.92611 16.2345L7.89055 16.4123L7.99725 16.6613L8.06839 16.6257V16.4479L8.21067 16.3056L8.28181 15.9499Z" fill="#FFC72C"/>
<path d="M12.5145 15.9499L12.479 15.8076L12.1588 15.6654L11.9454 15.5942H11.8031L11.7676 15.5587L11.981 15.452L12.0166 15.4164L12.1944 15.4875L12.3367 15.5942L12.0521 15.2385L11.8031 14.6694L12.1944 14.9184L12.5501 15.5587L12.6924 15.6298H13.0481L13.2259 15.5942L13.4393 15.7009L13.4038 15.7365H13.2615L13.1192 15.8076L12.7991 15.7721L13.1548 15.8788L13.2259 16.0211V16.2345H13.1903L13.1548 16.1278H12.9769L12.6568 15.8432L12.9058 16.2345L12.9414 16.4123L12.8347 16.6613L12.7635 16.6257V16.4479L12.6212 16.3056L12.5145 15.9499Z" fill="#FFC72C"/>
<path d="M8.779 9.014C8.4233 9.04957 8.45887 9.29855 8.779 9.61868C8.85013 9.68981 8.85013 9.68981 8.8857 9.61868C8.92127 9.51197 9.02798 9.44083 9.09912 9.51197C9.13469 9.58311 9.13469 9.61868 9.27696 9.58311C9.31253 9.61868 9.38367 9.65425 9.41924 9.68981C9.38367 9.68981 9.24139 9.72538 9.02798 9.76095C8.85013 9.79652 8.74343 9.72538 8.60115 9.58311C8.63672 9.76095 9.06355 9.86766 9.02798 9.86766C9.06355 9.9388 9.06355 9.97437 9.09912 9.97437C9.24139 10.0099 9.38367 9.90323 9.52595 9.9388C9.84607 10.0099 9.31253 9.12071 9.3481 9.08514C9.38367 9.014 8.8857 8.87173 8.779 9.014Z" fill="#FFC72C"/>
<path d="M11.6959 10.01C11.7314 10.01 11.7314 10.01 11.767 9.90327C11.7314 9.90327 12.1583 9.79656 12.1938 9.61872C12.0871 9.76099 11.9448 9.83213 11.767 9.79656C11.5536 9.76099 11.4113 9.68985 11.3757 9.72542C11.4113 9.68985 11.4469 9.65428 11.518 9.61872C11.6603 9.65428 11.6603 9.61872 11.6959 9.54758C11.767 9.47644 11.8737 9.51201 11.9093 9.65428C11.9093 9.72542 11.9448 9.72542 12.016 9.65428C12.3361 9.33416 12.3717 9.08518 12.016 9.04961C11.9448 8.90733 11.4469 9.04961 11.4824 9.15632C11.4824 9.19189 10.9845 10.0811 11.3046 10.01C11.4113 9.93884 11.5536 10.01 11.6959 10.01Z" fill="#FFC72C"/>
<path d="M8.85352 11.2905V13.8871C8.85352 14.6696 9.5649 15.3098 10.4186 15.3098C11.2722 15.3098 11.9836 14.6696 11.9836 13.8871V11.2905H8.85352Z" fill="#C6363C"/>
<path d="M9.99023 10.8281H10.8795V16.1635H9.99023V10.8281Z" fill="#F5F5F5"/>
<path d="M7.96289 12.6064H12.8714V13.4957H7.96289V12.6064Z" fill="#F5F5F5"/>
<path d="M9.7053 11.9305L9.34961 12.2862L9.45632 11.9305L9.34961 11.6104L9.7053 11.9305Z" fill="#F5F5F5"/>
<path d="M9.7053 14.1716L9.34961 14.5273L9.45632 14.1716L9.34961 13.8159L9.7053 14.1716Z" fill="#F5F5F5"/>
<path d="M11.1289 11.9305L11.4846 12.2862L11.4135 11.9305L11.4846 11.6104L11.1289 11.9305Z" fill="#F5F5F5"/>
<path d="M11.1289 14.1716L11.4846 14.5273L11.4135 14.1716L11.4846 13.8159L11.1289 14.1716Z" fill="#F5F5F5"/>
<path d="M10.7719 5.2793H10.0605V5.99068H10.7719V5.2793Z" fill="#0C4076"/>
<path d="M10.0985 4.81681L10.1696 4.85238L10.2408 4.81681H10.3475V5.24364H10.0629V5.38592H10.7743V5.24364H10.4897V4.81681H10.5964L10.6676 4.85238L10.7387 4.81681L10.8099 4.74568L10.7387 4.67454L10.6676 4.6034L10.5964 4.67454H10.4897V4.53226L10.5609 4.46112L10.4897 4.38999L10.4186 4.31885L10.3475 4.38999L10.2763 4.46112L10.3475 4.53226V4.67454H10.2408L10.1696 4.6034L10.0985 4.67454L10.0273 4.74568L10.0985 4.81681Z" fill="#FFCE31"/>
<path d="M12.7297 6.24001C12.2673 5.99103 11.9827 5.91989 11.876 6.09774C11.876 6.09774 11.876 6.13331 11.8405 6.13331C11.2714 5.84875 10.8445 5.81318 10.4177 5.99103C9.99087 5.81318 9.59961 5.84875 8.99493 6.13331C8.99493 6.09774 8.99493 6.09774 8.95936 6.09774C8.85266 5.91989 8.5681 5.95546 8.1057 6.24001C7.64331 6.489 7.21648 6.84469 7.32318 6.98696C7.35875 7.23595 7.50103 7.44936 7.75001 7.69835C8.03457 7.84062 8.60367 7.87619 9.20835 7.84062C9.99087 7.80505 10.809 7.80505 11.5915 7.84062C12.1962 7.87619 12.7653 7.84062 13.0498 7.69835C13.2988 7.44936 13.4411 7.23595 13.4766 6.98696C13.6189 6.88026 13.1565 6.52457 12.7297 6.24001Z" fill="#FFC72C"/>
<path d="M10.9153 7.23536C11.1999 6.98638 11.3777 6.7374 11.52 6.48841C11.271 6.41727 11.022 6.38171 10.8086 6.41727C10.8442 6.70183 10.8797 6.98638 10.9153 7.23536Z" fill="#C6363C"/>
<path d="M9.92067 7.23529C9.95624 6.95074 9.99181 6.66618 10.0629 6.38163C9.84953 6.34606 9.60055 6.38163 9.35156 6.45277C9.4227 6.73732 9.63612 6.98631 9.92067 7.23529Z" fill="#C6363C"/>
<path d="M12.7662 6.73734C12.7306 6.70177 12.6595 6.63063 12.5528 6.59506C12.4461 6.55949 12.3394 6.52393 12.2682 6.52393C12.2326 6.80848 12.1259 7.09303 11.877 7.37758C11.9837 7.37758 12.0904 7.34202 12.1615 7.30645C12.4461 7.16417 12.6239 6.98632 12.7662 6.84405C12.8017 6.80848 12.8017 6.77291 12.7662 6.73734Z" fill="#C6363C"/>
<path d="M8.56908 6.48828C8.49794 6.48828 8.39123 6.52385 8.28453 6.55942C8.10668 6.63056 7.99997 6.77283 8.07111 6.8084C8.21339 6.95068 8.39123 7.09296 8.67579 7.2708C8.74692 7.30637 8.85363 7.30637 8.96034 7.34194C8.71136 7.05739 8.60465 6.8084 8.56908 6.48828Z" fill="#C6363C"/>
<path d="M7.78516 7.69824H13.0494V8.40962H7.78516V7.69824Z" fill="#FFC72C"/>
<path d="M7.78485 7.83984L7.64258 8.08883L7.82042 8.26667L8.06941 8.01769L7.78485 7.83984Z" fill="#0C4076"/>
<path d="M13.0502 7.83984L12.7656 8.01769L13.0146 8.26667L13.1925 8.08883L13.0502 7.83984Z" fill="#0C4076"/>
<path d="M10.4174 7.66211L10.1328 7.91109L10.4174 8.12451L10.7019 7.91109L10.4174 7.66211Z" fill="#0C4076"/>
<path d="M9.10096 8.16023L9.34994 7.91124L9.06539 7.7334L8.81641 7.94681L9.10096 8.16023Z" fill="#C6363C"/>
<path d="M11.7334 8.16023L12.0179 7.94681L11.7689 7.7334L11.4844 7.91124L11.7334 8.16023Z" fill="#C6363C"/>
</svg>
