<svg width="25" height="25" viewBox="0 0 25 25" fill="none" xmlns="http://www.w3.org/2000/svg">
<circle cx="12.5" cy="12.5" r="12.5" fill="white"/>
<path d="M12.8563 23.1706C18.7496 23.1706 23.527 18.3931 23.527 12.4998C23.527 6.60655 18.7496 1.8291 12.8563 1.8291C6.963 1.8291 2.18555 6.60655 2.18555 12.4998C2.18555 18.3931 6.963 23.1706 12.8563 23.1706Z" fill="#E30A17"/>
<path d="M16.1664 14.9894L16.202 13.0687L14.2812 12.4996L16.202 11.9305L16.1664 10.0098L17.3402 11.5392L19.2609 10.9701L18.0871 12.4996L19.2609 14.0291L17.3402 13.46L16.1664 14.9894Z" fill="#F5F5F5"/>
<path d="M13.2843 16.7682C10.9368 16.7682 9.05162 14.8475 9.05162 12.4999C9.05162 10.1524 10.9368 8.23162 13.2843 8.23162C14.1736 8.23162 14.9917 8.51618 15.703 8.97858C14.7427 7.87593 13.3199 7.16455 11.7193 7.16455C8.80264 7.16455 6.45508 9.54768 6.45508 12.4999C6.45508 15.4522 8.80264 17.8353 11.7193 17.8353C13.3199 17.8353 14.7427 17.1239 15.703 16.0213C15.0272 16.4837 14.2091 16.7682 13.2843 16.7682Z" fill="#F5F5F5"/>
</svg>
