<svg width="49" height="45" viewBox="0 0 49 45" fill="none" xmlns="http://www.w3.org/2000/svg">
<path fill-rule="evenodd" clip-rule="evenodd" d="M21.8605 14.6628H17.9448V18.5785H15.8122V14.6628H11.8965V12.5302H15.8122V8.6145H17.9448V12.5302H21.8605V14.6628Z" fill="#FEDA44"/>
<path fill-rule="evenodd" clip-rule="evenodd" d="M29.127 12.5303H39.0909V14.6628H29.127V12.5303Z" fill="#FEDA44"/>
<path fill-rule="evenodd" clip-rule="evenodd" d="M29.127 24.2773H39.0909V26.4099H29.127V24.2773Z" fill="#FEDA44"/>
<path fill-rule="evenodd" clip-rule="evenodd" d="M29.127 30.5425H39.0909V32.675H29.127V30.5425Z" fill="#FEDA44"/>
<path fill-rule="evenodd" clip-rule="evenodd" d="M48.4885 1.85001C48.4879 1.35953 48.2928 0.889305 47.946 0.542485C47.5993 0.195728 47.1291 0.000641227 46.6388 0H4.34974C3.85936 0.000641227 3.38924 0.195728 3.04249 0.542485C2.69573 0.889243 2.50064 1.35936 2.5 1.84974V23.3513C3.15625 22.764 3.8703 22.2399 4.63257 21.7886V2.13257H46.3559V39.1571H23.7209C23.3672 39.9084 22.9463 40.6219 22.4658 41.2896H46.6385C47.129 41.2891 47.5992 41.094 47.946 40.7472C48.2928 40.4003 48.4879 39.9301 48.4885 39.4396V1.85001Z" fill="#FEDA44"/>
<path d="M21.6803 33.1915C21.6803 38.9367 17.0229 43.5942 11.2777 43.5942C5.53243 43.5942 0.875 38.9367 0.875 33.1915C0.875 27.4463 5.53243 22.7888 11.2777 22.7888C17.0229 22.7888 21.6803 27.4463 21.6803 33.1915Z" stroke="#FEDA44" stroke-width="1.75"/>
<line x1="6.87611" y1="29.1638" x2="15.4126" y2="37.7004" stroke="#FEDA44" stroke-width="1.75" stroke-linecap="round"/>
<line x1="6.87611" y1="29.1638" x2="15.4126" y2="37.7004" stroke="#FEDA44" stroke-width="1.75" stroke-linecap="round"/>
<line x1="0.875" y1="-0.875" x2="12.9475" y2="-0.875" transform="matrix(-0.707107 0.707107 0.707107 0.707107 16.916 29.1638)" stroke="#FEDA44" stroke-width="1.75" stroke-linecap="round"/>
<line x1="0.875" y1="-0.875" x2="12.9475" y2="-0.875" transform="matrix(-0.707107 0.707107 0.707107 0.707107 16.916 29.1638)" stroke="#FEDA44" stroke-width="1.75" stroke-linecap="round"/>
</svg>
