<svg width="31" height="39" viewBox="0 0 31 39" fill="none" xmlns="http://www.w3.org/2000/svg">
<path fill-rule="evenodd" clip-rule="evenodd" d="M0.765625 4.0892C0.765625 2.22145 2.28078 0.706299 4.14852 0.706299H12.9441C17.6095 0.706299 22.0839 2.55964 25.3828 5.85861C28.6818 9.15757 30.5351 13.6319 30.5351 18.2974V35.2119C30.5351 37.0796 29.02 38.5948 27.1522 38.5948H4.14852C2.28078 38.5948 0.765625 37.0796 0.765625 35.2119V4.0892ZM27.8288 18.974C27.8288 17.7179 27.3298 16.5132 26.4417 15.6251C25.5535 14.7369 24.3488 14.2379 23.0928 14.2379H20.3864C19.4892 14.2379 18.6288 13.8815 17.9944 13.2471C17.36 12.6127 17.0035 11.7522 17.0035 10.855V8.14868C17.0035 6.8926 16.5046 5.68796 15.6164 4.79978C14.7282 3.91159 13.5236 3.41262 12.2675 3.41262H4.14852C3.77544 3.41262 3.47194 3.71611 3.47194 4.0892V35.2119C3.47194 35.585 3.77544 35.8885 4.14852 35.8885H27.1522C27.5253 35.8885 27.8288 35.585 27.8288 35.2119V18.974ZM18.8213 4.62205C19.3993 5.69638 19.7099 6.90653 19.7099 8.14868V10.855C19.7099 11.0344 19.7811 11.2065 19.908 11.3334C20.0349 11.4603 20.207 11.5316 20.3864 11.5316H23.0928C24.3349 11.5316 25.5451 11.8421 26.6194 12.4202C25.8807 10.7014 24.8177 9.12076 23.4692 7.77226C22.1207 6.42376 20.5401 5.36073 18.8213 4.62205ZM7.53142 25.0632C7.53142 24.3158 8.13725 23.71 8.88458 23.71H22.4162C23.1635 23.71 23.7693 24.3158 23.7693 25.0632C23.7693 25.8105 23.1635 26.4163 22.4162 26.4163H8.88458C8.13725 26.4163 7.53142 25.8105 7.53142 25.0632ZM7.53142 30.4758C7.53142 29.7285 8.13725 29.1227 8.88458 29.1227H15.6504C16.3977 29.1227 17.0035 29.7285 17.0035 30.4758C17.0035 31.2231 16.3977 31.829 15.6504 31.829H8.88458C8.13725 31.829 7.53142 31.2231 7.53142 30.4758Z" fill="#5152FB"/>
</svg>
