<svg width="46" height="49" viewBox="0 0 46 49" fill="none" xmlns="http://www.w3.org/2000/svg">
<path d="M12.4168 33.3726H2.91819C2.62331 33.374 2.34082 33.494 2.13231 33.7065C1.9238 33.919 1.80608 34.2069 1.80469 34.5074V47.5657C1.80468 47.8672 1.92184 48.1564 2.13051 48.37C2.33917 48.5837 2.6224 48.7045 2.91819 48.7059H12.4168C12.5635 48.7059 12.7087 48.6764 12.8441 48.619C12.9796 48.5616 13.1026 48.4776 13.206 48.3716C13.3095 48.2657 13.3913 48.1399 13.4469 48.0016C13.5026 47.8633 13.5309 47.7152 13.5302 47.5657V34.5074C13.5302 34.2064 13.4129 33.9178 13.2041 33.705C12.9953 33.4921 12.7121 33.3726 12.4168 33.3726ZM11.3033 46.4309H4.02628V35.6422H11.3033V46.4309Z" fill="#FEDA44"/>
<path d="M28.651 25.2549H19.1524C18.8571 25.2549 18.574 25.3732 18.3652 25.5837C18.1563 25.7942 18.0391 26.0797 18.0391 26.3774V47.578C18.0384 47.7259 18.0667 47.8724 18.1223 48.0092C18.1779 48.146 18.2598 48.2704 18.3632 48.3752C18.4667 48.48 18.5897 48.5632 18.7251 48.6199C18.8605 48.6767 19.0058 48.7059 19.1524 48.7059H28.651C28.7977 48.7059 28.9429 48.6767 29.0784 48.6199C29.2138 48.5632 29.3368 48.48 29.4403 48.3752C29.5437 48.2704 29.6257 48.146 29.6813 48.0092C29.737 47.8724 29.7652 47.7259 29.7645 47.578V26.3774C29.7645 26.0797 29.6471 25.7942 29.4383 25.5837C29.2295 25.3732 28.9463 25.2549 28.651 25.2549ZM27.5377 46.4555H20.2554V27.5H27.5377V46.4555Z" fill="#FEDA44"/>
<path d="M44.888 17.1372H35.3937C35.2471 17.1365 35.1018 17.1647 34.9661 17.2202C34.8305 17.2757 34.7072 17.3574 34.6033 17.4606C34.4993 17.5638 34.4169 17.6865 34.3606 17.8216C34.3044 17.9566 34.2754 18.1015 34.2754 18.2477V47.59C34.2754 47.886 34.3933 48.1698 34.603 48.379C34.8127 48.5883 35.0971 48.7058 35.3937 48.7058H44.888C45.1837 48.7044 45.4666 48.5863 45.6752 48.3772C45.8838 48.1681 46.0009 47.8851 46.0009 47.59V18.2477C46.0009 17.9532 45.8837 17.6707 45.675 17.4625C45.4662 17.2542 45.1832 17.1372 44.888 17.1372ZM43.7908 46.4795H36.5171V19.3688H43.7908V46.4795Z" fill="#FEDA44"/>
<path d="M40.5676 5.51286L39.7676 10.1671C39.7178 10.4639 39.7875 10.7683 39.9616 11.0137C40.1357 11.2592 40.3999 11.4258 40.6964 11.477H40.8897C41.1573 11.4758 41.4158 11.3804 41.62 11.2077C41.8242 11.0349 41.961 10.7957 42.0064 10.5322L43.2789 3.09183C43.3243 2.81656 43.2674 2.53418 43.1191 2.29787C42.9708 2.06156 42.7412 1.88762 42.4735 1.80882L36.1114 0.0265773C35.8283 -0.0356799 35.5322 0.012371 35.2834 0.160946C35.0345 0.309521 34.8518 0.547442 34.7723 0.826139C34.6929 1.10484 34.7227 1.40334 34.8558 1.66076C34.9889 1.91818 35.2153 2.11513 35.4886 2.21144L39.7192 3.41391L0.623275 23.1098C0.354868 23.2451 0.151169 23.4814 0.057028 23.7668C-0.0371131 24.0522 -0.0140164 24.3634 0.121255 24.6317C0.256527 24.9001 0.492894 25.1038 0.778338 25.1979C1.06378 25.292 1.3749 25.2689 1.64331 25.1337L40.5676 5.51286Z" fill="#FEDA44"/>
</svg>
