<svg width="39" height="31" viewBox="0 0 39 31" fill="none" xmlns="http://www.w3.org/2000/svg">
<path fill-rule="evenodd" clip-rule="evenodd" d="M2.29236 2.35119C3.30742 1.33613 4.68415 0.765869 6.11967 0.765869H33.1829C34.6184 0.765869 35.9951 1.33613 37.0102 2.35119C38.0252 3.36626 38.5955 4.74299 38.5955 6.17851V25.1227C38.5955 26.5583 38.0252 27.935 37.0102 28.9501C35.9951 29.9651 34.6184 30.5354 33.1829 30.5354H6.11967C4.68415 30.5354 3.30742 29.9651 2.29236 28.9501C1.27729 27.935 0.707031 26.5583 0.707031 25.1227V6.17851C0.707031 4.74299 1.27729 3.36626 2.29236 2.35119ZM3.41335 11.5911V25.1227C3.41335 25.8405 3.69848 26.5289 4.20601 27.0364C4.71355 27.5439 5.40191 27.8291 6.11967 27.8291H33.1829C33.9006 27.8291 34.589 27.5439 35.0965 27.0364C35.6041 26.5289 35.8892 25.8405 35.8892 25.1227V11.5911H3.41335ZM35.8892 7.53167H3.41335V6.17851C3.41335 5.46075 3.69848 4.77239 4.20601 4.26485C4.71355 3.75732 5.40191 3.47219 6.11967 3.47219H33.1829C33.9006 3.47219 34.589 3.75732 35.0965 4.26485C35.6041 4.77239 35.8892 5.46075 35.8892 6.17851V7.53167ZM6.11967 19.7101C6.11967 18.9628 6.7255 18.3569 7.47283 18.3569H18.2981C19.0454 18.3569 19.6513 18.9628 19.6513 19.7101C19.6513 20.4574 19.0454 21.0633 18.2981 21.0633H7.47283C6.7255 21.0633 6.11967 20.4574 6.11967 19.7101ZM6.11967 23.7696C6.11967 23.0223 6.7255 22.4164 7.47283 22.4164H12.8855C13.6328 22.4164 14.2386 23.0223 14.2386 23.7696C14.2386 24.5169 13.6328 25.1227 12.8855 25.1227H7.47283C6.7255 25.1227 6.11967 24.5169 6.11967 23.7696Z" fill="#FA4769"/>
</svg>
