<svg width="33" height="36" viewBox="0 0 33 36" fill="none" xmlns="http://www.w3.org/2000/svg">
<path fill-rule="evenodd" clip-rule="evenodd" d="M12.1396 2.76577C11.7807 2.76577 11.4366 2.90833 11.1828 3.1621C10.929 3.41587 10.7865 3.76005 10.7865 4.11893C10.7865 5.43482 11.3092 6.69682 12.2397 7.6273C13.1701 8.55778 14.4321 9.08051 15.748 9.08051H17.5523C18.8681 9.08051 20.1301 8.55778 21.0606 7.6273C21.9911 6.69682 22.5138 5.43482 22.5138 4.11893C22.5138 3.76005 22.3713 3.41587 22.1175 3.1621C21.8637 2.90833 21.5196 2.76577 21.1607 2.76577H12.1396ZM22.312 10.1307C22.5428 9.94799 22.764 9.75121 22.9743 9.54096C24.4123 8.10295 25.2202 6.15258 25.2202 4.11893C25.2202 3.04229 24.7925 2.00974 24.0312 1.24844C23.2699 0.487142 22.2373 0.0594482 21.1607 0.0594482H12.1396C11.063 0.0594482 10.0304 0.487142 9.26913 1.24844C8.50783 2.00974 8.08013 3.04229 8.08013 4.11893C8.08013 6.15258 8.888 8.10295 10.326 9.54096C10.5363 9.75121 10.7575 9.94799 10.9883 10.1307C8.94397 10.9162 7.06563 12.1259 5.48715 13.7044C2.52654 16.665 0.863281 20.6804 0.863281 24.8674V26.6716C0.863281 28.9445 1.76619 31.1243 3.37338 32.7315C4.98057 34.3387 7.16038 35.2416 9.43329 35.2416H23.867C26.1399 35.2416 28.3197 34.3387 29.9269 32.7315C31.5341 31.1243 32.437 28.9445 32.437 26.6716V24.8674C32.437 20.6804 30.7738 16.665 27.8131 13.7044C26.2347 12.1259 24.3563 10.9162 22.312 10.1307ZM16.6501 11.7868C13.181 11.7868 9.85388 13.165 7.4008 15.618C4.94773 18.0711 3.5696 21.3982 3.5696 24.8674V26.6716C3.5696 28.2267 4.18738 29.7182 5.28704 30.8178C6.38669 31.9175 7.87815 32.5353 9.43329 32.5353H23.867C25.4221 32.5353 26.9136 31.9175 28.0133 30.8178C29.1129 29.7182 29.7307 28.2267 29.7307 26.6716V24.8674C29.7307 21.3982 28.3526 18.0711 25.8995 15.618C23.4464 13.165 20.1193 11.7868 16.6501 11.7868Z" fill="#43C876"/>
</svg>
