<svg width="25" height="25" viewBox="0 0 25 25" fill="none" xmlns="http://www.w3.org/2000/svg">
<circle cx="12.5" cy="12.5" r="12.5" fill="white"/>
<path d="M12.5016 2.13428C7.84205 2.13428 3.89388 5.03672 2.43555 9.04485H22.5677C21.1093 5.03672 17.1612 2.13428 12.5016 2.13428Z" fill="#F5F5F5"/>
<path d="M12.5016 22.8661C17.1612 22.8661 21.1093 19.9982 22.5677 15.9556H2.43555C3.89388 19.9982 7.84205 22.8661 12.5016 22.8661Z" fill="#D01C1F"/>
<path d="M2.43475 9.04443C2.04349 10.1156 1.83008 11.2904 1.83008 12.4997C1.83008 13.7091 2.04349 14.8839 2.43475 15.955H22.5669C22.9581 14.8839 23.1715 13.7091 23.1715 12.4997C23.1715 11.2904 22.9581 10.1156 22.5669 9.04443H2.43475Z" fill="#009B74"/>
</svg>
