<svg width="60" height="60" viewBox="0 0 60 60" fill="none" xmlns="http://www.w3.org/2000/svg">
<path d="M13.2468 36.6234L36.6234 36.6234L36.6234 60C23.723 60 13.2468 49.5237 13.2468 36.6234Z" fill="#FCA3BB"/>
<path d="M36.6234 60L36.6234 36.6234L60 36.6234C60 49.5237 49.5265 60 36.6234 60Z" fill="#8094DD"/>
<path d="M36.6234 36.6235L36.6234 13.2469C49.5265 13.2469 60 23.7232 60 36.6235L36.6234 36.6235Z" fill="#0047BB"/>
<path d="M36.6238 36.623L36.6238 48.1963C30.2325 48.1963 25.0477 43.0143 25.0477 36.6202L36.6238 36.6202L36.6238 36.623Z" fill="#B7CBE9"/>
<path d="M25.0477 36.6235C25.0477 30.2351 30.2353 25.0474 36.6238 25.0474L36.6238 36.6235L25.0477 36.6235Z" fill="#2A7DE1"/>
<path d="M48.1995 36.6231C48.1995 43.0144 43.0174 48.1992 36.6234 48.1992L36.6234 36.6231L48.1995 36.6231V36.6231Z" fill="#8094DD"/>
<path d="M48.1995 36.6235L36.6234 36.6235L36.6234 25.0474C43.0146 25.0474 48.1995 30.2295 48.1995 36.6235V36.6235Z" fill="#B7CBE9"/>
<path d="M36.6262 36.6231H48.1995C48.1995 43.0144 43.0174 48.1992 36.6234 48.1992V36.6231H36.6262Z" fill="white"/>
<path d="M36.6225 0V36.6225H0C0 16.4124 16.4124 0 36.6225 0Z" fill="#0047BB"/>
<path d="M36.625 13.6182V36.6193H13.6238C13.6238 23.9254 23.931 13.6182 36.625 13.6182V13.6182Z" fill="white"/>
</svg>
