<svg width="61" height="60" viewBox="0 0 61 60" fill="none" xmlns="http://www.w3.org/2000/svg">
<g clip-path="url(#clip0_353_2527)">
<path d="M60.4004 15C60.4004 6.71573 53.6847 0 45.4004 0C37.1161 0 30.4004 6.71573 30.4004 15C30.4004 23.2843 37.1161 30 45.4004 30C53.6847 30 60.4004 23.2843 60.4004 15Z" fill="#0047BB"/>
<path d="M45.4022 21.6969C41.7044 21.6969 38.7051 18.6976 38.7051 14.9998C38.7051 11.302 41.7044 8.30273 45.4022 8.30273C49.0999 8.30273 52.0992 11.302 52.0992 14.9998C52.0992 18.6976 49.0999 21.6969 45.4022 21.6969Z" fill="white"/>
<path d="M30.4004 30H0.400391C0.400391 13.4301 13.8305 0 30.4004 0V30Z" fill="#F8A3BC"/>
<path d="M30.4004 60C13.8305 60 0.400391 46.5699 0.400391 30H30.4004V60Z" fill="#8094DD"/>
<path d="M30.4013 47.0595C20.9786 47.0595 13.3418 39.4227 13.3418 30H30.4013V47.0595Z" fill="#B7CBE9"/>
<path d="M60.4004 30H30.4004V60H60.4004V30Z" fill="#0A335B"/>
<path d="M51.8221 38.5801H38.9824V51.4197H51.8221V38.5801Z" fill="#8094DD"/>
</g>
<defs>
<clipPath id="clip0_353_2527">
<rect width="60" height="60" fill="white" transform="translate(0.400391)"/>
</clipPath>
</defs>
</svg>
