<svg width="61" height="60" viewBox="0 0 61 60" fill="none" xmlns="http://www.w3.org/2000/svg">
<g clip-path="url(#clip0_353_2566)">
<path d="M0.599609 30V60H30.5996C30.5996 43.4338 17.1695 30 0.599609 30Z" fill="#0A335B"/>
<path d="M0.599609 42.6641V60.0008H17.9364C17.9364 50.4269 10.1735 42.6641 0.599609 42.6641Z" fill="#F9FBFC"/>
<path d="M30.5996 30C30.5996 46.5699 44.0298 60 60.5996 60C60.5996 43.4301 47.1695 30 30.5996 30Z" fill="#0A335B"/>
<path d="M0.599609 0C0.599609 16.5699 14.0298 30 30.5996 30C30.5996 13.4301 17.1695 0 0.599609 0Z" fill="#FCA3BB"/>
<path d="M60.5996 0C44.0298 0 30.5996 13.4301 30.5996 30C47.1695 30 60.5996 16.5699 60.5996 0Z" fill="#0047BB"/>
</g>
<defs>
<clipPath id="clip0_353_2566">
<rect width="60" height="60" fill="white" transform="translate(0.599609)"/>
</clipPath>
</defs>
</svg>
