<svg width="61" height="60" viewBox="0 0 61 60" fill="none" xmlns="http://www.w3.org/2000/svg">
<g clip-path="url(#clip0_353_2552)">
<path d="M30.3682 0V30H0.368164C0.368164 13.4446 13.8127 0 30.3682 0Z" fill="#0A335B"/>
<path d="M30.3682 0V30H0.368164C0.368164 13.4446 13.8127 0 30.3682 0Z" fill="#0047BB"/>
<path d="M49.21 30H30.3682V11.1582C40.7738 11.1582 49.21 19.5944 49.21 30Z" fill="#B7CBE9"/>
<path d="M30.3701 11.1582V30H11.5283C11.5283 19.6016 19.9717 11.1582 30.3701 11.1582Z" fill="#FCA3BB"/>
<path d="M30.3682 30H0.368164V60H30.3682V30Z" fill="#F9FBFC"/>
<path d="M30.2002 45C30.2002 36.7157 23.4845 30 15.2002 30C6.91592 30 0.200195 36.7157 0.200195 45C0.200195 53.2843 6.91592 60 15.2002 60C23.4845 60 30.2002 53.2843 30.2002 45Z" fill="#FCA3BB"/>
<path d="M15.6288 41.1426C13.7371 41.1426 12.2002 42.8716 12.2002 44.9997C12.2002 47.1278 13.7371 48.8569 15.6288 48.8569C17.5204 48.8569 19.0573 47.1278 19.0573 44.9997C19.0573 42.8716 17.5204 41.1426 15.6288 41.1426Z" fill="#2A7DE1"/>
<path d="M60.3682 30H30.3682V60H60.3682V30Z" fill="#0A335B"/>
<path d="M51.7599 38.6123H38.9814V51.3907H51.7599V38.6123Z" fill="#2A7DE1"/>
</g>
<defs>
<clipPath id="clip0_353_2552">
<rect width="60" height="60" fill="white" transform="translate(0.200195)"/>
</clipPath>
</defs>
</svg>
