<svg width="25" height="25" viewBox="0 0 25 25" fill="none" xmlns="http://www.w3.org/2000/svg">
<circle cx="12.5" cy="12.5" r="12.5" fill="white"/>
<path d="M12.652 1.8291C7.99244 1.8291 4.04427 4.81691 2.58594 8.94292H22.7181C21.2597 4.81691 17.3115 1.8291 12.652 1.8291Z" fill="#EC1C24"/>
<path d="M12.652 23.1705C17.3115 23.1705 21.2597 20.2182 22.7181 16.0566H2.58594C4.04427 20.2182 7.99244 23.1705 12.652 23.1705Z" fill="#1B75BB"/>
<path d="M2.58514 8.94287C2.19388 10.0455 1.98047 11.2549 1.98047 12.4998C1.98047 13.7447 2.19388 14.9541 2.58514 16.0567H22.7173C23.1085 14.9541 23.3219 13.7447 23.3219 12.4998C23.3219 11.2549 23.1085 10.0455 22.7173 8.94287H2.58514Z" fill="#F9F9F9"/>
<path d="M16.7969 8.67194L17.8073 6.34019L17.0301 5.09659L15.7476 5.56294L14.8538 4.51365L13.649 5.21317L12.5609 4.31934L11.4727 5.21317L10.268 4.51365L9.37417 5.56294L8.0917 5.09659L7.31445 6.37905L8.32488 8.7108C9.60734 8.12786 11.0453 7.81696 12.5609 7.81696C14.0765 7.73924 15.5145 8.089 16.7969 8.67194Z" fill="#F5F5F5"/>
<path d="M13.6103 5.29101L12.561 4.43604L11.5117 5.29101L11.706 7.70049C11.9781 7.66163 12.289 7.66163 12.561 7.66163C12.833 7.66163 13.1439 7.66163 13.416 7.70049L13.6103 5.29101Z" fill="#428BC1"/>
<path d="M12.5614 18.31C14.9709 18.31 16.9529 16.328 16.9529 13.9185V8.71094H8.16992V13.9185C8.16992 16.328 10.1519 18.31 12.5614 18.31Z" fill="#FE0101"/>
<path d="M12.5598 18.2322C14.9305 18.2322 16.8736 16.289 16.8736 13.9184V8.78857H8.24609V13.9184C8.24609 16.289 10.1892 18.2322 12.5598 18.2322Z" fill="#F5F5F5"/>
<path d="M10.0734 8.94385H8.40234V10.7704H10.0734V8.94385Z" fill="#FE0101"/>
<path d="M10.0742 12.597H11.7453V10.7705H10.0742V12.597Z" fill="#FE0101"/>
<path d="M8.40234 13.918C8.40234 14.0735 8.40234 14.2289 8.44121 14.4232H10.0734V12.5967H8.40234V13.918Z" fill="#FE0101"/>
<path d="M13.3762 12.5967H11.7051V14.4232H13.3762V12.5967Z" fill="#FE0101"/>
<path d="M13.377 16.2499H15.048V14.4233H13.377V16.2499Z" fill="#FE0101"/>
<path d="M15.0469 17.2214C15.3966 16.9493 15.7464 16.5996 15.9796 16.2109H15.0469V17.2214Z" fill="#FE0101"/>
<path d="M10.0742 16.2499H11.7453V14.4233H10.0742V16.2499Z" fill="#FE0101"/>
<path d="M9.14062 16.25C9.41266 16.6386 9.72356 16.9495 10.0733 17.2604V16.25H9.14062Z" fill="#FE0101"/>
<path d="M12.8321 18.0375C13.0264 18.0375 13.1819 17.9986 13.3762 17.9598V16.2109H11.7051V17.9598C11.8994 17.9986 12.0548 18.0375 12.2492 18.0375C12.4435 18.0763 12.6378 18.0763 12.8321 18.0375Z" fill="#FE0101"/>
<path d="M16.6791 14.4232C16.6791 14.2678 16.718 14.1123 16.718 13.918V12.5967H15.0469V14.4232H16.6791Z" fill="#FE0101"/>
<path d="M13.377 12.597H15.048V10.7705H13.377V12.597Z" fill="#FE0101"/>
<path d="M13.3762 8.94385H11.7051V10.7704H13.3762V8.94385Z" fill="#FE0101"/>
<path d="M16.6809 10.7704V8.94385H15.0098V10.7704H16.6809Z" fill="#FE0101"/>
<path d="M9.41343 5.64067L8.13097 5.17432L7.39258 6.34019L7.66462 6.96199L8.36414 8.55536C8.86935 8.32218 9.41343 8.12787 9.99637 8.01128L9.41343 5.64067Z" fill="#428BC1"/>
<path d="M9.3358 6.80664C9.37466 6.88437 9.41352 7.00095 9.41352 7.11754C9.41352 7.4673 9.14148 7.73934 8.79172 7.73934C8.48082 7.73934 8.24765 7.50617 8.16992 7.23413C8.28651 7.42844 8.48082 7.54503 8.714 7.54503C9.06376 7.54503 9.3358 7.27299 9.3358 6.92323V6.80664Z" fill="#F5F5F5"/>
<path d="M8.75246 5.91269V5.95155L8.7136 6.18472L8.90791 6.30131V6.34017H8.86905L8.67473 6.4179L8.63587 6.61221V6.65107L8.59701 6.61221L8.44156 6.49562L8.20838 6.57335V6.53449L8.24725 6.34017L8.0918 6.18472V6.14586L8.32497 6.06814L8.36383 5.87382V5.83496V5.87382L8.51928 5.99041L8.75246 5.95155V5.91269Z" fill="#FFE62E"/>
<path d="M11.5107 5.29103L10.3059 4.63037L9.41211 5.6408L9.99505 7.97255C10.5391 7.8171 11.1221 7.73937 11.705 7.70051L11.5107 5.29103Z" fill="#2A5F9E"/>
<path d="M9.83904 7.38973C10.422 7.23428 11.0049 7.15656 11.6267 7.07883L11.5879 6.45703C10.9272 6.49589 10.3054 6.61248 9.68359 6.76793L9.83904 7.38973Z" fill="#FE0101"/>
<path d="M9.56756 6.22372C10.2282 6.06827 10.8889 5.95168 11.5495 5.87395L11.5107 5.29102C10.8112 5.36874 10.1116 5.48533 9.41211 5.64078L9.56756 6.22372Z" fill="#FE0101"/>
<path d="M12.5587 6.37891C12.481 6.37891 12.3644 6.65094 12.209 6.45663C12.209 6.45663 12.3256 6.61208 12.3256 6.68981L12.209 6.65094C12.209 7.46706 12.9474 7.4282 12.9474 6.65094L12.8308 6.68981C12.8308 6.65094 12.9474 6.45663 12.9474 6.45663C12.7531 6.65094 12.6753 6.41777 12.5587 6.37891Z" fill="#FFE62E"/>
<path d="M13.0255 5.25195C12.9478 5.25195 12.8312 5.52399 12.6758 5.32968C12.6758 5.32968 12.7924 5.48513 12.7924 5.56285L12.6758 5.52399C12.6758 6.3401 13.4142 6.30124 13.4142 5.52399L13.2976 5.56285C13.2976 5.52399 13.4142 5.32968 13.4142 5.32968C13.2587 5.52399 13.1421 5.25195 13.0255 5.25195Z" fill="#FFE62E"/>
<path d="M12.0548 5.25195C11.9771 5.25195 11.8605 5.52399 11.7051 5.32968C11.7051 5.32968 11.8217 5.48513 11.8217 5.56285L11.7051 5.52399C11.7051 6.3401 12.4435 6.30124 12.4435 5.52399L12.3269 5.56285C12.3269 5.52399 12.4435 5.32968 12.4435 5.32968C12.288 5.52399 12.1714 5.25195 12.0548 5.25195Z" fill="#FFE62E"/>
<path d="M15.7089 5.6406L14.8151 4.59131L13.6103 5.29083L13.416 7.70031C13.999 7.73917 14.5819 7.85576 15.126 7.97235L15.7089 5.6406Z" fill="#2A5F9E"/>
<path d="M13.8427 5.79599H13.9593C14.037 5.83485 14.037 5.79599 14.0758 5.75712C14.1536 5.71826 14.3867 5.6794 14.6199 5.79599C14.6588 5.83485 14.892 5.83485 14.892 5.83485C14.892 5.83485 14.6976 5.91257 14.5033 5.83485C14.5811 5.87371 14.6199 5.95144 14.6976 5.9903C14.7365 5.9903 15.0085 6.06802 15.0085 6.06802C15.0085 6.06802 14.7754 6.18461 14.6199 6.06802C14.5033 5.95144 14.3867 5.83485 14.1924 5.87371L14.309 5.91257C14.2702 5.95144 14.1536 5.9903 14.1147 5.95144C14.1147 6.06802 14.5033 6.45665 14.9697 6.34006C15.164 6.26234 15.0474 6.41779 15.0085 6.49551C14.9697 6.53438 14.8142 7.38935 14.3867 7.19504C14.3867 7.19504 14.6199 7.11731 14.6199 6.96186L14.5422 6.88414C14.3867 6.88414 14.2702 7.35049 14.0758 7.11731C14.0758 7.11731 14.309 7.00073 14.2702 6.80641H14.1147C13.9981 6.84528 14.037 7.27276 13.8038 7.15618C13.8038 7.15618 14.0758 6.76755 13.9204 6.76755C13.8815 6.84528 13.8038 6.923 13.8038 7.00073C13.8815 7.07845 13.6095 7.07845 13.6484 7.00073C13.6484 6.96186 13.8427 6.76755 13.8038 6.57324C13.7261 6.53437 13.8038 6.18461 13.8427 6.10689C13.6095 6.10689 13.7649 6.02916 13.8038 5.87371C13.8815 5.87371 13.8427 5.87371 13.8427 5.79599Z" fill="#FFE62E"/>
<path d="M16.7572 8.55536L17.7288 6.34019L16.9904 5.17432L15.7079 5.64067L15.125 7.97242C15.6691 8.12787 16.2132 8.32218 16.7572 8.55536Z" fill="#428BC1"/>
<path d="M15.5144 6.49561C16.1751 6.65106 16.7969 6.88423 17.3798 7.15627L16.9912 8.01124C16.4471 7.77807 15.8642 7.58376 15.2812 7.42831L15.5144 6.49561Z" fill="#F5F5F5"/>
<path d="M17.0301 7.85611L17.2632 7.27317C16.6803 7.00113 16.0585 6.80682 15.4367 6.65137L15.2812 7.23431C15.9031 7.38976 16.486 7.58407 17.0301 7.85611Z" fill="#FE0101"/>
<path d="M16.4467 5.64071L16.4855 5.87389L16.3301 6.02934L16.5633 6.10706L16.6021 6.34024L16.7964 6.18479L17.0296 6.26251L16.9907 6.02934L17.1462 5.87389L16.913 5.79616L16.8742 5.56299L16.7187 5.71844L16.4467 5.64071Z" fill="#FFE62E"/>
<path fill-rule="evenodd" clip-rule="evenodd" d="M16.312 7.31144C16.3166 7.30397 16.3212 7.29757 16.3262 7.28903C16.3077 7.23959 16.27 7.24599 16.2302 7.25417C16.1455 7.25915 16.0616 7.26377 15.9755 7.26947C15.9755 7.209 16.0299 7.24314 16.0456 7.20829C15.9808 7.12506 15.8755 7.17912 15.7617 7.13466C15.8353 7.12079 15.8755 7.11367 15.9143 7.10549C15.9111 7.01728 15.8126 7.03862 15.7823 6.97922C15.8624 6.92373 15.9083 6.9312 15.989 7.00554C16.0868 7.09518 16.2309 7.14604 16.3739 7.14995C16.5393 7.15493 16.6783 7.25061 16.8377 7.27622C16.8604 7.27978 16.8896 7.29721 16.8811 7.32709C16.8718 7.36515 16.837 7.36515 16.8085 7.3527C16.7434 7.32495 16.6805 7.29223 16.6136 7.25951C16.5876 7.331 16.6502 7.35056 16.6705 7.39147C16.684 7.41921 16.7292 7.46225 16.673 7.48679C16.6072 7.51454 16.6517 7.4466 16.6346 7.4313C16.5702 7.38044 16.5033 7.3374 16.4169 7.33811C16.3778 7.34629 16.3315 7.38044 16.312 7.31144Z" fill="#040000"/>
</svg>
