<svg width="39" height="36" viewBox="0 0 39 36" fill="none" xmlns="http://www.w3.org/2000/svg">
<path fill-rule="evenodd" clip-rule="evenodd" d="M19.6496 0.0594482C20.3969 0.0594482 21.0027 0.665279 21.0027 1.41261V2.77553C24.6876 2.83024 28.3658 3.11452 32.0161 3.62688C33.8665 3.88887 35.6997 4.20781 37.5125 4.57952C38.2446 4.72964 38.7164 5.44481 38.5662 6.17691C38.4161 6.90901 37.701 7.3808 36.9689 7.23068C35.8603 7.00337 34.7449 6.79655 33.6226 6.61111L37.8695 23.9975C38.2234 25.4448 37.5878 27.171 35.951 27.7606C34.6288 28.2352 33.2328 28.4775 31.828 28.4758C30.4232 28.4775 29.0288 28.2357 27.7066 27.7612C26.0697 27.1715 25.4336 25.4455 25.7841 24L25.7847 23.9977L30.1557 6.11176C27.1181 5.73919 24.0628 5.52902 21.0027 5.48216V31.2213C23.3347 31.3567 25.5753 31.8397 27.6722 32.6203C28.3726 32.881 28.7291 33.6601 28.4684 34.3605C28.2077 35.0609 27.4286 35.4173 26.7282 35.1566C24.5261 34.3369 22.1419 33.8884 19.6496 33.8884C17.1573 33.8884 14.7731 34.3369 12.571 35.1566C11.8706 35.4173 11.0915 35.0609 10.8308 34.3605C10.5701 33.6601 10.9265 32.881 11.6269 32.6203C13.7239 31.8397 15.9645 31.3567 18.2964 31.2213V5.48257C15.2022 5.53056 12.1482 5.74288 9.14368 6.11153L13.5126 23.9975C13.8665 25.4448 13.231 27.171 11.5941 27.7606C10.2719 28.2351 8.87592 28.4775 7.47115 28.4758C6.06637 28.4775 4.67193 28.2357 3.34972 27.7612C1.71289 27.1715 1.07674 25.4455 1.42725 24L5.6768 6.61108C4.55444 6.79653 3.43895 7.00335 2.33032 7.23068C1.59822 7.3808 0.883043 6.90901 0.732927 6.17691C0.58281 5.44481 1.0546 4.72964 1.7867 4.57952C3.59948 4.20781 5.43108 3.88909 7.28145 3.62711C10.8871 3.1202 14.5648 2.83207 18.2964 2.77594V1.41261C18.2964 0.665279 18.9023 0.0594482 19.6496 0.0594482ZM7.47105 10.6691L4.05735 24.6378C4.05728 24.6381 4.05743 24.6375 4.05735 24.6378C4.01921 24.796 4.0411 24.9429 4.08933 25.045C4.13353 25.1385 4.19339 25.1884 4.26483 25.2143C5.2929 25.5831 6.3771 25.771 7.46933 25.7695H7.47296C8.56553 25.771 9.65008 25.583 10.6784 25.2139C10.7502 25.1881 10.8085 25.1388 10.8525 25.0456C10.9005 24.9439 10.9224 24.7983 10.8837 24.6403L7.47105 10.6691ZM7.47115 28.4758C7.47054 28.4758 7.46994 28.4758 7.46933 28.4758L7.47115 27.1226L7.47296 28.4758C7.47235 28.4758 7.47175 28.4758 7.47115 28.4758ZM31.8279 10.6691L28.4142 24.6378C28.4142 24.6381 28.4143 24.6374 28.4142 24.6378C28.3761 24.796 28.398 24.9429 28.4462 25.045C28.4905 25.1387 28.5505 25.1886 28.6221 25.2144C29.65 25.5832 30.7341 25.771 31.8262 25.7695H31.8299C32.9224 25.771 34.007 25.583 35.0353 25.214C35.107 25.1881 35.1653 25.1388 35.2094 25.0456C35.2573 24.9439 35.2793 24.7983 35.2406 24.6403L31.8279 10.6691ZM31.828 28.4758C31.8274 28.4758 31.8268 28.4758 31.8262 28.4758L31.828 27.1226L31.8299 28.4758C31.8293 28.4758 31.8286 28.4758 31.828 28.4758Z" fill="#FDBC42"/>
</svg>
