<svg width="33" height="39" viewBox="0 0 33 39" fill="none" xmlns="http://www.w3.org/2000/svg">
<path fill-rule="evenodd" clip-rule="evenodd" d="M5.22703 3.0291C8.14548 1.56987 12.0825 0.706299 16.3571 0.706299C20.6316 0.706299 24.5686 1.56987 27.4871 3.0291C30.3245 4.44782 32.595 6.65811 32.595 9.50184V29.7992C32.595 32.643 30.3245 34.8533 27.4871 36.272C24.5686 37.7312 20.6316 38.5948 16.3571 38.5948C12.0825 38.5948 8.14548 37.7312 5.22703 36.272C2.38959 34.8533 0.119141 32.643 0.119141 29.7992V9.50184C0.119141 6.65811 2.38959 4.44782 5.22703 3.0291ZM2.82546 14.4504V16.2676C2.82546 17.5339 3.8874 19.0448 6.43733 20.3198C8.90626 21.5542 12.4116 22.3569 16.3571 22.3569C20.3025 22.3569 23.8079 21.5542 26.2768 20.3198C28.8267 19.0448 29.8887 17.5339 29.8887 16.2676V14.4504C29.1742 15.0299 28.3573 15.5395 27.4871 15.9746C24.5686 17.4338 20.6316 18.2974 16.3571 18.2974C12.0825 18.2974 8.14548 17.4338 5.22703 15.9746C4.35679 15.5395 3.53989 15.0299 2.82546 14.4504ZM29.8887 21.2162C29.1742 21.7957 28.3573 22.3053 27.4871 22.7404C24.5686 24.1996 20.6316 25.0632 16.3571 25.0632C12.0825 25.0632 8.14548 24.1996 5.22703 22.7404C4.35679 22.3053 3.53989 21.7957 2.82546 21.2162V23.0334C2.82546 24.2997 3.8874 25.8106 6.43733 27.0856C8.90626 28.32 12.4116 29.1227 16.3571 29.1227C20.3025 29.1227 23.8079 28.32 26.2768 27.0856C28.8267 25.8106 29.8887 24.2997 29.8887 23.0334V21.2162ZM29.8887 27.982C29.1742 28.5615 28.3573 29.0711 27.4871 29.5062C24.5686 30.9654 20.6316 31.829 16.3571 31.829C12.0825 31.829 8.14548 30.9654 5.22703 29.5062C4.35679 29.0711 3.53989 28.5615 2.82546 27.982V29.7992C2.82546 31.0655 3.8874 32.5764 6.43733 33.8514C8.90626 35.0858 12.4116 35.8885 16.3571 35.8885C20.3025 35.8885 23.8079 35.0858 26.2768 33.8514C28.8267 32.5764 29.8887 31.0655 29.8887 29.7992V27.982ZM6.43733 5.4497C3.8874 6.72467 2.82546 8.23556 2.82546 9.50184C2.82546 10.7681 3.8874 12.279 6.43733 13.554C8.90626 14.7884 12.4116 15.5911 16.3571 15.5911C20.3025 15.5911 23.8079 14.7884 26.2768 13.554C28.8267 12.279 29.8887 10.7681 29.8887 9.50184C29.8887 8.23556 28.8267 6.72467 26.2768 5.4497C23.8079 4.21524 20.3025 3.41262 16.3571 3.41262C12.4116 3.41262 8.90626 4.21524 6.43733 5.4497Z" fill="#00D7F3"/>
</svg>
