<svg width="58" height="47" viewBox="0 0 58 47" fill="none" xmlns="http://www.w3.org/2000/svg">
<path d="M29.5836 21.2466C29.472 21.1544 29.3431 21.0857 29.2044 21.0446C29.0657 21.0034 28.9201 20.9906 28.7764 21.0069C28.6326 21.0232 28.4936 21.0683 28.3677 21.1395C28.2417 21.2107 28.1313 21.3066 28.0431 21.4215L17.8292 34.341L12.8378 29.9282C12.7326 29.826 12.6077 29.7463 12.4708 29.6938C12.3339 29.6414 12.188 29.6173 12.0415 29.6229C11.8951 29.6286 11.7513 29.664 11.6189 29.727C11.4865 29.7899 11.3682 29.8791 11.2712 29.9891C11.1743 30.0991 11.1006 30.2277 11.0546 30.3671C11.0087 30.5064 10.9915 30.6537 11.004 30.7999C11.0165 30.9461 11.0584 31.0883 11.1273 31.2178C11.1963 31.3474 11.2908 31.4615 11.405 31.5534L17.2694 36.7274C17.4685 36.902 17.7238 36.9988 17.9884 37H18.0859C18.2327 36.9869 18.3752 36.9442 18.5049 36.8744C18.6347 36.8045 18.749 36.709 18.8408 36.5937L29.7634 22.7741C29.8527 22.6624 29.9189 22.534 29.9583 22.3964C29.9976 22.2589 30.0093 22.1148 29.9926 21.9727C29.9759 21.8306 29.931 21.6932 29.8608 21.5685C29.7907 21.4439 29.6964 21.3345 29.5836 21.2466Z" fill="#FEDA44"/>
<path d="M50.0022 0H23.6353C21.5012 0.00660388 19.4568 0.850715 17.9501 2.34734C16.4434 3.84396 15.5973 5.87102 15.5973 7.98426V12.9395H8.03803C5.90389 12.9461 3.85951 13.7902 2.35281 15.2868C0.846099 16.7835 -1.04206e-05 18.8105 0 20.9238V34.2325C0.00317898 35.531 0.326138 36.8091 0.940852 37.956C1.55557 39.103 2.44348 40.0842 3.52767 40.8145V45.9494C3.52769 46.1341 3.57657 46.3156 3.66941 46.4758C3.76224 46.636 3.89581 46.7694 4.05685 46.8626C4.21837 46.9527 4.40065 47 4.58602 47C4.7714 47 4.95355 46.9527 5.11507 46.8626L13.4656 42.1818H34.4099C36.538 42.174 38.5766 41.3334 40.0814 39.8434C41.5861 38.3533 42.4349 36.3347 42.4429 34.2275V29.2723H44.1967L52.7639 34.0828C52.9258 34.1736 53.1089 34.2208 53.295 34.2196C53.4811 34.2184 53.6636 34.1688 53.8243 34.0759C53.985 33.9829 54.1183 33.8498 54.2108 33.6899C54.3032 33.53 54.3517 33.3489 54.3514 33.1646V27.9798C55.4693 27.2556 56.3878 26.2677 57.0247 25.1049C57.6616 23.9421 57.9967 22.6408 58 21.318V7.95931C57.9934 5.85727 57.1499 3.84259 55.6526 2.35248C54.1553 0.862378 52.125 0.0170691 50.0022 0ZM40.3415 34.2325C40.3388 35.7828 39.7157 37.2689 38.6086 38.3651C37.5016 39.4613 36.0008 40.0784 34.4352 40.081H13.2136C13.0368 40.0829 12.8634 40.1292 12.7097 40.2157L5.67956 44.128V40.2307C5.67993 40.0441 5.63024 39.8607 5.53549 39.6993C5.44074 39.538 5.30429 39.4045 5.1403 39.3125C4.2349 38.8013 3.48208 38.0622 2.95814 37.1701C2.43421 36.278 2.15783 35.2645 2.15693 34.2325V20.8788C2.15693 19.3273 2.77906 17.8392 3.88657 16.7416C4.99407 15.644 6.49633 15.0267 8.06325 15.0254H34.4352C36.0017 15.028 37.5031 15.6457 38.6104 16.743C39.7176 17.8403 40.3401 19.3277 40.3415 20.8788V34.2325ZM55.9136 21.318C55.9135 22.3713 55.6259 23.4051 55.0812 24.3099C54.5365 25.2146 53.7551 25.9568 52.8193 26.4578L52.779 26.4878C52.7465 26.5042 52.7161 26.5243 52.6883 26.5477L52.6076 26.6125L52.5421 26.6824C52.5159 26.7084 52.4924 26.7368 52.4716 26.7672L52.4162 26.8471L52.3657 26.9369C52.3657 26.9668 52.3406 26.9968 52.3305 27.0317C52.3175 27.064 52.3073 27.0974 52.3003 27.1315C52.2974 27.1631 52.2974 27.1948 52.3003 27.2263C52.2978 27.2629 52.2978 27.2996 52.3003 27.3361C52.3003 27.3361 52.3003 27.371 52.3003 27.386V31.3781L45.0634 27.3211H45.0081L44.9023 27.2712H44.8115H44.7057H44.5998H42.5034V20.8788C42.5035 18.7665 41.6581 16.7402 40.1525 15.2437C38.6469 13.7472 36.6036 12.9025 34.4703 12.8946H17.7643V7.95931C17.7657 6.40814 18.3882 4.92082 19.4955 3.82351C20.6027 2.7262 22.1042 2.10849 23.6707 2.10585H50.0375C51.6045 2.10849 53.1065 2.72604 54.2146 3.8232C55.3226 4.92037 55.9462 6.40769 55.9489 7.95931L55.9136 21.318Z" fill="#FEDA44"/>
<path d="M48.9497 8H26.0504C25.7719 8 25.5047 8.10536 25.3077 8.29289C25.1107 8.48043 25 8.73478 25 9C25 9.26522 25.1107 9.51957 25.3077 9.70711C25.5047 9.89464 25.7719 10 26.0504 10H48.9497C49.2283 10 49.4954 9.89464 49.6924 9.70711C49.8894 9.51957 50 9.26522 50 9C50 8.73478 49.8894 8.48043 49.6924 8.29289C49.4954 8.10536 49.2283 8 48.9497 8Z" fill="#FEDA44"/>
<path d="M48.9809 13H43.0191C42.7425 13.0174 42.4836 13.1304 42.2944 13.316C42.1052 13.5016 42 13.7461 42 14C42 14.2539 42.1052 14.4984 42.2944 14.684C42.4836 14.8696 42.7425 14.9826 43.0191 15H48.9809C49.2575 14.9826 49.5164 14.8696 49.7056 14.684C49.8948 14.4984 50 14.2539 50 14C50 13.7461 49.8948 13.5016 49.7056 13.316C49.5164 13.1304 49.2575 13.0174 48.9809 13Z" fill="#FEDA44"/>
<path d="M48.9791 18H45.021C44.7502 18 44.4905 18.1054 44.299 18.2929C44.1075 18.4804 44 18.7348 44 19C44 19.2652 44.1075 19.5196 44.299 19.7071C44.4905 19.8946 44.7502 20 45.021 20H48.9791C49.2499 20 49.5095 19.8946 49.701 19.7071C49.8925 19.5196 50 19.2652 50 19C50 18.7348 49.8925 18.4804 49.701 18.2929C49.5095 18.1054 49.2499 18 48.9791 18Z" fill="#FEDA44"/>
</svg>
