<svg width="25" height="25" viewBox="0 0 25 25" fill="none" xmlns="http://www.w3.org/2000/svg">
<circle cx="12.5" cy="12.5" r="12.5" fill="white"/>
<path d="M1.98047 12.4997C1.98047 17.1592 4.96827 21.1074 9.09429 22.5657V2.43359C4.96827 3.89193 1.98047 7.8401 1.98047 12.4997ZM23.3219 12.4997C23.3219 7.8401 20.3697 3.89193 16.2081 2.43359V22.5657C20.3697 21.1074 23.3219 17.1592 23.3219 12.4997Z" fill="#008753"/>
<path d="M9.09375 22.5659C10.1964 22.9571 11.4057 23.1706 12.6507 23.1706C13.8956 23.1706 15.1049 22.9571 16.2076 22.5659V2.43378C15.1049 2.04252 13.8956 1.8291 12.6507 1.8291C11.4057 1.8291 10.1964 2.04252 9.09375 2.43378V22.5659Z" fill="white"/>
</svg>
