<svg width="25" height="25" viewBox="0 0 25 25" fill="none" xmlns="http://www.w3.org/2000/svg">
<circle cx="12.5" cy="12.5" r="12.5" fill="white"/>
<g clip-path="url(#clip0_778_154091)">
<path d="M12.3466 23.1707C18.2399 23.1707 23.0174 18.3932 23.0174 12.4999C23.0174 6.60658 18.2399 1.8291 12.3466 1.8291C6.45326 1.8291 1.67578 6.60658 1.67578 12.4999C1.67578 18.3932 6.45326 23.1707 12.3466 23.1707Z" fill="#D80D29"/>
<path d="M16.1878 12.5C16.1878 12.6997 16.174 12.8924 16.1465 13.0852L22.9001 14.1247C22.9827 13.5946 23.024 13.0576 23.024 12.5069C23.024 11.9837 22.9827 11.4674 22.9138 10.9717L16.1465 11.9493C16.174 12.1283 16.1878 12.3141 16.1878 12.5Z" fill="#FEDA44"/>
<path d="M15.4451 10.2278L20.9526 6.18669C20.3261 5.33303 19.5757 4.57575 18.7289 3.94238L14.6465 9.41547C14.9494 9.64953 15.2179 9.91803 15.4451 10.2278Z" fill="#FEDA44"/>
<path d="M12.3474 16.3416C12.1477 16.3416 11.955 16.3278 11.7622 16.3003L10.7227 23.0539C11.2528 23.1365 11.7897 23.1778 12.3405 23.1778C12.8637 23.1778 13.38 23.1365 13.8826 23.0676L12.8981 16.3003C12.7191 16.3278 12.5332 16.3416 12.3474 16.3416Z" fill="#FEDA44"/>
<path d="M9.24774 14.772L3.74023 18.8131C4.36671 19.6668 5.11711 20.424 5.96389 21.0574L10.0463 15.5843C9.74341 15.3503 9.47492 15.0818 9.24774 14.772Z" fill="#FEDA44"/>
<path d="M14.6191 15.5979L18.6603 21.1054C19.5139 20.4789 20.2712 19.7285 20.9046 18.8818L15.4315 14.7993C15.1974 15.1022 14.9289 15.3707 14.6191 15.5979Z" fill="#FEDA44"/>
<path d="M12.3468 8.65841C12.5464 8.65841 12.7392 8.67218 12.932 8.69971L13.9715 1.94614C13.4414 1.87041 12.8975 1.8291 12.3468 1.8291C11.8236 1.8291 11.3072 1.87041 10.8047 1.93925L11.796 8.69971C11.975 8.67218 12.1609 8.65841 12.3468 8.65841Z" fill="#FEDA44"/>
<path d="M10.0745 9.40203L6.03337 3.89453C5.17971 4.52101 4.42243 5.27141 3.78906 6.11819L9.26215 10.2006C9.49621 9.89771 9.7647 9.62922 10.0745 9.40203Z" fill="#FEDA44"/>
<path d="M8.50509 12.4997C8.50509 12.3 8.51886 12.1073 8.54639 11.9145L1.7997 10.8818C1.71709 11.405 1.67578 11.9489 1.67578 12.4997C1.67578 13.0229 1.71709 13.5392 1.78593 14.0349L8.54639 13.0504C8.51886 12.8714 8.50509 12.6855 8.50509 12.4997Z" fill="#FEDA44"/>
<path d="M12.3464 15.3774C13.9357 15.3774 15.2241 14.089 15.2241 12.4997C15.2241 10.9104 13.9357 9.62207 12.3464 9.62207C10.7571 9.62207 9.46875 10.9104 9.46875 12.4997C9.46875 14.089 10.7571 15.3774 12.3464 15.3774Z" fill="#FEDA44"/>
</g>
<defs>
<clipPath id="clip0_778_154091">
<rect x="1.67578" y="1.8291" width="21.3416" height="21.3416" rx="10.6708" fill="white"/>
</clipPath>
</defs>
</svg>
