<svg width="38" height="33" viewBox="0 0 38 33" fill="none" xmlns="http://www.w3.org/2000/svg">
<path d="M23.6774 21.8363C24.6002 21.8363 25.4853 22.2029 26.1378 22.8555C26.7904 23.508 27.1569 24.3931 27.1569 25.3159V27.6387L27.1446 27.8057C26.6652 31.0951 23.7114 32.6755 18.755 32.6755C13.8171 32.6755 10.8154 31.1136 10.1674 27.8629L10.1458 27.6356V25.3159C10.1458 24.3931 10.5124 23.508 11.1649 22.8555C11.8175 22.2029 12.7025 21.8363 13.6253 21.8363H23.6774ZM23.6774 24.1561H13.6253C13.3177 24.1561 13.0227 24.2783 12.8052 24.4958C12.5877 24.7133 12.4655 25.0083 12.4655 25.3159V27.5119C12.8985 29.3677 14.8625 30.3558 18.755 30.3558C22.6459 30.3558 24.5233 29.38 24.8372 27.5475V25.3159C24.8372 25.0083 24.715 24.7133 24.4975 24.4958C24.28 24.2783 23.985 24.1561 23.6774 24.1561ZM25.2146 12.556L33.7294 12.5575C34.6523 12.5575 35.5373 12.9241 36.1899 13.5767C36.8424 14.2292 37.209 15.1143 37.209 16.0371V18.3599L37.1966 18.5269C36.7172 21.8162 33.7635 23.3967 28.807 23.3967L28.3199 23.3921C27.8633 22.2913 27.0308 21.3882 25.9708 20.8435C26.7672 20.9982 27.7106 21.077 28.807 21.077C32.6979 21.077 34.5754 20.1012 34.8893 18.2686V16.0371C34.8893 15.7295 34.7671 15.4345 34.5496 15.217C34.3321 14.9994 34.037 14.8772 33.7294 14.8772H25.6105C25.6105 14.0638 25.4713 13.2813 25.2146 12.556ZM3.5733 12.5575L12.0882 12.556C11.8698 13.1738 11.7401 13.8194 11.7031 14.4736L11.6923 14.8772H3.5733C3.26569 14.8772 2.97068 14.9994 2.75317 15.217C2.53565 15.4345 2.41345 15.7295 2.41345 16.0371V18.2331C2.84646 20.0888 4.81048 21.077 8.70294 21.077C9.66484 21.077 10.503 21.0167 11.2268 20.8992C10.2145 21.4492 9.42146 22.3297 8.97976 23.3936L8.70139 23.3967C3.76507 23.3967 0.763371 21.8348 0.1154 18.5841L0.09375 18.3568V16.0371C0.09375 15.1143 0.460345 14.2292 1.11289 13.5767C1.76543 12.9241 2.65047 12.5575 3.5733 12.5575ZM18.6514 9.4646C20.0869 9.4646 21.4636 10.0349 22.4787 11.0499C23.4938 12.065 24.064 13.4417 24.064 14.8772C24.064 16.3128 23.4938 17.6895 22.4787 18.7046C21.4636 19.7196 20.0869 20.2899 18.6514 20.2899C17.2159 20.2899 15.8391 19.7196 14.8241 18.7046C13.809 17.6895 13.2387 16.3128 13.2387 14.8772C13.2387 13.4417 13.809 12.065 14.8241 11.0499C15.8391 10.0349 17.2159 9.4646 18.6514 9.4646ZM18.6514 11.7843C17.8311 11.7843 17.0444 12.1102 16.4643 12.6902C15.8843 13.2702 15.5584 14.0569 15.5584 14.8772C15.5584 15.6975 15.8843 16.4842 16.4643 17.0643C17.0444 17.6443 17.8311 17.9702 18.6514 17.9702C19.4717 17.9702 20.2584 17.6443 20.8384 17.0643C21.4184 16.4842 21.7443 15.6975 21.7443 14.8772C21.7443 14.0569 21.4184 13.2702 20.8384 12.6902C20.2584 12.1102 19.4717 11.7843 18.6514 11.7843ZM28.7034 0.185791C30.1389 0.185791 31.5157 0.75605 32.5307 1.77112C33.5458 2.78618 34.1161 4.16291 34.1161 5.59843C34.1161 7.03395 33.5458 8.41068 32.5307 9.42575C31.5157 10.4408 30.1389 11.0111 28.7034 11.0111C27.2679 11.0111 25.8912 10.4408 24.8761 9.42575C23.861 8.41068 23.2908 7.03395 23.2908 5.59843C23.2908 4.16291 23.861 2.78618 24.8761 1.77112C25.8912 0.75605 27.2679 0.185791 28.7034 0.185791ZM8.59933 0.185791C10.0348 0.185791 11.4116 0.75605 12.4266 1.77112C13.4417 2.78618 14.012 4.16291 14.012 5.59843C14.012 7.03395 13.4417 8.41068 12.4266 9.42575C11.4116 10.4408 10.0348 11.0111 8.59933 11.0111C7.16381 11.0111 5.78708 10.4408 4.77201 9.42575C3.75695 8.41068 3.18669 7.03395 3.18669 5.59843C3.18669 4.16291 3.75695 2.78618 4.77201 1.77112C5.78708 0.75605 7.16381 0.185791 8.59933 0.185791ZM28.7034 2.50549C27.8831 2.50549 27.0964 2.83136 26.5164 3.41139C25.9363 3.99143 25.6105 4.77813 25.6105 5.59843C25.6105 6.41873 25.9363 7.20543 26.5164 7.78547C27.0964 8.36551 27.8831 8.69137 28.7034 8.69137C29.5237 8.69137 30.3104 8.36551 30.8905 7.78547C31.4705 7.20543 31.7964 6.41873 31.7964 5.59843C31.7964 4.77813 31.4705 3.99143 30.8905 3.41139C30.3104 2.83136 29.5237 2.50549 28.7034 2.50549ZM8.59933 2.50549C7.77903 2.50549 6.99233 2.83136 6.41229 3.41139C5.83225 3.99143 5.50639 4.77813 5.50639 5.59843C5.50639 6.41873 5.83225 7.20543 6.41229 7.78547C6.99233 8.36551 7.77903 8.69137 8.59933 8.69137C9.41962 8.69137 10.2063 8.36551 10.7864 7.78547C11.3664 7.20543 11.6923 6.41873 11.6923 5.59843C11.6923 4.77813 11.3664 3.99143 10.7864 3.41139C10.2063 2.83136 9.41962 2.50549 8.59933 2.50549Z" fill="#FF2222"/>
</svg>
