<svg width="39" height="45" viewBox="0 0 39 45" fill="none" xmlns="http://www.w3.org/2000/svg">
<path d="M27.3434 8.51295C26.465 8.51295 25.6225 8.86191 25.0014 9.48305C24.3802 10.1042 24.0312 10.9467 24.0312 11.8251C24.0312 12.7035 24.3802 13.546 25.0014 14.1671C25.6225 14.7882 26.465 15.1372 27.3434 15.1372C27.7823 15.1447 28.2183 15.0645 28.6258 14.9012C29.0333 14.738 29.4041 14.4949 29.7164 14.1864C30.0287 13.8779 30.2762 13.5101 30.4444 13.1046C30.6126 12.6991 30.6981 12.2641 30.6959 11.8251C30.6874 10.9423 30.3302 10.0987 29.7021 9.47821C29.0741 8.85775 28.2262 8.51078 27.3434 8.51295ZM27.3434 14.087C26.8971 14.0822 26.4622 13.9455 26.0934 13.6941C25.7246 13.4427 25.4385 13.0877 25.271 12.674C25.1035 12.2603 25.0621 11.8063 25.1521 11.3691C25.2421 10.932 25.4594 10.5312 25.7767 10.2173C26.094 9.90336 26.4971 9.69032 26.9352 9.60499C27.3733 9.51966 27.8268 9.56584 28.2387 9.73773C28.6506 9.90962 29.0025 10.1995 29.25 10.571C29.4975 10.9424 29.6295 11.3787 29.6296 11.8251C29.6285 12.1239 29.5685 12.4195 29.4529 12.695C29.3373 12.9706 29.1685 13.2206 28.9561 13.4307C28.7437 13.6409 28.4919 13.807 28.2152 13.9196C27.9384 14.0323 27.6422 14.0891 27.3434 14.087Z" fill="#FEDA44" stroke="#FEDA44" stroke-width="0.7"/>
<path d="M35.8422 18.1261L34.372 15.7834C34.7124 15.1691 34.9833 14.5188 35.1798 13.8446L37.878 13.2791C37.9915 13.2571 38.0941 13.1972 38.169 13.1091C38.2439 13.021 38.2866 12.91 38.29 12.7944V10.8556C38.2866 10.74 38.2439 10.629 38.169 10.5409C38.0941 10.4528 37.9915 10.3929 37.878 10.3709L35.1798 9.80542C34.9981 9.12604 34.7264 8.474 34.372 7.8666L35.8422 5.60466C36.0119 5.44309 35.923 5.11997 35.7615 4.9584L34.372 3.58507C34.2814 3.51164 34.1721 3.46514 34.0564 3.45086C33.9407 3.43658 33.8233 3.45509 33.7176 3.5043L31.4314 4.87761C30.8074 4.53995 30.1494 4.26917 29.4684 4.06978L28.8948 1.40392C28.8713 1.29189 28.8106 1.19109 28.7226 1.11779C28.6347 1.0445 28.5246 1.003 28.4101 1H26.4471C26.3317 1.00262 26.2204 1.04382 26.1311 1.11703C26.0418 1.19023 25.9795 1.29123 25.9543 1.40392L25.3888 4.06978C24.6975 4.23847 24.0356 4.51083 23.4258 4.87761L21.1315 3.42351C21.0319 3.35771 20.912 3.32971 20.7935 3.34452C20.675 3.35933 20.5657 3.41599 20.4853 3.5043L19.9117 4.06978C19.2884 3.97589 18.6597 3.92193 18.0294 3.90821C16.0564 3.79281 14.0808 4.0847 12.2254 4.76569C10.3701 5.44668 8.6747 6.50221 7.24483 7.8666C5.96118 9.11612 4.94206 10.6111 4.24814 12.2627C3.55422 13.9142 3.19969 15.6885 3.20566 17.4799L1.01643 25.4774C0.996856 25.5532 0.994745 25.6324 1.01024 25.7091C1.02573 25.7858 1.05842 25.858 1.10587 25.9202C1.15332 25.9824 1.21427 26.0331 1.28414 26.0683C1.354 26.1036 1.43095 26.1225 1.5092 26.1237H6.67128V33.7173C6.68084 33.8441 6.73605 33.9631 6.82667 34.0522C6.91729 34.1413 7.03715 34.1946 7.16405 34.2021H12.3261V43.8153C12.3357 43.942 12.3909 44.061 12.4815 44.1502C12.5721 44.2393 12.692 44.2925 12.8189 44.3H31.2052C31.3307 44.2907 31.4486 44.2366 31.5376 44.1476C31.6266 44.0587 31.6806 43.9408 31.69 43.8153V18.8532L33.8146 20.1457C33.9155 20.2121 34.0367 20.2404 34.1566 20.2256C34.2765 20.2108 34.3872 20.1539 34.4689 20.0649L35.8584 18.6916C35.9177 18.6085 35.9482 18.5082 35.9453 18.4062C35.9424 18.3041 35.9062 18.2057 35.8422 18.1261ZM13.2875 43.3306V34.2021H20.97C21.0985 34.2021 21.2218 34.151 21.3127 34.0601C21.4036 33.9692 21.4547 33.8459 21.4547 33.7173C21.4547 33.5888 21.4036 33.4655 21.3127 33.3746C21.2218 33.2837 21.0985 33.2327 20.97 33.2327H7.64875V25.639C7.63942 25.5135 7.58538 25.3956 7.49642 25.3066C7.40746 25.2177 7.2895 25.1636 7.16405 25.1543H2.17971L4.0539 17.7222V17.5606C4.07739 14.2003 5.43261 10.9866 7.82234 8.62408C10.2121 6.26162 13.4412 4.94335 16.8015 4.9584H18.8454C18.8058 5.03304 18.785 5.11624 18.785 5.20074C18.785 5.28524 18.8058 5.36846 18.8454 5.4431L20.3156 7.70504C19.9786 8.32093 19.7078 8.97083 19.5078 9.64384L16.8096 10.2093C16.6976 10.2329 16.5968 10.2936 16.5235 10.3815C16.4502 10.4695 16.4087 10.5796 16.4057 10.694V12.6328C16.4087 12.7473 16.4502 12.8574 16.5235 12.9453C16.5968 13.0333 16.6976 13.094 16.8096 13.1175L19.5078 13.683C19.693 14.3612 19.9645 15.0128 20.3156 15.6218L18.8454 17.8838C18.7796 17.9834 18.7515 18.1033 18.7664 18.2218C18.7812 18.3403 18.8379 18.4496 18.9262 18.53L20.3156 19.9034C20.4066 19.9759 20.5159 20.0219 20.6314 20.0362C20.7469 20.0504 20.8641 20.0324 20.97 19.9841L23.2561 18.53C23.8802 18.8677 24.5382 19.1385 25.2192 19.3379L25.7928 22.0037C25.818 22.1164 25.8802 22.2174 25.9695 22.2906C26.0588 22.3638 26.1701 22.405 26.2855 22.4076H28.2486C28.363 22.4046 28.4731 22.3632 28.5611 22.2899C28.649 22.2166 28.7097 22.1158 28.7333 22.0037L29.3068 19.3379C29.7048 19.2524 30.0903 19.1167 30.454 18.934V43.0882L13.2875 43.3306ZM33.9681 19.0955L31.7627 17.7222C31.6723 17.6824 31.5746 17.6618 31.4759 17.6618C31.3771 17.6618 31.2795 17.6824 31.1891 17.7222C30.4757 18.1369 29.7015 18.4368 28.8948 18.6108C28.8017 18.6437 28.717 18.6971 28.6471 18.767C28.5772 18.8369 28.5239 18.9215 28.4909 19.0147L27.9173 21.5998H26.7702L26.2047 19.0147C26.17 18.9213 26.115 18.8366 26.0438 18.7668C25.9726 18.697 25.8869 18.6437 25.7928 18.6108C24.9891 18.4353 24.2178 18.1355 23.5066 17.7222C23.4162 17.6824 23.3185 17.6618 23.2198 17.6618C23.121 17.6618 23.0234 17.6824 22.933 17.7222L20.7276 19.0955L19.9198 18.2877L21.3093 16.1065C21.3494 16.0177 21.3702 15.9213 21.3702 15.8238C21.3702 15.7263 21.3494 15.6299 21.3093 15.541C20.8911 14.8391 20.5858 14.0758 20.4045 13.2791C20.3716 13.1859 20.3182 13.1013 20.2483 13.0314C20.1784 12.9615 20.0938 12.9081 20.0006 12.8752L17.3832 12.3097V11.1787L20.0006 10.6133C20.0938 10.5803 20.1784 10.527 20.2483 10.4571C20.3182 10.3872 20.3716 10.3025 20.4045 10.2093C20.5858 9.41264 20.8911 8.64936 21.3093 7.94739C21.3494 7.85854 21.3702 7.76215 21.3702 7.66464C21.3702 7.56714 21.3494 7.47076 21.3093 7.38191L19.9198 5.28153L20.7276 4.4737L22.933 5.84701C23.0234 5.88685 23.121 5.90743 23.2198 5.90743C23.3185 5.90743 23.4162 5.88685 23.5066 5.84701C24.2113 5.42044 24.9849 5.11975 25.7928 4.9584C25.8869 4.92549 25.9726 4.87222 26.0438 4.80241C26.115 4.7326 26.17 4.64795 26.2047 4.55448L26.7702 1.9694H27.9173L28.4909 4.55448C28.5239 4.64768 28.5772 4.73232 28.6471 4.80221C28.717 4.8721 28.8017 4.92548 28.8948 4.9584C29.7015 5.13247 30.4757 5.43234 31.1891 5.84701C31.2795 5.88685 31.3771 5.90743 31.4759 5.90743C31.5746 5.90743 31.6723 5.88685 31.7627 5.84701L33.9681 4.4737L34.7759 5.28153L33.3864 7.46269C33.3463 7.55154 33.3255 7.64793 33.3255 7.74543C33.3255 7.84294 33.3463 7.93931 33.3864 8.02817C33.802 8.73051 34.1046 9.4938 34.2831 10.2901C34.3163 10.3844 34.3708 10.4699 34.4422 10.5399C34.5136 10.61 34.6001 10.6627 34.6951 10.694L37.3044 11.2595V12.3905L34.6951 12.956C34.601 12.9889 34.5152 13.0422 34.444 13.112C34.3728 13.1818 34.3179 13.2664 34.2831 13.3599C34.1046 14.1562 33.802 14.9195 33.3864 15.6218C33.3463 15.7107 33.3255 15.8071 33.3255 15.9046C33.3255 16.0021 33.3463 16.0985 33.3864 16.1873L34.7759 18.3685L33.9681 19.0955Z" fill="#FEDA44" stroke="#FEDA44" stroke-width="0.7"/>
<path d="M20.9333 21.5691H18.4048C18.2793 21.5785 18.1614 21.6325 18.0725 21.7215C17.9835 21.8104 17.9294 21.9284 17.9201 22.0538V23.104H15.8763C15.7494 23.1115 15.6295 23.1647 15.5389 23.2539C15.4483 23.343 15.3931 23.462 15.3835 23.5887V24.6389H13.3397C13.2142 24.6482 13.0963 24.7023 13.0073 24.7913C12.9184 24.8802 12.8643 24.9982 12.855 25.1236V26.1738H10.8112C10.6843 26.1813 10.5644 26.2345 10.4737 26.3236C10.3831 26.4128 10.3279 26.5317 10.3184 26.6585V30.213C10.3279 30.3397 10.3831 30.4587 10.4737 30.5478C10.5644 30.637 10.6843 30.6902 10.8112 30.6977H21.0222C21.1491 30.6902 21.269 30.637 21.3596 30.5478C21.4502 30.4587 21.5054 30.3397 21.515 30.213V22.1346C21.5161 22.0587 21.5018 21.9833 21.4727 21.9131C21.4437 21.8429 21.4006 21.7793 21.3462 21.7264C21.2917 21.6734 21.227 21.6321 21.156 21.6051C21.085 21.5781 21.0092 21.5658 20.9333 21.5691ZM11.2878 27.1432H12.8469V29.6475H11.2878V27.1432ZM13.8244 25.6083H15.3754V29.6475H13.8244V25.6083ZM16.361 24.1542H17.912V29.7283H16.361V24.1542ZM20.4002 29.6475H18.8895V22.5385H20.4405L20.4002 29.6475Z" fill="#FEDA44"/>
</svg>
