<svg xmlns="http://www.w3.org/2000/svg" xmlns:xlink="http://www.w3.org/1999/xlink" width="697" zoomAndPan="magnify" viewBox="0 0 522.75 621.749982" height="829" preserveAspectRatio="xMidYMid meet" version="1.0"><defs><filter x="0%" y="0%" width="100%" height="100%" id="08ea9d1960"><feColorMatrix values="0 0 0 0 1 0 0 0 0 1 0 0 0 0 1 0 0 0 1 0" color-interpolation-filters="sRGB"/></filter><g/><mask id="67ed73d8b5"><g filter="url(#08ea9d1960)"><rect x="-52.275" width="627.3" fill="#000000" y="-62.174998" height="746.099978" fill-opacity="0.75"/></g></mask><clipPath id="5412ca74a3"><rect x="0" width="87" y="0" height="25"/></clipPath><mask id="68400304d1"><g filter="url(#08ea9d1960)"><rect x="-52.275" width="627.3" fill="#000000" y="-62.174998" height="746.099978" fill-opacity="0.74"/></g></mask><clipPath id="d0367d4c1d"><rect x="0" width="70" y="0" height="97"/></clipPath><clipPath id="2d0c843527"><path d="M 8.8125 6 L 514 6 L 514 478 L 8.8125 478 Z M 8.8125 6 " clip-rule="nonzero"/></clipPath></defs><path fill="#40b2ff" d="M 215.828125 522.820312 L 299.359375 524.46875 L 298.554688 565.398438 L 215.019531 563.75 Z M 215.828125 522.820312 " fill-opacity="1" fill-rule="nonzero"/><path fill="#edbe21" d="M 298.160156 581.9375 L 214.628906 580.289062 L 214.953125 563.761719 L 298.484375 565.410156 Z M 298.160156 581.9375 " fill-opacity="1" fill-rule="nonzero"/><path fill="#edbe21" d="M 214.984375 563.765625 L 214.414062 592.902344 C 214.273438 599.625 219.214844 597.898438 226.339844 605.300781 C 233.519531 598.402344 238.613281 600.097656 238.738281 593.378906 L 239.308594 564.238281 L 214.984375 563.75 Z M 214.984375 563.765625 " fill-opacity="1" fill-rule="nonzero"/><path fill="#edbe21" d="M 274.179688 565.617188 L 273.609375 594.753906 C 273.46875 601.476562 278.410156 599.75 285.535156 607.152344 C 292.714844 600.25 297.808594 601.949219 297.933594 595.226562 L 298.503906 566.089844 L 274.179688 565.601562 Z M 274.179688 565.617188 " fill-opacity="1" fill-rule="nonzero"/><path fill="#ab0202" d="M 244.59375 564.351562 L 243.816406 604.007812 C 243.636719 613.152344 248.589844 610.769531 255.644531 620.804688 C 262.867188 611.371094 267.957031 613.636719 268.140625 604.496094 L 268.917969 564.835938 Z M 244.59375 564.351562 " fill-opacity="1" fill-rule="nonzero"/><g mask="url(#67ed73d8b5)"><g transform="matrix(1, 0, 0, 1, 214, 542)"><g clip-path="url(#5412ca74a3)"><path fill="#faf1d5" d="M 1.425781 1.28125 L 84.957031 2.929688 L 84.554688 23.394531 L 1.019531 21.746094 Z M 1.425781 1.28125 " fill-opacity="1" fill-rule="nonzero"/></g></g></g><path fill="#ab0202" d="M 211.460938 222.9375 C 244.398438 214.699219 279.46875 215.117188 312.210938 224.117188 C 313.40625 180.589844 295.707031 136.882812 264.6875 106.351562 C 260.722656 102.441406 258.34375 103.933594 255.394531 108.648438 L 241.171875 123.957031 C 223.304688 152.539062 212.867188 185.710938 211.460938 222.9375 Z M 211.460938 222.9375 " fill-opacity="1" fill-rule="nonzero"/><path fill="#ab0202" d="M 308.398438 491.949219 C 330.632812 517.898438 355.097656 541.960938 381.4375 563.738281 C 380.296875 535.460938 379.15625 507.183594 378.015625 478.910156 C 362.417969 454.25 346.816406 429.605469 331.21875 404.949219 C 333.554688 372.5 333.613281 339.878906 331.355469 307.429688 C 325.066406 297.660156 318.792969 287.894531 312.503906 278.125 C 310.261719 349.523438 308.019531 420.9375 308.398438 491.933594 Z M 308.398438 491.949219 " fill-opacity="1" fill-rule="nonzero"/><path fill="#ab0202" d="M 129.125 562.414062 C 156.984375 537.925781 184.84375 513.433594 212.699219 488.941406 C 212.632812 492.476562 212.546875 496.011719 212.476562 499.558594 C 215.929688 424.359375 215.179688 348.96875 210.210938 273.839844 C 203.601562 284.441406 196.992188 295.03125 190.394531 305.636719 C 191.339844 304.3125 192.289062 302.992188 193.246094 301.667969 C 192.441406 304.882812 191.648438 308.097656 190.839844 311.3125 C 188.140625 345.308594 185.441406 379.304688 182.753906 413.296875 C 183.160156 411.226562 183.5625 409.152344 183.964844 407.078125 C 167.210938 431.847656 150.445312 456.617188 133.691406 481.398438 C 134.691406 480.175781 135.707031 478.964844 136.710938 477.742188 C 134.316406 505.097656 131.921875 532.457031 129.140625 562.414062 Z M 129.125 562.414062 " fill-opacity="1" fill-rule="nonzero"/><g mask="url(#68400304d1)"><g transform="matrix(1, 0, 0, 1, 225, 124)"><g clip-path="url(#d0367d4c1d)"><path fill="#edbe21" d="M 1.65625 95.984375 C 8.101562 62.617188 20.234375 30.347656 37.378906 1 C 52.796875 29.972656 63.484375 61.449219 68.882812 93.828125 C 46.019531 89.683594 22.292969 90.433594 1.65625 95.984375 Z M 1.65625 95.984375 " fill-opacity="1" fill-rule="nonzero"/></g></g></g><path fill="#faf1d5" d="M 216.609375 519.738281 C 245.125 525.304688 274.554688 526.097656 303.332031 522.074219 C 307.980469 420.964844 312.292969 321.484375 316.941406 220.375 C 281.414062 214.824219 245.152344 214.601562 210.15625 222.867188 C 210.195312 311.9375 210.25 400.996094 210.292969 490.070312 C 210.292969 500.449219 210.335938 511.011719 216.609375 519.738281 Z M 216.609375 519.738281 " fill-opacity="1" fill-rule="nonzero"/><path fill="#ab0202" d="M 212.699219 469.347656 C 212.699219 479.730469 210.835938 489.957031 217.113281 498.667969 C 245.625 504.234375 276.976562 505.363281 305.738281 501.355469 L 305.320312 522.128906 C 276.558594 526.136719 247.128906 525.34375 218.601562 519.792969 C 212.324219 511.082031 212.285156 500.507812 212.285156 490.140625 L 212.699219 469.363281 Z M 212.699219 469.347656 " fill-opacity="1" fill-rule="nonzero"/><path fill="#edbe21" d="M 262.585938 257.808594 C 248.4375 257.933594 234.703125 266.769531 228.730469 279.597656 C 225.03125 287.574219 224.238281 296.882812 226.589844 305.355469 C 228.941406 313.832031 234.421875 321.414062 241.757812 326.257812 C 254.542969 334.703125 272.746094 333.910156 284.726562 324.351562 C 296.722656 314.804688 301.578125 297.242188 296.191406 282.882812 C 290.820312 268.523438 275.613281 258.488281 262.574219 257.792969 Z M 262.585938 257.808594 " fill-opacity="1" fill-rule="nonzero"/><path fill="#40b2ff" d="M 254.558594 266.910156 C 244.273438 271.515625 234.605469 279.515625 231.988281 290.480469 C 230.136719 298.230469 232.183594 306.761719 237.109375 313.039062 C 242.046875 319.300781 249.714844 323.265625 257.660156 323.976562 C 265.605469 324.683594 273.734375 322.222656 280.148438 317.464844 C 284.964844 313.886719 288.886719 308.960938 290.683594 303.226562 C 292.6875 296.785156 291.867188 289.605469 288.875 283.550781 C 285.882812 277.5 280.84375 272.570312 274.972656 269.261719 C 268.753906 265.753906 260.863281 264.097656 254.574219 266.910156 Z M 254.558594 266.910156 " fill-opacity="1" fill-rule="nonzero"/><path fill="#edbe21" d="M 255.210938 580.894531 C 243.605469 533.792969 245.554688 483.417969 260.75 437.359375 C 270.671875 484.824219 268.78125 534.722656 255.210938 580.894531 Z M 255.210938 580.894531 " fill-opacity="1" fill-rule="nonzero"/><path fill="#1b3160" d="M 317.914062 222.867188 C 317.75 221.558594 316.816406 220.488281 315.535156 220.152344 C 278.671875 210.550781 244.566406 210.996094 208.207031 221.570312 C 206.816406 221.976562 205.867188 223.257812 205.894531 224.703125 C 206.398438 261.203125 207.050781 297.5625 207.691406 332.742188 C 208.804688 393.648438 209.945312 456.644531 210.195312 519.820312 C 210.195312 521.421875 211.394531 522.785156 212.980469 522.992188 C 215.691406 523.355469 218.421875 523.746094 221.148438 524.132812 C 229.34375 525.289062 237.625 526.457031 246.363281 527.210938 C 247.726562 527.335938 249.105469 527.433594 250.496094 527.542969 C 250.453125 525.402344 250.441406 523.242188 250.453125 521.085938 C 249.0625 520.988281 247.683594 520.878906 246.320312 520.753906 C 237.929688 520 229.941406 518.886719 222.039062 517.773438 C 220.230469 517.523438 218.40625 517.261719 216.609375 517.007812 C 216.582031 512.292969 216.570312 507.574219 216.542969 502.84375 C 216.527344 500.671875 216.515625 498.503906 216.5 496.34375 C 216.097656 441.019531 215.09375 386.023438 214.121094 332.628906 C 213.496094 298.261719 212.839844 262.746094 212.351562 227.082031 C 245.902344 217.71875 277.546875 217.300781 311.542969 225.773438 C 311.390625 237.6875 309.425781 294.28125 306.449219 372.441406 C 304.457031 424.863281 302.582031 471.867188 301.453125 498.25 C 301.355469 500.574219 301.257812 502.746094 301.175781 504.734375 C 300.898438 511.054688 300.6875 515.671875 300.535156 518.234375 C 288.609375 520.503906 277.839844 521.460938 267.832031 521.601562 C 266.441406 521.628906 265.066406 521.628906 263.6875 521.617188 C 263.5625 523.757812 263.410156 525.902344 263.226562 528.058594 C 264.589844 528.058594 265.96875 528.058594 267.375 528.058594 C 278.519531 527.933594 290.597656 526.820312 304.167969 524.078125 C 304.390625 524.023438 304.613281 523.953125 304.835938 523.855469 C 304.835938 523.855469 305.042969 523.757812 305.042969 523.757812 C 305.988281 523.242188 306.601562 522.324219 306.726562 521.308594 L 306.769531 521.308594 C 307.1875 518.09375 310.246094 441.976562 312.90625 371.996094 C 314.5625 328.359375 318.375 226.46875 317.929688 222.867188 Z M 317.914062 222.867188 " fill-opacity="1" fill-rule="nonzero"/><path fill="#1b3160" d="M 129.542969 566.535156 C 129.054688 566.535156 128.570312 566.410156 128.109375 566.160156 C 126.953125 565.546875 126.273438 564.292969 126.410156 563 C 128.445312 542.710938 130.558594 522.449219 132.605469 502.871094 C 133.507812 494.203125 134.398438 485.628906 135.277344 477.226562 C 135.316406 476.765625 135.46875 476.335938 135.691406 475.929688 C 151.082031 449.546875 166.65625 425.820312 183.296875 403.433594 C 184.464844 364.566406 185.96875 334.648438 188.167969 306.527344 C 188.210938 305.957031 188.40625 305.414062 188.726562 304.953125 L 207.328125 277.972656 C 208.332031 276.511719 210.335938 276.148438 211.796875 277.148438 C 213.257812 278.152344 213.621094 280.15625 212.617188 281.617188 L 194.5 307.890625 C 192.316406 335.886719 190.824219 365.777344 189.683594 404.628906 C 189.671875 405.28125 189.449219 405.921875 189.042969 406.453125 C 172.445312 428.714844 156.914062 452.316406 141.578125 478.574219 C 140.730469 486.757812 139.867188 495.09375 138.976562 503.539062 C 137.195312 520.570312 135.375 538.105469 133.59375 555.722656 C 159.476562 533.722656 185.289062 511.039062 210.390625 488.234375 C 211.699219 487.035156 213.730469 487.132812 214.925781 488.457031 C 216.125 489.761719 216.027344 491.796875 214.703125 492.992188 C 187.582031 517.636719 159.640625 542.125 131.65625 565.769531 C 131.046875 566.285156 130.28125 566.546875 129.515625 566.535156 Z M 129.542969 566.535156 " fill-opacity="1" fill-rule="nonzero"/><path fill="#1b3160" d="M 382.148438 567.898438 C 381.382812 567.882812 380.632812 567.59375 380.046875 567.050781 C 355.695312 544.757812 332.582031 522.730469 302.734375 493.367188 C 301.46875 492.128906 301.453125 490.082031 302.691406 488.816406 C 303.929688 487.550781 305.976562 487.535156 307.242188 488.773438 C 334.628906 515.703125 356.335938 536.464844 378.53125 556.90625 C 377.445312 539.21875 376.304688 521.601562 375.203125 504.5 C 374.660156 496.054688 374.121094 487.703125 373.605469 479.507812 C 359.3125 452.664062 344.730469 428.480469 329.035156 405.5625 C 328.65625 405.019531 328.464844 404.378906 328.476562 403.710938 C 328.867188 364.84375 328.558594 334.925781 327.488281 306.859375 L 310.429688 279.890625 C 309.484375 278.390625 309.925781 276.414062 311.429688 275.453125 C 312.933594 274.507812 314.910156 274.953125 315.871094 276.453125 L 333.402344 304.160156 C 333.710938 304.632812 333.875 305.191406 333.902344 305.761719 C 334.988281 333.9375 335.324219 363.898438 334.949219 402.777344 C 350.6875 425.808594 365.324219 450.132812 379.65625 477.113281 C 379.867188 477.519531 379.992188 477.964844 380.035156 478.421875 C 380.5625 486.839844 381.117188 495.414062 381.675781 504.109375 C 382.941406 523.785156 384.25 544.117188 385.488281 564.488281 C 385.570312 565.796875 384.847656 567.019531 383.664062 567.578125 C 383.207031 567.800781 382.703125 567.898438 382.21875 567.882812 Z M 382.148438 567.898438 " fill-opacity="1" fill-rule="nonzero"/><path fill="#1b3160" d="M 261.097656 325.410156 C 244.011719 325.074219 230.386719 311.105469 230.722656 294.28125 C 231.054688 277.457031 245.222656 264.042969 262.308594 264.375 C 279.398438 264.710938 293.019531 278.679688 292.6875 295.503906 C 292.351562 312.328125 278.1875 325.742188 261.097656 325.410156 Z M 262.238281 267.578125 C 246.933594 267.269531 234.226562 279.277344 233.9375 294.335938 C 233.644531 309.390625 245.847656 321.886719 261.167969 322.195312 C 276.476562 322.5 289.179688 310.492188 289.472656 295.433594 C 289.765625 280.378906 277.558594 267.882812 262.238281 267.578125 Z M 262.238281 267.578125 " fill-opacity="1" fill-rule="nonzero"/><path fill="#1b3160" d="M 260.933594 333.675781 C 239.792969 333.257812 222.957031 315.722656 223.375 294.601562 C 223.792969 273.476562 241.324219 256.625 262.449219 257.042969 C 283.585938 257.460938 300.421875 274.992188 300.007812 296.117188 C 299.589844 317.253906 282.054688 334.09375 260.933594 333.675781 Z M 262.378906 260.242188 C 243.023438 259.851562 226.964844 275.300781 226.574219 294.65625 C 226.183594 314.011719 241.632812 330.070312 260.988281 330.460938 C 280.34375 330.851562 296.402344 315.402344 296.792969 296.046875 C 297.179688 276.691406 281.734375 260.632812 262.378906 260.242188 Z M 262.378906 260.242188 " fill-opacity="1" fill-rule="nonzero"/><path fill="#1b3160" d="M 251.273438 499.585938 C 251.121094 501.730469 250.980469 503.875 250.871094 506.003906 C 249.492188 505.945312 248.128906 505.878906 246.75 505.808594 C 236.648438 505.25 226.5625 504.261719 216.542969 502.859375 C 215.832031 502.761719 215.121094 502.664062 214.398438 502.550781 C 212.644531 502.300781 211.421875 500.660156 211.683594 498.90625 C 211.9375 497.152344 213.578125 495.941406 215.332031 496.191406 C 215.71875 496.246094 216.109375 496.304688 216.5 496.359375 C 226.671875 497.820312 236.898438 498.820312 247.15625 499.394531 C 248.53125 499.476562 249.910156 499.53125 251.289062 499.601562 Z M 251.273438 499.585938 " fill-opacity="1" fill-rule="nonzero"/><path fill="#1b3160" d="M 302.261719 504.625 C 301.898438 504.652344 301.535156 504.695312 301.175781 504.722656 C 290.292969 505.765625 279.355469 506.292969 268.417969 506.335938 C 267.039062 506.335938 265.664062 506.335938 264.285156 506.335938 C 264.3125 504.195312 264.328125 502.050781 264.328125 499.90625 C 265.703125 499.90625 267.082031 499.90625 268.460938 499.90625 C 279.480469 499.867188 290.5 499.296875 301.46875 498.222656 C 301.523438 498.222656 301.578125 498.222656 301.632812 498.210938 C 303.402344 498.042969 304.972656 499.324219 305.15625 501.089844 C 305.320312 502.859375 304.042969 504.429688 302.273438 504.609375 Z M 302.261719 504.625 " fill-opacity="1" fill-rule="nonzero"/><path fill="#1b3160" d="M 209.527344 255.039062 C 208.34375 255.011719 207.230469 254.34375 206.691406 253.203125 C 205.925781 251.601562 206.605469 249.679688 208.207031 248.914062 C 223.136719 241.820312 240.921875 238.785156 261.085938 239.886719 C 278.910156 240.859375 296.011719 244.796875 313.40625 249.070312 C 315.132812 249.488281 316.175781 251.238281 315.757812 252.953125 C 315.339844 254.675781 313.585938 255.71875 311.875 255.304688 C 294.789062 251.101562 278.019531 247.230469 260.738281 246.285156 C 241.671875 245.242188 224.917969 248.066406 210.976562 254.703125 C 210.515625 254.925781 210.015625 255.023438 209.527344 255.011719 Z M 209.527344 255.039062 " fill-opacity="1" fill-rule="nonzero"/><path fill="#1b3160" d="M 209.109375 232.078125 C 209.109375 232.078125 209.082031 232.078125 209.054688 232.078125 C 207.289062 232.023438 205.894531 230.535156 205.953125 228.753906 C 206.785156 205.164062 212.03125 181.886719 221.566406 159.539062 C 230.957031 137.523438 244.039062 117.511719 260.429688 100.078125 C 261.015625 99.449219 261.835938 99.089844 262.683594 99.0625 C 263.546875 99.035156 264.367188 99.351562 264.996094 99.953125 C 281.429688 115.691406 294.941406 135.367188 304.097656 156.867188 C 313.28125 178.421875 318.054688 201.8125 317.914062 224.496094 C 317.914062 225.800781 317.109375 226.972656 315.898438 227.457031 C 315.144531 227.765625 314.339844 227.765625 313.617188 227.5 C 313.226562 227.402344 312.53125 227.207031 311.917969 226.554688 C 310.875 225.46875 310.734375 223.839844 311.5 222.617188 C 311.25 180.0625 293.214844 137.160156 262.90625 106.882812 C 248.074219 123.191406 236.164062 141.738281 227.492188 162.054688 C 218.265625 183.667969 213.1875 206.183594 212.382812 228.960938 C 212.324219 230.714844 210.863281 232.09375 209.109375 232.066406 Z M 312.417969 226.734375 Z M 312.417969 226.734375 Z M 312.417969 226.734375 Z M 312.417969 226.734375 Z M 312.417969 226.734375 " fill-opacity="1" fill-rule="nonzero"/><path fill="#1b3160" d="M 268.445312 499.921875 C 268.347656 477.878906 266.039062 456.101562 261.503906 434.726562 C 261.308594 433.78125 260.488281 433.113281 259.527344 433.085938 C 258.566406 433.070312 257.71875 433.726562 257.496094 434.671875 C 252.082031 457.007812 248.628906 478.601562 247.15625 499.394531 C 247.003906 501.535156 246.863281 503.679688 246.765625 505.808594 C 246.5 510.84375 246.363281 515.828125 246.335938 520.753906 C 246.335938 522.910156 246.335938 525.066406 246.375 527.210938 C 246.710938 547.886719 249.171875 567.632812 253.738281 586.351562 C 253.960938 587.253906 254.765625 587.910156 255.699219 587.921875 L 255.726562 587.921875 C 256.671875 587.921875 257.507812 587.28125 257.730469 586.363281 C 262.617188 566.8125 265.828125 547.34375 267.375 528.058594 C 267.554688 525.914062 267.707031 523.757812 267.832031 521.617188 C 268.140625 516.523438 268.335938 511.429688 268.417969 506.363281 C 268.445312 504.222656 268.460938 502.078125 268.460938 499.933594 Z M 263.226562 528.058594 C 261.917969 544.160156 259.441406 560.382812 255.78125 576.679688 C 252.570312 560.980469 250.800781 544.589844 250.496094 527.542969 C 250.453125 525.402344 250.441406 523.242188 250.453125 521.085938 C 250.46875 516.117188 250.605469 511.082031 250.871094 506.003906 C 250.980469 503.875 251.105469 501.730469 251.273438 499.585938 C 252.511719 482 255.199219 463.796875 259.316406 445.039062 C 262.574219 463.085938 264.230469 481.398438 264.3125 499.921875 C 264.3125 502.0625 264.3125 504.207031 264.269531 506.351562 C 264.1875 511.429688 263.992188 516.523438 263.671875 521.628906 C 263.546875 523.773438 263.394531 525.914062 263.214844 528.074219 Z M 263.226562 528.058594 " fill-opacity="1" fill-rule="nonzero"/><path fill="#1b3160" d="M 264.714844 86.132812 C 169.578125 84.253906 90.636719 160.136719 88.757812 255.261719 C 87.492188 319.117188 121.261719 375.683594 172.386719 406.535156 C 173.179688 405.449219 173.960938 404.363281 174.753906 403.277344 C 124.660156 373.167969 91.539062 317.839844 92.777344 255.332031 C 94.613281 162.402344 171.71875 88.304688 264.632812 90.140625 C 357.558594 91.976562 431.660156 169.082031 429.824219 261.996094 C 428.613281 323.378906 394.5625 376.535156 344.800781 405.03125 C 345.539062 406.144531 346.289062 407.257812 347.027344 408.386719 C 397.832031 379.179688 432.589844 324.808594 433.832031 262.066406 C 435.707031 166.925781 359.828125 87.984375 264.703125 86.105469 Z M 264.714844 86.132812 " fill-opacity="1" fill-rule="nonzero"/><g clip-path="url(#2d0c843527)"><path fill="#1b3160" d="M 266.304688 6.246094 C 126.886719 3.476562 11.625 114.285156 8.867188 253.6875 C 7.03125 346.40625 55.402344 428.4375 129.027344 473.789062 C 129.222656 473.316406 129.429688 472.871094 129.695312 472.425781 C 132.644531 467.375 135.597656 462.40625 138.558594 457.535156 C 140.453125 454.417969 142.371094 451.328125 144.277344 448.28125 C 147.257812 443.523438 150.25 438.859375 153.269531 434.28125 C 157.75 427.449219 162.300781 420.769531 166.90625 414.230469 C 113.34375 381.65625 78.082031 322.25 79.40625 255.066406 C 81.394531 154.597656 164.457031 74.765625 264.910156 76.753906 C 365.378906 78.746094 445.214844 161.804688 443.222656 262.261719 C 441.914062 328.332031 405.539062 385.480469 352.203125 416.304688 C 356.515625 423.023438 360.761719 429.886719 364.949219 436.898438 C 367.761719 441.601562 370.558594 446.390625 373.324219 451.257812 C 375.121094 454.402344 376.886719 457.550781 378.65625 460.761719 C 381.050781 465.050781 383.402344 469.417969 385.753906 473.84375 C 386.40625 475.082031 386.78125 476.390625 386.878906 477.769531 C 461.214844 435.089844 511.9375 355.605469 513.761719 263.667969 C 516.515625 124.277344 405.722656 9 266.304688 6.246094 Z M 266.304688 6.246094 " fill-opacity="1" fill-rule="nonzero"/></g><g fill="#ffffff" fill-opacity="1"><g transform="translate(71.722055, 331.787873)"><g><path d="M -5.296875 -25.109375 C -3.335938 -16.960938 -3.570312 -10.554688 -6 -5.890625 C -8.144531 -1.773438 -11.785156 0.898438 -16.921875 2.140625 C -22.046875 3.378906 -26.503906 2.660156 -30.296875 -0.015625 C -34.585938 -3.066406 -37.710938 -8.664062 -39.671875 -16.8125 C -41.648438 -24.976562 -41.425781 -31.382812 -39 -36.03125 C -36.851562 -40.15625 -33.21875 -42.835938 -28.09375 -44.078125 C -22.957031 -45.316406 -18.492188 -44.59375 -14.703125 -41.90625 C -10.410156 -38.875 -7.273438 -33.273438 -5.296875 -25.109375 Z M -14.15625 -22.96875 C -14.96875 -26.3125 -16.519531 -28.539062 -18.8125 -29.65625 C -20.65625 -30.53125 -22.628906 -30.710938 -24.734375 -30.203125 C -26.835938 -29.691406 -28.503906 -28.628906 -29.734375 -27.015625 C -31.285156 -24.972656 -31.65625 -22.28125 -30.84375 -18.9375 C -30.039062 -15.59375 -28.484375 -13.367188 -26.171875 -12.265625 C -24.335938 -11.367188 -22.367188 -11.175781 -20.265625 -11.6875 C -18.160156 -12.195312 -16.488281 -13.269531 -15.25 -14.90625 C -13.71875 -16.9375 -13.351562 -19.625 -14.15625 -22.96875 Z M -14.15625 -22.96875 "/></g></g></g><g fill="#ffffff" fill-opacity="1"><g transform="translate(58.436813, 263.207881)"><g><path d="M 5.5625 -49.796875 L 4.078125 -36.421875 C 3.160156 -35.910156 2.03125 -35.601562 0.6875 -35.5 C -0.351562 -35.394531 -1.382812 -35.175781 -2.40625 -34.84375 C -3.4375 -34.519531 -4.335938 -33.859375 -5.109375 -32.859375 C -5.878906 -31.859375 -6.410156 -30.300781 -6.703125 -28.1875 L -7.734375 -19 L 2 -17.90625 L 0.421875 -3.75 L -33.3125 -7.515625 L -30.734375 -30.53125 C -30.117188 -36.03125 -29.207031 -40.425781 -28 -43.71875 C -26.800781 -47.007812 -25.238281 -49.328125 -23.3125 -50.671875 C -21.382812 -52.023438 -19 -52.539062 -16.15625 -52.21875 C -13.789062 -51.957031 -11.859375 -51.195312 -10.359375 -49.9375 C -8.867188 -48.6875 -7.773438 -46.851562 -7.078125 -44.4375 C -5.910156 -46.570312 -4.640625 -47.898438 -3.265625 -48.421875 C -1.898438 -48.953125 -0.4375 -49.207031 1.125 -49.1875 C 2.519531 -49.175781 4 -49.378906 5.5625 -49.796875 Z M -16.0625 -19.921875 L -15.171875 -28.015625 C -14.921875 -30.265625 -14.820312 -32.050781 -14.875 -33.375 C -14.9375 -34.707031 -15.101562 -35.703125 -15.375 -36.359375 C -15.65625 -37.015625 -16.003906 -37.453125 -16.421875 -37.671875 C -16.847656 -37.898438 -17.285156 -38.035156 -17.734375 -38.078125 C -18.191406 -38.128906 -18.644531 -38.09375 -19.09375 -37.96875 C -19.550781 -37.851562 -19.988281 -37.503906 -20.40625 -36.921875 C -20.832031 -36.335938 -21.222656 -35.40625 -21.578125 -34.125 C -21.929688 -32.851562 -22.234375 -31.09375 -22.484375 -28.84375 L -23.390625 -20.75 Z M -16.0625 -19.921875 "/></g></g></g><g fill="#ffffff" fill-opacity="1"><g transform="translate(71.102472, 193.178638)"><g><path d="M 6.875 -16.65625 L 1.4375 -3.5 L -29.9375 -16.4375 L -24.5 -29.59375 Z M 6.875 -16.65625 "/></g></g></g><g fill="#ffffff" fill-opacity="1"><g transform="translate(87.503935, 155.162503)"><g><path d="M 16.515625 -19.65625 C 11.304688 -13.082031 6.117188 -9.316406 0.953125 -8.359375 C -3.617188 -7.515625 -7.972656 -8.726562 -12.109375 -12 C -16.242188 -15.28125 -18.421875 -19.242188 -18.640625 -23.890625 C -18.890625 -29.128906 -16.410156 -35.035156 -11.203125 -41.609375 C -8.234375 -45.359375 -5.34375 -48.140625 -2.53125 -49.953125 C 0.28125 -51.765625 2.972656 -52.800781 5.546875 -53.0625 C 8.117188 -53.332031 10.554688 -52.984375 12.859375 -52.015625 L 3.390625 -40.078125 C 0.679688 -40.179688 -1.800781 -38.804688 -4.0625 -35.953125 C -6.195312 -33.253906 -7 -30.660156 -6.46875 -28.171875 C -6.019531 -26.171875 -4.953125 -24.5 -3.265625 -23.15625 C -1.566406 -21.8125 0.300781 -21.15625 2.34375 -21.1875 C 4.894531 -21.238281 7.238281 -22.613281 9.375 -25.3125 C 11.101562 -27.488281 12.210938 -29.269531 12.703125 -30.65625 C 13.191406 -32.050781 13.335938 -33.242188 13.140625 -34.234375 L 9.6875 -29.875 L 5 -33.578125 L 17 -48.71875 L 30.3125 -38.1875 L 26.625 -33.546875 L 23.296875 -34.65625 C 23.046875 -30.039062 20.785156 -25.039062 16.515625 -19.65625 Z M 16.515625 -19.65625 "/></g></g></g><g fill="#ffffff" fill-opacity="1"><g transform="translate(135.079754, 102.78616)"><g><path d="M 14.640625 -10.5 L 3.078125 -2.203125 L -16.6875 -29.796875 L -5.125 -38.09375 Z M 14.640625 -10.5 "/></g></g></g><g fill="#ffffff" fill-opacity="1"><g transform="translate(168.782951, 78.901043)"><g><path d="M 51.25 -17.453125 L 35.21875 -11.984375 L 9.640625 -27.5625 L 17.046875 -5.8125 L 3.578125 -1.21875 L -7.359375 -33.34375 L 8.671875 -38.796875 L 34.203125 -23.359375 L 26.84375 -44.984375 L 40.3125 -49.578125 Z M 51.25 -17.453125 "/></g></g></g><g fill="#ffffff" fill-opacity="1"><g transform="translate(241.482988, 56.570601)"><g><path d="M 68.0625 5.59375 L 53.875 4.4375 L 55.65625 -17.125 L 41.203125 3.390625 L 30.609375 2.515625 L 19.734375 -20.078125 L 17.953125 1.484375 L 3.765625 0.3125 L 6.546875 -33.515625 L 23.40625 -32.125 L 36.71875 -6.71875 L 53.984375 -29.609375 L 70.84375 -28.234375 Z M 68.0625 5.59375 "/></g></g></g><g fill="#ffffff" fill-opacity="1"><g transform="translate(330.354613, 69.061822)"><g><path d="M 50.265625 26.875 L 37.546875 20.078125 L 37.34375 13.65625 L 18.46875 3.5625 L 13.03125 6.96875 L 0.3125 0.171875 L 35.453125 -19.5 L 47.109375 -13.265625 Z M 37.0625 4.015625 L 36.734375 -7.859375 L 26.671875 -1.546875 Z M 37.0625 4.015625 "/></g></g></g><g fill="#ffffff" fill-opacity="1"><g transform="translate(395.03925, 108.511416)"><g><path d="M 14.46875 17.140625 C 11.394531 13.722656 9.28125 10.644531 8.125 7.90625 C 6.976562 5.175781 6.554688 2.6875 6.859375 0.4375 C 7.171875 -1.8125 7.988281 -3.875 9.3125 -5.75 L 19.4375 5.46875 C 19 7.363281 19.597656 9.222656 21.234375 11.046875 C 22.867188 12.859375 24.65625 13.644531 26.59375 13.40625 C 26.78125 13.363281 26.914062 13.300781 27 13.21875 C 27.320312 12.925781 27.179688 12.289062 26.578125 11.3125 C 25.984375 10.34375 24.976562 8.988281 23.5625 7.25 C 21.769531 5.0625 20.007812 2.660156 18.28125 0.046875 C 14.4375 -5.816406 14.1875 -10.253906 17.53125 -13.265625 C 17.8125 -13.515625 18.125 -13.765625 18.46875 -14.015625 C 20.488281 -15.148438 22.628906 -15.75 24.890625 -15.8125 C 27.148438 -15.882812 29.585938 -15.207031 32.203125 -13.78125 C 34.816406 -12.363281 37.660156 -9.945312 40.734375 -6.53125 C 43.804688 -3.132812 45.914062 -0.0664062 47.0625 2.671875 C 48.207031 5.421875 48.628906 7.921875 48.328125 10.171875 C 48.035156 12.421875 47.21875 14.484375 45.875 16.359375 L 35.75 5.140625 C 36.195312 3.234375 35.601562 1.375 33.96875 -0.4375 C 32.332031 -2.257812 30.539062 -3.046875 28.59375 -2.796875 C 28.445312 -2.773438 28.332031 -2.722656 28.25 -2.640625 C 27.96875 -2.390625 28.117188 -1.800781 28.703125 -0.875 C 29.296875 0.0390625 30.253906 1.320312 31.578125 2.96875 C 32.898438 4.613281 34.25 6.414062 35.625 8.375 C 37.007812 10.34375 38.132812 12.328125 39 14.328125 C 39.863281 16.335938 40.175781 18.234375 39.9375 20.015625 C 39.769531 21.421875 39.082031 22.664062 37.875 23.75 C 37.539062 24.050781 37.15625 24.34375 36.71875 24.625 C 34.71875 25.757812 32.582031 26.359375 30.3125 26.421875 C 28.039062 26.492188 25.597656 25.8125 22.984375 24.375 C 20.378906 22.945312 17.539062 20.535156 14.46875 17.140625 Z M 14.46875 17.140625 "/></g></g></g><g fill="#ffffff" fill-opacity="1"><g transform="translate(435.432206, 157.902535)"><g><path d="M 11.796875 26.4375 L 6 13.4375 L 29.328125 3.03125 L 23.90625 -9.109375 L 31.5625 -12.53125 L 48.203125 24.734375 L 40.546875 28.15625 L 35.125 16.03125 Z M 11.796875 26.4375 "/></g></g></g><g fill="#ffffff" fill-opacity="1"><g transform="translate(458.361251, 216.113783)"><g><path d="M 4.546875 44.421875 L 0.390625 3.765625 L 34.15625 0.3125 L 38.109375 39.109375 L 29.765625 39.96875 L 27.25 15.328125 L 21.9375 15.859375 L 24.078125 36.6875 L 17.578125 37.359375 L 15.4375 16.53125 L 10.171875 17.0625 L 12.890625 43.5625 Z M 4.546875 44.421875 "/></g></g></g><g fill="#ffffff" fill-opacity="1"><g transform="translate(462.291954, 281.252162)"><g><path d="M -11.6875 48.734375 L -8.546875 35.640625 C -7.566406 35.242188 -6.410156 35.082031 -5.078125 35.15625 C -4.023438 35.175781 -2.96875 35.082031 -1.90625 34.875 C -0.851562 34.675781 0.113281 34.128906 1 33.234375 C 1.894531 32.335938 2.617188 30.859375 3.171875 28.796875 L 5.328125 19.796875 L -4.203125 17.515625 L -0.875 3.671875 L 32.125 11.59375 L 26.71875 34.109375 C 25.425781 39.492188 23.976562 43.738281 22.375 46.84375 C 20.78125 49.957031 18.941406 52.066406 16.859375 53.171875 C 14.773438 54.273438 12.34375 54.492188 9.5625 53.828125 C 7.25 53.273438 5.425781 52.28125 4.09375 50.84375 C 2.757812 49.414062 1.910156 47.457031 1.546875 44.96875 C 0.109375 46.945312 -1.316406 48.109375 -2.734375 48.453125 C -4.160156 48.804688 -5.644531 48.875 -7.1875 48.65625 C -8.582031 48.488281 -10.082031 48.515625 -11.6875 48.734375 Z M 13.46875 21.75 L 11.59375 29.671875 C 11.0625 31.878906 10.738281 33.644531 10.625 34.96875 C 10.519531 36.289062 10.566406 37.296875 10.765625 37.984375 C 10.960938 38.671875 11.253906 39.148438 11.640625 39.421875 C 12.035156 39.691406 12.453125 39.878906 12.890625 39.984375 C 13.335938 40.097656 13.789062 40.117188 14.25 40.046875 C 14.71875 39.984375 15.195312 39.6875 15.6875 39.15625 C 16.175781 38.632812 16.675781 37.757812 17.1875 36.53125 C 17.695312 35.3125 18.21875 33.597656 18.75 31.390625 L 20.640625 23.46875 Z M 13.46875 21.75 "/></g></g></g></svg>