<svg width="25" height="25" viewBox="0 0 25 25" fill="none" xmlns="http://www.w3.org/2000/svg">
<circle cx="12.5" cy="12.5" r="12.5" fill="white"/>
<path d="M1.47461 12.4997C1.47461 14.5982 2.08029 16.5545 3.11352 18.1907H21.1772C22.2104 16.5545 22.8161 14.5982 22.8161 12.4997C22.8161 10.4011 22.2104 8.44477 21.1772 6.80859H3.11352C2.08029 8.44477 1.47461 10.4011 1.47461 12.4997Z" fill="#FFCE31"/>
<path d="M21.2126 6.80878C19.3242 3.82097 15.9752 1.8291 12.1629 1.8291C8.35067 1.8291 5.00159 3.82097 3.11328 6.80878H21.2126ZM3.11328 18.1909C5.00159 21.1787 8.35067 23.1706 12.1629 23.1706C15.9752 23.1706 19.3242 21.1787 21.2126 18.1909H3.11328Z" fill="#AD1519"/>
<path d="M4.03906 11.3262H5.17917V11.9664H4.03906V11.3262ZM4.03906 16.0213H5.2148V16.626H4.03906V16.0213Z" fill="#DEAD00"/>
<path d="M3.934 15.0254C3.82712 15.0965 3.75586 15.1677 3.75586 15.2032C3.75586 15.2388 3.79149 15.2744 3.86274 15.3099C3.934 15.3455 4.00526 15.4167 3.96963 15.4878C4.04089 15.4167 4.07652 15.3455 4.07652 15.2744C4.07652 15.1677 4.00526 15.061 3.934 15.0254Z" fill="#AD1519"/>
<path d="M4.2168 11.9663H5.03625V16.0212H4.2168V11.9663Z" fill="#F5F5F5"/>
<path d="M5.89363 13.4606C5.71549 13.3895 5.39483 13.3184 5.03854 13.3184C4.93166 13.3184 4.78914 13.3184 4.64663 13.3539C4.14783 13.4251 3.75592 13.6385 3.79155 13.7808L3.6134 13.3895C3.57778 13.2116 4.00532 12.9982 4.53975 12.8915C4.71789 12.856 4.89603 12.856 5.03854 12.856C5.39483 12.856 5.71549 12.8915 5.89363 12.9627V13.4606Z" fill="#AD1519"/>
<path d="M4.21809 13.9942C4.00431 13.9942 3.82617 13.9231 3.82617 13.8164C3.82617 13.7452 3.89743 13.6385 4.03994 13.5674H4.25371L4.21809 13.9942ZM5.03754 13.6741C5.18005 13.7097 5.28694 13.7452 5.3582 13.7808C5.39382 13.8164 5.25131 13.9586 5.03754 14.0654V13.6741Z" fill="#AD1519"/>
<path d="M3.68503 14.7767C3.64941 14.7056 3.89881 14.5633 4.21946 14.4566C4.36198 14.421 4.46886 14.3499 4.647 14.2787C5.07455 14.1009 5.43083 13.8519 5.35957 13.7808L5.43083 14.2076C5.46646 14.2787 5.18143 14.4921 4.75389 14.7056C4.61138 14.7767 4.36198 14.8834 4.21946 14.919C3.97006 14.9901 3.75629 15.1324 3.75629 15.168L3.68503 14.7767Z" fill="#AD1519"/>
<path d="M11.6997 11.3262H12.8398V11.9664H11.6997V11.3262ZM11.6641 16.0213H12.8398V16.626H11.6641V16.0213Z" fill="#DEAD00"/>
<path d="M12.9472 15.0254C13.0541 15.0965 13.1253 15.1677 13.1253 15.2032C13.1253 15.2388 13.0897 15.2744 13.0185 15.3099C12.9472 15.3811 12.8759 15.4878 12.9116 15.5234C12.8403 15.4522 12.8047 15.3811 12.8047 15.3099C12.8047 15.1677 12.8759 15.061 12.9472 15.0254Z" fill="#AD1519"/>
<path d="M11.8438 11.9663H12.6632V16.0212H11.8438V11.9663Z" fill="#F5F5F5"/>
<path d="M10.9883 13.4601C11.1664 13.389 11.4871 13.3179 11.8434 13.3179C11.9503 13.3179 12.0928 13.3179 12.2353 13.3534C12.7341 13.4246 13.126 13.638 13.0904 13.7803L13.2685 13.3534C13.3041 13.1756 12.8766 12.9622 12.3422 12.8555H11.8434C11.4871 12.8555 11.1664 12.891 10.9883 12.9622V13.4601Z" fill="#AD1519"/>
<path d="M12.6612 13.9937C12.875 13.9937 13.0531 13.9226 13.0531 13.8159C13.0531 13.7447 12.9818 13.638 12.8393 13.5669H12.6256L12.6612 13.9937ZM11.8417 13.6736C11.6992 13.7092 11.5923 13.7447 11.5211 13.7803C11.4855 13.8159 11.628 13.9582 11.8417 14.0649V13.6736Z" fill="#AD1519"/>
<path d="M13.1969 14.7764C13.2325 14.7053 12.9831 14.563 12.6625 14.4563C12.5199 14.4207 12.4131 14.3496 12.2349 14.2785C11.8074 14.1006 11.4511 13.8516 11.5224 13.7805L11.4511 14.2073C11.4155 14.2785 11.7005 14.4919 12.128 14.7053C12.2705 14.7764 12.5199 14.8831 12.6625 14.9187C12.9119 14.9898 13.1256 15.1677 13.09 15.2033L13.1969 14.7764ZM8.42267 9.0498C9.09961 9.0498 10.4891 9.19208 10.9879 9.69005C10.4535 10.9705 9.59841 10.437 8.42267 10.437C7.28256 10.437 6.39185 10.9705 5.85742 9.69005C6.35622 9.19208 7.7101 9.0498 8.42267 9.0498Z" fill="#AD1519"/>
<path d="M10.1693 10.4722C9.74172 10.2232 9.10041 10.1876 8.42347 10.1876C7.74653 10.1876 7.10521 10.2588 6.67767 10.4722L6.82019 11.0769C7.2121 11.1836 7.78215 11.2547 8.42347 11.2547C9.06478 11.2547 9.59921 11.1836 10.0267 11.0769L10.1693 10.4722ZM10.7749 8.94272C10.6324 8.83601 10.3474 8.7293 10.098 8.7293C9.99112 8.7293 9.88424 8.7293 9.77735 8.76487C9.77735 8.76487 9.56358 8.48032 9.06478 8.48032C8.88664 8.48032 8.74412 8.51589 8.60161 8.58703V8.55146C8.56598 8.48032 8.49472 8.40918 8.42347 8.40918C8.35221 8.40918 8.24533 8.51589 8.24533 8.58703V8.62259C8.10281 8.55146 7.9603 8.51589 7.78216 8.51589C7.28336 8.51589 7.06959 8.83601 7.06959 8.80044C6.9627 8.76487 6.85581 8.76487 6.74893 8.76487C5.11002 8.76487 5.92947 9.86751 5.92947 9.86751L6.10762 9.6541C5.7157 9.15613 6.07199 8.87158 6.78456 8.87158C6.89144 8.87158 6.9627 8.87158 7.03396 8.90715C6.78456 9.26284 7.24773 9.58296 7.24773 9.58296L7.35461 9.40511C7.10521 9.22727 7.06959 8.62259 7.78216 8.62259C7.9603 8.62259 8.10281 8.65816 8.24533 8.76487C8.24533 8.80044 8.2097 9.29841 8.17407 9.36955L8.4591 9.61853L8.74412 9.36955C8.7085 9.26284 8.67287 8.80044 8.67287 8.76487C8.77975 8.69373 8.9579 8.62259 9.13604 8.62259C9.88424 8.62259 9.88424 9.22727 9.56358 9.40511L9.67046 9.58296C9.67046 9.58296 10.0624 9.26284 9.88424 8.90715C9.95549 8.90715 10.0624 8.87158 10.1336 8.87158C10.9887 8.87158 11.0243 9.51182 10.8106 9.6541L10.9531 9.86751C10.8818 9.86751 11.2737 9.36955 10.7749 8.94272Z" fill="#DEAD00"/>
<path d="M8.20898 8.26713C8.20898 8.16042 8.31587 8.05371 8.42276 8.05371C8.56527 8.05371 8.63653 8.16042 8.63653 8.26713C8.63653 8.37383 8.52964 8.48054 8.42276 8.48054C8.31587 8.48054 8.20898 8.37383 8.20898 8.26713Z" fill="#0044AD"/>
<path d="M8.3515 7.66211V7.76882H8.24461V7.87552H8.3515V8.23122H8.20898V8.33792H8.63653L8.67216 8.26678L8.63653 8.23122H8.49401V7.87552H8.6009V7.76882H8.49401V7.66211H8.3515Z" fill="#DEAD00"/>
<path d="M8.42171 11.1838C7.85165 11.1838 7.35285 11.1127 6.96094 11.006C7.35285 10.8993 7.85165 10.8281 8.42171 10.8281C8.99176 10.8281 9.49056 10.8993 9.88247 11.006C9.52619 11.1127 8.99176 11.1838 8.42171 11.1838Z" fill="#AD1519"/>
<path d="M8.45783 17.3373C7.78089 17.3373 7.13958 17.1594 6.56952 16.9104C6.14198 16.697 5.89258 16.3058 5.89258 15.8434V14.1361H11.0231V15.8434C11.0231 16.3058 10.7381 16.7326 10.3461 16.9104C9.77608 17.195 9.13477 17.3373 8.45783 17.3373ZM8.4222 11.2905H10.9875V14.1361H8.4222V11.2905Z" fill="#F5F5F5"/>
<path d="M8.45783 15.8431C8.45783 16.5189 7.88777 17.0524 7.1752 17.0524C6.46263 17.0524 5.89258 16.5189 5.89258 15.8431V14.1357H8.45783V15.8431Z" fill="#AD1519"/>
<path d="M6.42748 16.8393C6.49873 16.8749 6.60562 16.946 6.74813 16.9816V14.0649H6.46311L6.42748 16.8393ZM5.85742 15.8078C5.85742 16.1635 5.99994 16.4481 6.14245 16.5903V14.0649H5.85742V15.8078Z" fill="#DEAD00"/>
<path d="M6.99609 17.0527H7.28112V14.0649H6.99609V17.0527Z" fill="#DEAD00"/>
<path d="M7.56836 16.9816C7.67524 16.946 7.81776 16.8749 7.88902 16.8393V14.0649H7.60399L7.56836 16.9816Z" fill="#DEAD00"/>
<path d="M5.85742 11.2905H8.42267V14.1361H5.85742V11.2905Z" fill="#AD1519"/>
<path d="M8.17188 16.5904C8.31439 16.4837 8.42127 16.2347 8.4569 15.9502V14.1006H8.17188V16.5904Z" fill="#DEAD00"/>
<path d="M11.0232 14.136V15.8433C11.0232 16.5192 10.4532 17.0527 9.7406 17.0527C9.02803 17.0527 8.45798 16.5192 8.45798 15.8433V14.136H11.0232ZM10.0969 11.7885C10.2038 12.0019 10.2038 12.5354 9.88312 12.4287C9.95437 12.4643 9.99 12.7133 10.0969 12.8555C10.275 13.0689 10.4888 12.8911 10.4532 12.6421C10.3819 12.2509 10.4175 12.0019 10.4888 11.6106C10.4888 11.6462 10.6669 11.6462 10.7382 11.575C10.7026 11.6818 10.6669 11.824 10.7382 11.824C10.6669 11.9307 10.4888 12.1086 10.4532 12.2153C10.4175 12.4643 10.8095 12.9267 10.3819 13.0334C10.0969 13.1045 10.275 13.3179 10.3819 13.4246C10.3819 13.4246 10.2394 13.887 10.3107 13.8515C10.0256 13.9582 10.0969 13.7092 10.0969 13.7092C10.2394 13.2824 9.84749 13.2468 9.88312 13.1757C9.52683 13.1401 9.91874 13.4958 9.59809 13.4958C9.52683 13.4958 9.38432 13.5669 9.38432 13.5669C8.9924 13.5313 9.20617 13.1757 9.34869 13.2112C9.45557 13.2468 9.56246 13.4246 9.56246 13.1757C9.56246 13.1757 9.38432 12.8911 9.84749 12.8911C9.66934 12.8911 9.56246 12.7488 9.4912 12.571C9.41995 12.6065 9.31306 12.7844 8.92115 12.82C8.92115 12.82 8.81426 12.4287 8.92115 12.4998C9.06366 12.571 9.13492 12.571 9.27743 12.4287C9.20617 12.322 8.77863 12.1797 8.84989 11.9307C8.84989 11.8596 9.06366 11.7529 9.06366 11.7529C9.02803 11.9307 9.13492 12.1086 9.34869 12.1086C9.63372 12.1441 9.52683 12.0374 9.56246 11.9663C9.59809 11.8952 9.81186 12.0019 9.7406 11.824C9.7406 11.7885 9.4912 11.7529 9.56246 11.6462C9.70497 11.4683 9.91874 11.6106 10.0969 11.7885ZM8.45798 16.9815L8.38672 16.8037L8.45798 16.5903L8.52923 16.8037L8.45798 16.9815Z" fill="#AD1519"/>
<path d="M6.63955 11.8949V12.0727H6.71081V12.215H6.53267V12.5707H6.63955V13.3532H6.42578V13.7445H7.88655V13.3532H7.70841V12.5707H7.77966V12.215H7.60152V12.0727H7.70841V11.8949H7.35212V12.0727H7.42338V12.215H7.24524V11.7882H7.35212V11.6104H6.96021V11.7882H7.06709V12.215H6.88895V12.0727H6.96021V11.8949H6.63955ZM10.6656 16.2699V14.4914H8.81289V16.2699L9.66797 16.6612H9.77486L10.6656 16.2699ZM9.66797 14.6337V15.2384L9.06229 14.6337H9.66797ZM8.91978 14.6693L9.63234 15.3807L8.91978 16.0921V14.6693ZM8.99103 16.2343L9.66797 15.5585V16.5545L8.99103 16.2343ZM9.77486 16.5189V15.523L10.4518 16.1988L9.77486 16.5189ZM10.5231 16.0921L9.81049 15.3807L10.5231 14.6693V16.0921ZM9.77486 14.6337H10.3805L9.77486 15.2384V14.6337Z" fill="#DEAD00"/>
<path d="M7.60352 14.1006C7.60352 13.567 7.9598 13.1758 8.42297 13.1758C8.88614 13.1758 9.24243 13.6026 9.24243 14.1006C9.24243 14.5985 8.88614 15.0254 8.42297 15.0254C7.9598 15.0254 7.60352 14.6341 7.60352 14.1006Z" fill="#AD1519"/>
<path d="M7.85156 14.1006C7.85156 13.7094 8.10096 13.4248 8.42162 13.4248C8.74227 13.4248 8.99167 13.7449 8.99167 14.1006C8.99167 14.4919 8.74227 14.7764 8.42162 14.7764C8.13659 14.812 7.85156 14.4919 7.85156 14.1006Z" fill="#0044AD"/>
<path d="M8.17376 13.6382L8.03125 14.0294L8.13814 14.065L8.06688 14.2073H8.28065L8.20939 14.065L8.31628 14.0294L8.17376 13.6382ZM8.70819 13.6382L8.56568 14.0294L8.67256 14.065L8.60131 14.2073H8.81508L8.77945 14.065L8.88633 14.0294L8.70819 13.6382ZM8.45879 14.1006L8.28065 14.4918L8.38753 14.5274L8.35191 14.6697H8.53005L8.49442 14.5274L8.60131 14.4918L8.45879 14.1006Z" fill="#DEAD00"/>
</svg>
