<svg width="56" height="51" viewBox="0 0 56 51" fill="none" xmlns="http://www.w3.org/2000/svg">
<path d="M28.9866 30.8965C25.324 30.9014 21.7789 29.6049 18.9837 27.2383C16.1885 24.8717 14.325 21.5889 13.7258 17.9757C13.1265 14.3626 13.8305 10.654 15.7121 7.5118C17.5937 4.36956 20.5305 1.99805 23.9986 0.820389C27.4666 -0.357277 31.2402 -0.264475 34.6461 1.08223C38.0521 2.42893 40.8688 4.94192 42.5937 8.17284C44.3185 11.4038 44.8394 15.1424 44.0633 18.7218C43.2872 22.3011 41.2646 25.4883 38.3565 27.7147C35.6736 29.7872 32.3767 30.9068 28.9866 30.8965ZM28.9866 1.93101C27.1855 1.89861 25.3959 2.22537 23.7225 2.89222C22.0491 3.55907 20.5253 4.55263 19.2401 5.8149C17.9549 7.07717 16.9341 8.58287 16.2373 10.244C15.5404 11.9052 15.1815 13.6885 15.1815 15.4899C15.1815 17.2913 15.5404 19.0747 16.2373 20.7358C16.9341 22.397 17.9549 23.9027 19.2401 25.1649C20.5253 26.4272 22.0491 27.4208 23.7225 28.0876C25.3959 28.7545 27.1855 29.0812 28.9866 29.0488C32.1331 29.05 35.1819 27.9555 37.6093 25.9534C40.0367 23.9513 41.6912 21.1664 42.2887 18.0771C42.4597 17.2202 42.545 16.3484 42.5433 15.4746C42.5439 13.6939 42.1936 11.9306 41.5126 10.2853C40.8316 8.64 39.8331 7.14499 38.5742 5.88567C37.3152 4.62635 35.8206 3.62738 34.1755 2.94582C32.5304 2.26426 30.7672 1.91347 28.9866 1.91347V1.93101Z" fill="#FEDA44"/>
<path d="M27.7444 7.72412H29.2341V9.07166C30.8894 9.26836 31.963 10.1931 32.4551 11.846L30.4107 12.6739C30.0081 11.5377 29.3907 10.9741 28.5541 10.9741C28.3689 10.9653 28.1838 10.9944 28.0105 11.0596C27.8373 11.1248 27.6797 11.2246 27.5476 11.3528C27.4237 11.4725 27.326 11.6159 27.2606 11.7742C27.1952 11.9325 27.1634 12.1023 27.1673 12.2732C27.1571 12.4325 27.1849 12.592 27.2486 12.7388C27.3124 12.8857 27.4101 13.0158 27.5341 13.1187C28.0201 13.4337 28.5487 13.6798 29.1044 13.8497C29.8192 14.088 30.5133 14.3825 31.1801 14.7304C31.6783 15.0072 32.0923 15.4102 32.3791 15.8974C32.6898 16.433 32.8446 17.0424 32.8264 17.6589C32.8567 18.5936 32.5257 19.5047 31.9004 20.2087C31.1923 20.9291 30.2332 21.3587 29.2162 21.4109V23.1724H27.7444V21.4373C25.8029 21.2377 24.6009 20.1265 24.1387 18.1037L26.4336 17.5136C26.6633 18.7643 27.3746 19.3896 28.5675 19.3896C28.7909 19.4084 29.0158 19.3817 29.2282 19.3113C29.4406 19.2408 29.636 19.1281 29.8023 18.98C29.9314 18.8495 30.033 18.6952 30.1013 18.5259C30.1696 18.3567 30.2033 18.1757 30.2004 17.9936C30.2119 17.8222 30.1818 17.6505 30.1125 17.4927C30.0433 17.335 29.937 17.1957 29.8023 17.0864C29.2494 16.7476 28.6518 16.4853 28.0262 16.307C27.3611 16.0957 26.7195 15.8183 26.1115 15.4791C25.6435 15.2001 25.2579 14.8054 24.9931 14.3341C24.6919 13.8124 24.5374 13.2211 24.5458 12.6211C24.5377 11.7902 24.8064 10.9797 25.3108 10.3135C25.6054 9.95342 25.9716 9.65635 26.387 9.44054C26.8024 9.22472 27.2582 9.09469 27.7265 9.05844L27.7444 7.72412Z" fill="#FEDA44"/>
<path d="M55.9927 34.9869C55.9927 34.9208 55.962 34.8547 55.9489 34.7886C55.9413 34.7007 55.9206 34.6145 55.8876 34.5329C55.7319 34.0329 55.4085 33.6029 54.9727 33.3163C53.2217 32.1262 49.7197 32.8094 46.4628 33.6778C45.0795 33.0342 41.9889 33.6469 37.27 35.5202C36.9723 35.5202 36.6834 35.5202 36.4207 35.5202C30.7824 35.864 27.8407 35.8376 27.3242 35.8288C26.9613 35.7615 26.6063 35.6567 26.2648 35.5158C25.7001 35.247 24.8596 34.7268 23.8835 34.123C21.1563 32.4436 17.4266 30.1559 14.3361 29.9312H14.0778C8.7153 29.9312 0.853246 33.8982 0.50742 34.0525C0.289154 34.1629 0.12341 34.3562 0.0466514 34.5897C-0.0301071 34.8232 -0.011593 35.0779 0.098121 35.2977C0.207835 35.5174 0.399762 35.6843 0.631679 35.7616C0.863597 35.8389 1.11651 35.8203 1.33477 35.7098C1.40919 35.6701 9.14867 31.7824 14.0296 31.7824H14.2485C16.8444 31.9587 20.3771 34.123 22.916 35.7054C23.9404 36.3357 24.8202 36.8779 25.4769 37.1908C25.9565 37.4058 26.4587 37.5655 26.974 37.6669H27.044H27.1666C27.2848 37.6669 30.2309 37.7418 36.5126 37.3539C37.9047 37.2701 38.7364 37.4949 39.2267 38.0768C39.319 38.1614 39.3892 38.2676 39.4312 38.3859C39.4732 38.5043 39.4857 38.6312 39.4675 38.7556C39.2399 39.9457 36.1975 41.5633 35.0549 42.176C32.6735 43.4455 26.0066 43.613 20.9855 40.9903C20.8787 40.9337 20.7618 40.8989 20.6416 40.888C20.5213 40.8771 20.4002 40.8903 20.285 40.9268C20.1698 40.9632 20.063 41.0223 19.9706 41.1005C19.8782 41.1788 19.8021 41.2746 19.7467 41.3826C19.6357 41.6015 19.6147 41.8556 19.6885 42.09C19.7622 42.3243 19.9247 42.5199 20.1407 42.6344C23.2226 44.1646 26.6152 44.9537 30.0514 44.9397C32.4415 44.9397 34.5559 44.5386 35.9173 43.8113C38.9816 42.1804 40.9427 40.8228 41.2754 39.1126C41.3443 38.7202 41.322 38.317 41.2104 37.9346C41.0987 37.5523 40.9007 37.2012 40.6319 36.9087C40.487 36.7348 40.3257 36.5754 40.1504 36.4327C42.7287 35.5511 45.0051 35.0707 45.6004 35.291C45.714 35.4212 45.8616 35.5167 46.0265 35.5666C46.1913 35.6165 46.3668 35.6187 46.5328 35.5732H46.616C51.5582 34.2508 53.3355 34.4491 53.9484 34.8679C53.9845 34.8941 54.0169 34.9253 54.0447 34.9605C53.7645 35.5687 52.8102 36.8073 49.6102 38.8085C47.7585 39.9677 42.9695 42.5154 40.6669 43.7452L39.8352 44.1551C39.3974 44.3799 38.9597 44.6356 38.4957 44.9089C35.9742 46.359 32.5247 48.3469 27.6219 48.3469H27.5869C27.1491 48.3205 24.4788 47.602 22.1368 46.9673C16.4198 45.4158 11.9415 44.2389 10.4751 44.3226C8.09807 44.4549 2.15775 45.7243 1.89072 45.7816C1.65214 45.833 1.44362 45.9778 1.31103 46.184C1.17845 46.3903 1.13267 46.6411 1.18375 46.8813C1.23483 47.1216 1.3786 47.3315 1.58343 47.465C1.78825 47.5985 2.03736 47.6446 2.27594 47.5932C2.33723 47.5932 8.33883 46.2973 10.5933 46.1739C11.8452 46.0857 17.768 47.7034 21.6728 48.7613C25.5776 49.8191 27.0397 50.2026 27.5781 50.207H27.6219C33.0281 50.207 36.7228 48.0781 39.4412 46.5265C39.879 46.262 40.3167 46.0152 40.7282 45.7992L41.5424 45.3584C44.042 44.0361 48.6909 41.5501 50.5952 40.3556C53.388 38.6145 55.0296 37.1467 55.6862 35.8068C55.7997 35.7055 55.8868 35.5779 55.9402 35.435C55.9936 35.2921 56.0116 35.1384 55.9927 34.9869Z" fill="#FEDA44"/>
</svg>
