<svg width="59" height="50" viewBox="0 0 59 50" fill="none" xmlns="http://www.w3.org/2000/svg">
<path fill-rule="evenodd" clip-rule="evenodd" d="M54.7651 19.8259C54.7651 19.4393 55.0785 19.1259 55.4651 19.1259H55.7901C58.278 19.1259 59.1849 16.0991 57.2461 14.7687L36.7993 0.709596C36.1295 0.248977 35.3259 0 34.4999 0C33.6739 0 32.8704 0.248951 32.2006 0.709571L11.7513 14.7679C9.81694 16.1013 10.7241 19.1259 13.2062 19.1259H13.5312C13.9178 19.1259 14.2312 19.4393 14.2312 19.8259V22.7046C14.9557 22.8899 15.6558 23.136 16.3257 23.4372V19.8259C16.3257 19.4393 16.6391 19.1259 17.0257 19.1259H24.0147C24.4013 19.1259 24.7147 19.4393 24.7147 19.8259V36.7559C24.7147 37.1425 24.4013 37.4559 24.0147 37.4559H23.8225C23.7088 38.1373 23.5421 38.8008 23.3267 39.442H51.3905C54.007 39.442 56.1651 41.5026 56.1651 44.0934V46.914C56.1651 47.3006 55.8517 47.614 55.4651 47.614H15.1787C13.8674 48.0588 12.4621 48.3 11.0005 48.3C10.9124 48.3 10.8244 48.2991 10.7367 48.2974V48.607C10.7367 48.8631 10.8415 49.1134 11.0356 49.3014C11.2304 49.4902 11.4992 49.6 11.784 49.6H57.2124C57.4971 49.6 57.7659 49.4902 57.9607 49.3014C58.1548 49.1134 58.2596 48.8631 58.2596 48.607V44.0934C58.2596 41.7549 57.0083 39.6904 55.0964 38.5056C54.8904 38.3779 54.7651 38.1529 54.7651 37.9106V19.8259ZM33.4311 2.31867C33.7456 2.10275 34.1191 1.98829 34.4999 1.98829C34.8808 1.98829 35.2542 2.10275 35.5688 2.31867L55.2746 15.863C55.5273 16.0367 55.6375 16.3546 55.5466 16.6474C55.4556 16.9403 55.1847 17.1398 54.878 17.1398H14.1218C13.8152 17.1398 13.5442 16.9403 13.4533 16.6474C13.3623 16.3546 13.4726 16.0367 13.7253 15.863L33.4311 2.31867ZM51.9706 19.1259C52.3572 19.1259 52.6706 19.4393 52.6706 19.8259V36.7763C52.6706 36.9706 52.5898 37.1563 52.4475 37.2887C52.3052 37.4211 52.1143 37.4884 51.9204 37.4744C51.7445 37.4618 51.5682 37.4556 51.3918 37.4559L51.3905 37.4559H44.9816C44.595 37.4559 44.2816 37.1425 44.2816 36.7559V19.8259C44.2816 19.4393 44.595 19.1259 44.9816 19.1259H51.9706ZM33.4509 36.7559C33.4509 37.1425 33.1375 37.4559 32.7509 37.4559H27.5092C27.1226 37.4559 26.8092 37.1425 26.8092 36.7559V19.8259C26.8092 19.4393 27.1226 19.1259 27.5092 19.1259H32.7509C33.1375 19.1259 33.4509 19.4393 33.4509 19.8259V36.7559ZM36.2454 37.4559C35.8588 37.4559 35.5454 37.1425 35.5454 36.7559V19.8259C35.5454 19.4393 35.8588 19.1259 36.2454 19.1259H41.4872C41.8738 19.1259 42.1872 19.4393 42.1872 19.8259V36.7559C42.1872 37.1425 41.8738 37.4559 41.4872 37.4559H36.2454Z" fill="#FEDA44"/>
<path fill-rule="evenodd" clip-rule="evenodd" d="M11.2777 45.1054C16.5397 45.1054 20.8053 40.8397 20.8053 35.5777C20.8053 30.3157 16.5397 26.05 11.2777 26.05C6.01568 26.05 1.75 30.3157 1.75 35.5777C1.75 40.8397 6.01568 45.1054 11.2777 45.1054ZM11.2777 46.8554C17.5061 46.8554 22.5553 41.8062 22.5553 35.5777C22.5553 29.3492 17.5061 24.3 11.2777 24.3C5.04918 24.3 0 29.3492 0 35.5777C0 41.8062 5.04918 46.8554 11.2777 46.8554Z" fill="#FEDA44"/>
<path fill-rule="evenodd" clip-rule="evenodd" d="M6.25823 30.9312C6.59994 30.5895 7.15396 30.5895 7.49567 30.9312L16.0322 39.4678C16.3739 39.8095 16.3739 40.3635 16.0322 40.7052C15.6905 41.0469 15.1365 41.0469 14.7948 40.7052L6.25823 32.1687C5.91653 31.8269 5.91653 31.2729 6.25823 30.9312Z" fill="#FEDA44"/>
<path fill-rule="evenodd" clip-rule="evenodd" d="M6.25823 30.9312C6.59994 30.5895 7.15396 30.5895 7.49567 30.9312L16.0322 39.4678C16.3739 39.8095 16.3739 40.3635 16.0322 40.7052C15.6905 41.0469 15.1365 41.0469 14.7948 40.7052L6.25823 32.1687C5.91653 31.8269 5.91653 31.2729 6.25823 30.9312Z" fill="#FEDA44"/>
<path fill-rule="evenodd" clip-rule="evenodd" d="M16.2965 30.9312C15.9547 30.5895 15.4007 30.5895 15.059 30.9312L6.52248 39.4678C6.18077 39.8095 6.18077 40.3635 6.52248 40.7052C6.86418 41.0469 7.4182 41.0469 7.75991 40.7052L16.2965 32.1687C16.6382 31.8269 16.6382 31.2729 16.2965 30.9312Z" fill="#FEDA44"/>
<path fill-rule="evenodd" clip-rule="evenodd" d="M16.2965 30.9312C15.9547 30.5895 15.4007 30.5895 15.059 30.9312L6.52248 39.4678C6.18077 39.8095 6.18077 40.3635 6.52248 40.7052C6.86418 41.0469 7.4182 41.0469 7.75991 40.7052L16.2965 32.1687C16.6382 31.8269 16.6382 31.2729 16.2965 30.9312Z" fill="#FEDA44"/>
</svg>
