<svg width="25" height="25" viewBox="0 0 25 25" fill="none" xmlns="http://www.w3.org/2000/svg">
<circle cx="12.5" cy="12.5" r="12.5" fill="white"/>
<g clip-path="url(#clip0_778_154121)">
<path d="M12.5007 2C7.9157 2 4.0307 4.94 2.5957 9H22.4057C20.9707 4.94 17.0857 2 12.5007 2Z" fill="black"/>
<path d="M12.5007 23C17.0857 23 20.9707 20.095 22.4057 16H2.5957C4.0307 20.095 7.9157 23 12.5007 23V23Z" fill="#FFCC00"/>
<path d="M2.595 9C2.21 10.085 2 11.275 2 12.5C2 13.725 2.21 14.915 2.595 16H22.405C22.79 14.915 23 13.725 23 12.5C23 11.275 22.79 10.085 22.405 9H2.595Z" fill="#FF0000"/>
</g>
<defs>
<clipPath id="clip0_778_154121">
<rect width="21" height="21" fill="white" transform="translate(2 2)"/>
</clipPath>
</defs>
</svg>
