<svg width="25" height="25" viewBox="0 0 25 25" fill="none" xmlns="http://www.w3.org/2000/svg">
<circle cx="12.5" cy="12.5" r="12.5" fill="white"/>
<path d="M12.7547 23.1706C18.648 23.1706 23.4254 18.3931 23.4254 12.4998C23.4254 6.60655 18.648 1.8291 12.7547 1.8291C6.86143 1.8291 2.08398 6.60655 2.08398 12.4998C2.08398 18.3931 6.86143 23.1706 12.7547 23.1706Z" fill="#E41E20"/>
<path d="M18.7669 16.0215C18.4468 15.4524 17.5576 15.8792 17.0952 15.8792C17.3441 15.6658 17.9844 15.2034 18.3401 15.2034C18.0911 14.99 17.6287 15.1678 17.4509 15.3812C16.8106 16.1282 16.4194 15.7369 15.4946 15.4524C16.2415 14.6699 13.3604 14.1008 14.2852 13.4605C14.463 13.3182 14.7832 14.5632 15.2811 14.3497C15.4946 14.2786 14.463 13.4605 14.9966 13.2827C15.1744 13.2115 15.8858 15.3101 16.3838 14.4564C16.5616 14.1363 15.2811 13.8518 15.6368 13.2115C15.3878 13.6739 18.7669 15.4168 18.3401 14.2786C18.1267 13.7451 16.0637 14.1363 16.2415 12.7491C16.2059 13.1048 18.6246 14.243 18.3757 13.2115C18.3045 12.9625 15.9214 13.1404 16.3482 12.0022C16.4193 11.8243 18.4468 13.3894 18.3757 12.2512C18.3401 11.8243 16.2059 12.1445 16.4193 11.2197C16.4193 11.1841 18.6246 12.1445 18.3757 11.1485C18.3401 11.0062 15.9214 11.2908 16.3838 10.4371C16.1704 10.8284 19.2649 10.6505 18.3401 9.86803C18.02 9.61905 16.6683 10.8284 16.3838 9.76132C16.4194 9.9036 19.0515 9.54791 18.3045 8.80096C18.1267 8.58754 16.4549 9.9036 16.4193 9.04994C16.4193 8.87209 18.6246 7.84059 18.3045 7.30705C17.9133 6.66681 15.7435 8.44526 15.4946 8.55197C13.8228 9.33449 15.4946 8.87209 14.6765 9.86803C14.1785 10.4371 13.7872 9.54791 13.9295 9.15665C14.2141 8.33856 15.9214 8.44526 15.9925 7.91173C15.7435 8.08957 15.4946 8.054 15.2811 7.91173C15.3167 7.91173 17.0952 7.66274 16.4905 7.41376C16.4193 7.37819 16.2059 7.52047 15.9925 7.62717C16.0281 6.77352 13.7161 7.41376 13.4671 7.44933C14.4275 8.26742 12.6846 7.80502 13.6805 8.23185C13.4315 8.26742 13.2181 8.37413 13.0047 8.55197C13.4671 8.58754 12.7557 9.12108 12.7557 9.12108C12.7557 9.12108 12.0444 8.62311 12.4712 8.5164C12.2933 8.33856 12.0443 8.23185 11.7954 8.19628C12.7913 7.76945 11.0484 8.23185 12.0088 7.41376C11.7954 7.41376 9.44781 6.73795 9.48337 7.59161C9.26996 7.4849 9.05655 7.37819 8.98541 7.37819C8.4163 7.62718 10.1592 7.87616 10.1948 7.87616C9.98134 8.054 9.73236 8.054 9.48337 7.87616C9.55451 8.4097 11.2618 8.30299 11.5464 9.12108C11.6887 9.51234 11.2974 10.4016 10.7994 9.83246C9.94577 8.83652 11.6175 9.29892 9.98134 8.5164C9.73236 8.4097 7.56264 6.63124 7.17138 7.27148C6.85126 7.80502 9.05655 8.83653 9.05655 9.01437C8.98541 9.86803 7.34923 8.55197 7.17138 8.76539C6.42443 9.51234 9.05655 9.86803 9.09211 9.72575C8.84313 10.7928 7.45594 9.58348 7.13581 9.83246C6.21102 10.5794 9.30553 10.7928 9.09211 10.4016C9.51894 11.2197 7.13581 10.9707 7.10024 11.1129C6.85126 12.1089 9.05655 11.1485 9.05655 11.1841C9.26996 12.1445 7.13581 11.7888 7.10024 12.2156C7.02911 13.3538 9.05655 11.8243 9.12768 11.9666C9.55451 13.1048 7.17138 12.927 7.10024 13.176C6.81569 14.243 9.26996 13.1048 9.23439 12.7136C9.41224 14.1008 7.34923 13.7095 7.13581 14.243C6.70898 15.3812 10.088 13.6384 9.83907 13.176C10.1948 13.8162 8.91427 14.1008 9.09211 14.4209C9.59008 15.2745 10.3015 13.176 10.4793 13.2471C11.0128 13.4249 9.98134 14.243 10.1948 14.3142C10.6927 14.5276 11.0128 13.2827 11.1907 13.4249C12.1155 14.0652 9.23439 14.6343 9.98134 15.4168C9.05655 15.7014 8.62972 16.0926 8.02504 15.3457C7.8472 15.1323 7.34923 14.99 7.13581 15.1678C7.4915 15.1678 8.13175 15.6658 8.38073 15.8436C7.91833 15.8436 7.02911 15.4168 6.70898 15.9859C7.10024 15.8081 7.98947 15.9859 8.38073 16.0215C7.9539 16.3772 7.17138 16.1282 7.31366 17.0174C7.52707 16.306 9.66122 15.7725 9.9102 16.7684C10.1592 16.306 9.16325 16.0571 8.94984 15.9859C9.09211 15.9503 10.7639 15.9503 10.7639 15.9503C10.7639 15.9503 11.6887 14.1363 12.1155 14.5632C13.1114 15.6302 10.4793 16.2349 10.3726 16.4483C10.088 17.1241 11.7242 16.5195 11.6531 16.4839C12.0799 16.8751 10.586 17.2308 10.586 17.3375C10.6216 18.0845 11.8309 17.053 11.9021 17.053C12.4712 17.1953 11.084 18.0489 11.1196 17.9422C11.0128 18.7247 12.3289 17.6932 12.2933 17.5154C12.4356 17.7288 12.4356 17.9066 12.2578 18.1556C11.7954 18.9737 12.2222 19.0804 12.7557 19.9341C13.2893 19.0804 13.7161 19.0093 13.2537 18.1556C13.1114 17.9422 13.1114 17.7288 13.2181 17.5154C13.1826 17.6932 14.5342 18.7247 14.3919 17.9422C14.3919 18.0489 13.0047 17.1597 13.6094 17.053C13.6805 17.053 14.8899 18.0845 14.9254 17.3375C14.9254 17.1953 13.396 16.8751 13.8584 16.4839C13.8228 16.5195 15.4234 17.1597 15.1389 16.4483C15.0677 16.2349 12.4 15.6658 13.396 14.5632C13.8228 14.1008 14.7476 15.9503 14.7476 15.9503C14.7476 15.9503 16.4194 15.9503 16.5616 15.9859C16.3482 16.0571 15.3167 16.306 15.6013 16.7684C15.8502 15.7369 17.9844 16.306 18.1978 17.0174C18.3401 16.1282 17.5576 16.4127 17.1307 16.0215C17.4864 16.0215 18.3757 15.8436 18.7669 16.0215ZM15.957 7.62717C15.7435 7.73388 15.5301 7.80502 15.3878 7.76945C15.4946 7.59161 15.7791 7.41376 15.957 7.62717ZM14.8187 7.4849C15.1744 7.55604 15.1744 7.66274 14.8187 7.73388C14.463 7.62718 14.463 7.55604 14.8187 7.4849ZM9.55451 7.62717C9.73236 7.41376 10.0169 7.59161 10.1236 7.76945C9.98134 7.80502 9.76793 7.73388 9.55451 7.62717ZM10.6927 7.73388C10.337 7.62718 10.337 7.55604 10.6927 7.4849C11.0484 7.55604 11.0484 7.62718 10.6927 7.73388Z" fill="black"/>
</svg>
