<svg width="55" height="38" viewBox="0 0 55 38" fill="none" xmlns="http://www.w3.org/2000/svg">
<path d="M51.8779 12.1452H46.6617V9.93394H48.3737C48.5137 9.92577 48.646 9.86748 48.7461 9.76989C48.8461 9.67229 48.907 9.54202 48.9176 9.40323V6.04209C48.907 5.90331 48.8461 5.77303 48.7461 5.67544C48.646 5.57784 48.5137 5.51955 48.3737 5.51138H42.1321C41.992 5.51955 41.8597 5.57784 41.7597 5.67544C41.6596 5.77303 41.5987 5.90331 41.5882 6.04209V8.78407H39.8762C39.7377 8.79429 39.6075 8.85349 39.5093 8.95089C39.4112 9.04829 39.3515 9.17742 39.3412 9.31478V12.0568H37.0853V4.80377C37.0853 4.30056 36.9847 3.80234 36.7892 3.33799C36.5938 2.87363 36.3074 2.45237 35.9466 2.0986C35.5858 1.74484 35.1579 1.46561 34.6875 1.2771C34.2172 1.08858 33.7138 0.99452 33.2066 1.00037H21.838C21.3304 0.993327 20.8265 1.08657 20.3556 1.27466C19.8848 1.46275 19.4564 1.74194 19.0953 2.09594C18.7343 2.44994 18.448 2.87167 18.2529 3.33657C18.0579 3.80147 17.9581 4.30022 17.9593 4.80377V12.0568H15.7034V5.95364C15.6931 5.81627 15.6334 5.68714 15.5353 5.58974C15.4371 5.49234 15.3069 5.43315 15.1684 5.42293H4.96788C4.8294 5.43315 4.69922 5.49234 4.60103 5.58974C4.50284 5.68714 4.44318 5.81627 4.43288 5.95364V12.0568H3.16673C2.59808 12.0613 2.05361 12.2855 1.64901 12.6819C1.24442 13.0783 1.01159 13.6156 1 14.1796V15.5064C1.01159 16.0704 1.24442 16.6076 1.64901 17.004C2.05361 17.4004 2.59808 17.6247 3.16673 17.6292H5.51179V36.4693C5.52234 36.6081 5.58328 36.7384 5.6833 36.8359C5.78332 36.9335 5.91564 36.9918 6.0557 37H9.47965C9.61971 36.9918 9.75203 36.9335 9.85205 36.8359C9.95207 36.7384 10.013 36.6081 10.0236 36.4693V30.3662H16.7912C16.9297 30.3559 17.0599 30.2968 17.1581 30.1994C17.2562 30.1019 17.3159 29.9728 17.3262 29.8355V25.4129C17.3159 25.2755 17.2562 25.1464 17.1581 25.049C17.0599 24.9516 16.9297 24.8924 16.7912 24.8822C16.7196 24.8785 16.6479 24.8896 16.5808 24.9148C16.5137 24.94 16.4526 24.9788 16.4015 25.0288C16.3503 25.0787 16.3102 25.1386 16.2837 25.2047C16.2571 25.2709 16.2447 25.3418 16.2473 25.4129V29.3048H10.0057V17.6292H17.9415V19.8405H16.7912C16.6512 19.8486 16.5188 19.9069 16.4188 20.0045C16.3188 20.1021 16.2579 20.2324 16.2473 20.3712C16.2473 20.9565 16.3643 21.5359 16.5917 22.076C16.8191 22.616 17.1523 23.1059 17.572 23.5173C17.9916 23.9287 18.4895 24.2533 19.0366 24.4724C19.5836 24.6916 20.1691 24.8008 20.7591 24.7937H25.2619V30.8969H21.2941C21.1556 30.9071 21.0254 30.9663 20.9273 31.0637C20.8291 31.1611 20.7694 31.2902 20.7591 31.4276V32.5774C20.2756 32.6948 19.844 32.9658 19.5301 33.349C19.2162 33.7322 19.0372 34.2068 19.0204 34.7003C19.0111 35.1216 19.122 35.537 19.3402 35.8987C19.5585 36.2603 19.8752 36.5534 20.254 36.7443C20.6329 36.9351 21.0583 37.016 21.4814 36.9776C21.9045 36.9392 22.3081 36.783 22.6456 36.5271C22.9832 36.2711 23.241 35.9258 23.3895 35.5309C23.5379 35.136 23.5709 34.7075 23.4846 34.2948C23.3984 33.8821 23.1964 33.502 22.9019 33.1981C22.6075 32.8943 22.2325 32.6792 21.8202 32.5774V31.9583H33.6346V32.5774C33.156 32.6998 32.7304 32.9728 32.4217 33.3556C32.113 33.7384 31.9379 34.2103 31.9226 34.7003C31.9133 35.1216 32.0242 35.537 32.2425 35.8987C32.4607 36.2603 32.7775 36.5534 33.1563 36.7443C33.5351 36.9351 33.9605 37.016 34.3836 36.9776C34.8068 36.9392 35.2103 36.783 35.5479 36.5271C35.8854 36.2711 36.1433 35.9258 36.2917 35.5309C36.4401 35.136 36.4731 34.7075 36.3869 34.2948C36.3006 33.8821 36.0986 33.502 35.8042 33.1981C35.5097 32.8943 35.1347 32.6792 34.7224 32.5774V31.4276C34.7119 31.2888 34.6509 31.1585 34.5509 31.0609C34.4509 30.9633 34.3186 30.905 34.1785 30.8969H30.2106V24.7937H34.2677C34.8576 24.8008 35.4431 24.6916 35.9902 24.4724C36.5373 24.2533 37.0351 23.9287 37.4548 23.5173C37.8745 23.1059 38.2076 22.616 38.435 22.076C38.6624 21.5359 38.7795 20.9565 38.7794 20.3712C38.7689 20.2324 38.708 20.1021 38.6079 20.0045C38.5079 19.9069 38.3756 19.8486 38.2355 19.8405H37.0675V17.6292H45.0032V29.2163H38.7616V25.8552C38.7511 25.7164 38.6901 25.5861 38.5901 25.4885C38.4901 25.3909 38.3578 25.3326 38.2177 25.3244C38.0776 25.3326 37.9453 25.3909 37.8453 25.4885C37.7453 25.5861 37.6843 25.7164 37.6738 25.8552V29.747C37.6843 29.8858 37.7453 30.0161 37.8453 30.1137C37.9453 30.2112 38.0776 30.2695 38.2177 30.2777H44.9854V36.3808C44.9959 36.5196 45.0569 36.6499 45.1569 36.7475C45.2569 36.8451 45.3892 36.9034 45.5293 36.9115H48.9532C49.0933 36.9034 49.2256 36.8451 49.3256 36.7475C49.4256 36.6499 49.4866 36.5196 49.4971 36.3808V17.6292H51.8422C52.41 17.6247 52.9535 17.4001 53.3567 17.0035C53.7598 16.6068 53.9907 16.0696 54 15.5064V14.1796C53.986 13.6321 53.7557 13.1121 53.3587 12.7315C52.9617 12.351 52.4299 12.1404 51.8779 12.1452ZM22.4532 34.7887C22.4581 34.9939 22.4084 35.1967 22.3091 35.3768C22.2098 35.5568 22.0644 35.7077 21.8875 35.8142C21.7107 35.9207 21.5087 35.9792 21.3018 35.9836C21.095 35.988 20.8906 35.9382 20.7094 35.8393C20.5281 35.7404 20.3763 35.5958 20.2693 35.4202C20.1623 35.2446 20.1038 35.044 20.0998 34.8388C20.0958 34.6337 20.1464 34.431 20.2465 34.2514C20.3466 34.0718 20.4926 33.9215 20.6699 33.8158C20.6974 33.9374 20.7658 34.046 20.8638 34.1239C20.9619 34.2018 21.0838 34.2443 21.2094 34.2443C21.335 34.2443 21.4569 34.2018 21.5549 34.1239C21.653 34.046 21.7214 33.9374 21.7488 33.8158C21.9568 33.8825 22.1384 34.0122 22.268 34.1868C22.3975 34.3614 22.4686 34.5719 22.4711 34.7887H22.4532ZM35.4447 34.7887C35.419 35.0797 35.2844 35.3506 35.0674 35.5479C34.8503 35.7453 34.5666 35.8548 34.2721 35.8548C33.9777 35.8548 33.6939 35.7453 33.4769 35.5479C33.2598 35.3506 33.1252 35.0797 33.0996 34.7887C33.1036 34.5959 33.1543 34.4068 33.2474 34.2375C33.3405 34.0681 33.4733 33.9235 33.6346 33.8158C33.6578 33.9421 33.7249 34.0564 33.8243 34.1387C33.9237 34.221 34.049 34.2661 34.1785 34.2661C34.308 34.2661 34.4333 34.221 34.5327 34.1387C34.6321 34.0564 34.6993 33.9421 34.7224 33.8158C34.933 33.8806 35.1177 34.0094 35.2505 34.1839C35.3833 34.3585 35.4574 34.5701 35.4625 34.7887H35.4447ZM42.7473 6.57279H47.7941V8.78407H42.7473V6.57279ZM40.4914 9.93394H45.5471V12.1452H40.5093L40.4914 9.93394ZM14.5621 12.1452H12.3062V6.57279H14.5621V12.1452ZM11.2184 12.1452H8.94465V6.57279H11.1916L11.2184 12.1452ZM5.53854 6.57279H7.79442V12.1452H5.53854V6.57279ZM8.9714 35.8501H6.71551V17.6292H8.9714V35.8501ZM3.19348 16.5678C2.93252 16.5678 2.68212 16.4656 2.49676 16.2833C2.31141 16.1011 2.20609 15.8537 2.20374 15.5948V14.268C2.20609 14.0092 2.31141 13.7617 2.49676 13.5795C2.68212 13.3973 2.93252 13.2951 3.19348 13.2951H17.986V16.6562C13.6704 16.5678 7.50017 16.5678 3.16673 16.5678H3.19348ZM20.8037 23.7323C20.0115 23.7337 19.2437 23.4604 18.6331 22.9597C18.0226 22.459 17.6076 21.7624 17.46 20.9903H25.2619V23.7323H20.8037ZM26.4835 30.8969V16.214C26.4835 15.8339 26.6357 15.4695 26.9066 15.2008C27.1775 14.932 27.5449 14.7811 27.928 14.7811C28.3111 14.7811 28.6785 14.932 28.9494 15.2008C29.2203 15.4695 29.3725 15.8339 29.3725 16.214V30.8969H26.4835ZM34.3301 23.7323H30.3622V20.9903H37.6649C37.5178 21.7692 37.0981 22.4715 36.4797 22.9732C35.8614 23.4749 35.0842 23.7438 34.2855 23.7323H34.3301ZM30.3622 19.8405V16.214C30.3611 15.8868 30.2948 15.5631 30.1672 15.2614C30.0397 14.9598 29.8533 14.686 29.6189 14.4559C29.3845 14.2258 29.1066 14.0439 28.8011 13.9206C28.4956 13.7973 28.1686 13.735 27.8388 13.7373C27.1546 13.7397 26.4992 14.011 26.0162 14.4918C25.5332 14.9726 25.2619 15.6237 25.2619 16.3024V19.9289H19.0204V4.98067C19.0297 4.25022 19.3288 3.55284 19.8529 3.03961C20.377 2.52638 21.0837 2.23863 21.8202 2.23869H33.1888C33.9212 2.2433 34.6225 2.53339 35.1413 3.04637C35.6601 3.55934 35.9548 4.25408 35.9618 4.98067V19.9289H30.282L30.3622 19.8405ZM48.3558 35.8501H46.0999V17.6292H48.3558V35.8501ZM52.8676 15.5064C52.863 15.7645 52.7569 16.0106 52.5721 16.1924C52.3872 16.3741 52.1381 16.4771 51.8779 16.4793H37.0853V13.1182H51.8779C52.0098 13.1147 52.141 13.1371 52.2641 13.1842C52.3872 13.2313 52.4997 13.3021 52.5951 13.3926C52.6904 13.4831 52.7667 13.5914 52.8196 13.7113C52.8725 13.8312 52.901 13.9603 52.9033 14.0911L52.8676 15.5064Z" fill="#5152FB" stroke="#5152FB" stroke-width="0.7"/>
</svg>
