<svg width="25" height="25" viewBox="0 0 25 25" fill="none" xmlns="http://www.w3.org/2000/svg">
<circle cx="12.5" cy="12.5" r="12.5" fill="white"/>
<path d="M8.89018 22.5663V17.6577L5.22656 20.361C6.25807 21.3213 7.50298 22.0683 8.89018 22.5663Z" fill="#012169"/>
<path d="M16.0039 22.5662C17.3911 22.0682 18.636 21.3213 19.6675 20.3609L16.0039 17.6221V22.5662Z" fill="#012169"/>
<path d="M2.38086 16.0571C2.48757 16.4128 2.62984 16.7329 2.80769 17.0886L4.19488 16.0571H2.38086Z" fill="#012169"/>
<path d="M20.6992 16.0571L22.0864 17.0886C22.2287 16.7685 22.371 16.4128 22.5132 16.0571H20.6992Z" fill="#012169"/>
<path d="M9.42418 14.6343H1.99023C2.09694 15.1322 2.23922 15.5946 2.38149 16.057H4.19552L2.80832 17.0885C3.09288 17.6932 3.413 18.2268 3.80426 18.7603L7.46788 16.057H8.89064V16.7684L4.72906 19.8274L5.22702 20.3253L8.89064 17.6577V22.5662C9.35304 22.744 9.81544 22.8507 10.3134 22.9574V14.6343H9.42418Z" fill="#F5F5F5"/>
<path d="M22.9052 14.6343H14.582V22.9574C15.08 22.8507 15.5424 22.7085 16.0048 22.5662V17.6577L19.6684 20.3253C20.1664 19.8629 20.5932 19.365 21.02 18.8314L17.2141 16.057H19.6328L21.8026 17.6577C21.9093 17.4798 22.016 17.2664 22.0871 17.0885L20.6999 16.057H22.5139C22.6562 15.5946 22.7985 15.1322 22.9052 14.6343Z" fill="#F5F5F5"/>
<path d="M3.80469 18.7605C4.08924 19.1517 4.37379 19.5074 4.69391 19.8631L8.89107 16.8042V16.0928H7.4683L3.80469 18.7605Z" fill="#C8102E"/>
<path d="M17.25 16.0571L21.0559 18.8315C21.1982 18.6537 21.3049 18.4758 21.4472 18.298C21.4827 18.2624 21.4827 18.2268 21.5183 18.2268C21.625 18.049 21.7673 17.8356 21.874 17.6577L19.6331 16.0571H17.25Z" fill="#C8102E"/>
<path d="M16.0039 2.43408V7.34262L19.6675 4.63937C18.636 3.679 17.3911 2.93205 16.0039 2.43408Z" fill="#012169"/>
<path d="M8.89018 2.43408C7.50298 2.93205 6.25807 3.679 5.22656 4.63937L8.89018 7.37819V2.43408Z" fill="#012169"/>
<path d="M22.5132 8.94312C22.4065 8.58743 22.2643 8.26731 22.0864 7.91162L20.6992 8.94312H22.5132Z" fill="#012169"/>
<path d="M4.19488 8.94312L2.80769 7.91162C2.66541 8.26731 2.52314 8.58743 2.38086 8.94312H4.19488Z" fill="#012169"/>
<path d="M15.4713 10.3657H22.8696C22.7629 9.86768 22.6207 9.40528 22.4784 8.94289H20.6643L22.0515 7.91138C21.767 7.30671 21.4469 6.77317 21.0556 6.23963L17.4276 8.94289H16.0048V8.2315L20.1664 5.17256L19.6684 4.67459L16.0048 7.34228V2.43374C15.5424 2.2559 15.08 2.14919 14.582 2.04248V10.3657H15.4713Z" fill="#F5F5F5"/>
<path d="M1.99023 10.3657H10.3134V2.04248C9.81544 2.14919 9.35304 2.29146 8.89064 2.43374V7.34228L5.22702 4.67459C4.72906 5.13699 4.30223 5.63496 3.8754 6.1685L7.68129 8.94289H5.26259L3.09288 7.34228C2.98617 7.52012 2.87946 7.73354 2.80832 7.91138L4.19552 8.94289H2.38149C2.23922 9.40528 2.09694 9.86768 1.99023 10.3657Z" fill="#F5F5F5"/>
<path d="M21.0922 6.23936C20.8077 5.8481 20.5231 5.49241 20.203 5.13672L16.0059 8.19566V8.90704H17.4286L21.0922 6.23936Z" fill="#C8102E"/>
<path d="M7.64506 8.94285L3.87473 6.16846C3.73245 6.3463 3.62575 6.52415 3.48347 6.70199C3.4479 6.73756 3.4479 6.77313 3.41233 6.77313C3.30562 6.95098 3.16335 7.16439 3.05664 7.34224L5.22636 8.94285H7.64506Z" fill="#C8102E"/>
<path d="M22.9054 10.3657H14.5822V2.04252C13.9064 1.90024 13.195 1.8291 12.4481 1.8291C11.7011 1.8291 10.9897 1.90024 10.3139 2.04252V10.3657H1.99076C1.84848 11.0415 1.77734 11.7529 1.77734 12.4998C1.77734 13.2468 1.84848 13.9582 1.99076 14.634H10.3139V22.9571C10.9897 23.0994 11.7011 23.1706 12.4481 23.1706C13.195 23.1706 13.9064 23.0994 14.5822 22.9571V14.634H22.9054C23.0477 13.9582 23.1188 13.2468 23.1188 12.4998C23.1188 11.7529 23.0477 11.0415 22.9054 10.3657Z" fill="#C8102E"/>
</svg>
