<svg width="58" height="50" viewBox="0 0 58 50" fill="none" xmlns="http://www.w3.org/2000/svg">
<path d="M44.0669 21.7497H30.0441C29.7672 21.7497 29.5016 21.6224 29.3058 21.3958C29.11 21.1691 29 20.8618 29 20.5413C29 20.2209 29.11 19.9135 29.3058 19.6869C29.5016 19.4603 29.7672 19.333 30.0441 19.333H44.0669C44.3438 19.333 44.6094 19.4603 44.8052 19.6869C45.001 19.9135 45.111 20.2209 45.111 20.5413C45.111 20.8618 45.001 21.1691 44.8052 21.3958C44.6094 21.6224 44.3438 21.7497 44.0669 21.7497Z" fill="#FEDA44"/>
<path d="M44.0548 39.4719H38.9177C38.6375 39.4719 38.3688 39.3871 38.1707 39.236C37.9726 39.0849 37.8613 38.88 37.8613 38.6664C37.8613 38.4527 37.9726 38.2478 38.1707 38.0968C38.3688 37.9457 38.6375 37.8608 38.9177 37.8608H44.0548C44.3349 37.8608 44.6037 37.9457 44.8019 38.0968C45 38.2478 45.1113 38.4527 45.1113 38.6664C45.1113 38.88 45 39.0849 44.8019 39.236C44.6037 39.3871 44.3349 39.4719 44.0548 39.4719Z" fill="#FEDA44"/>
<path d="M44.0361 26.5831H31.6863C31.4012 26.5831 31.1278 26.4559 30.9261 26.2292C30.7245 26.0026 30.6113 25.6953 30.6113 25.3748C30.6113 25.0544 30.7245 24.747 30.9261 24.5204C31.1278 24.2938 31.4012 24.1665 31.6863 24.1665H44.0361C44.3212 24.1665 44.5948 24.2938 44.7964 24.5204C44.998 24.747 45.1112 25.0544 45.1112 25.3748C45.1112 25.6953 44.998 26.0026 44.7964 26.2292C44.5948 26.4559 44.3212 26.5831 44.0361 26.5831Z" fill="#FEDA44"/>
<path d="M44.0669 30.6109H30.0441C29.7672 30.6109 29.5016 30.526 29.3058 30.3749C29.11 30.2238 29 30.019 29 29.8053C29 29.5917 29.11 29.3868 29.3058 29.2357C29.5016 29.0846 29.7672 28.9998 30.0441 28.9998H44.0669C44.3438 28.9998 44.6094 29.0846 44.8052 29.2357C45.001 29.3868 45.111 29.5917 45.111 29.8053C45.111 30.019 45.001 30.2238 44.8052 30.3749C44.6094 30.526 44.3438 30.6109 44.0669 30.6109Z" fill="#FEDA44"/>
<path d="M49.5303 12.4599L40.7806 3.82815L37.2082 0.303912C37.1097 0.206862 36.9927 0.130052 36.864 0.0778899C36.7352 0.0257275 36.5972 -0.000750465 36.458 1.61841e-05H12.3257C12.0477 1.61841e-05 11.781 0.108998 11.5844 0.302955C11.3878 0.496911 11.2773 0.759977 11.2773 1.03427V11.8929C11.6699 11.8586 12.0673 11.839 12.4747 11.839C12.7728 11.839 13.0759 11.839 13.3741 11.8733V2.093H35.4146V13.3127C35.4159 13.5875 35.5274 13.8505 35.7248 14.0444C35.9222 14.2382 36.1894 14.347 36.4679 14.347H47.841V47.0699H13.3741V37.7569C13.0759 37.7569 12.7728 37.7912 12.4747 37.7912C12.0673 37.7912 11.6699 37.7913 11.2773 37.7324V48.1042C11.2773 48.3785 11.3878 48.6415 11.5844 48.8355C11.781 49.0294 12.0477 49.1384 12.3257 49.1384H48.8893C49.1673 49.1384 49.434 49.0294 49.6306 48.8355C49.8272 48.6415 49.9377 48.3785 49.9377 48.1042V13.45C49.9456 13.4045 49.9456 13.3582 49.9377 13.3127C49.944 13.1488 49.9102 12.9857 49.8393 12.8373C49.7684 12.6889 49.6624 12.5594 49.5303 12.4599ZM37.5163 12.254V3.52916L39.0069 5.02905L46.3305 12.254H37.5163Z" fill="#FEDA44"/>
<path d="M52.9422 44.305H51.6355C51.3627 44.305 51.101 44.1969 50.9081 44.0046C50.7152 43.8122 50.6067 43.5513 50.6067 43.2793C50.6067 43.0073 50.7152 42.7464 50.9081 42.554C51.101 42.3616 51.3627 42.2536 51.6355 42.2536H51.9135V4.46792H43.7222C43.4493 4.46792 43.1877 4.35984 42.9948 4.16748C42.8018 3.97513 42.6934 3.71423 42.6934 3.4422C42.6934 3.17017 42.8018 2.9093 42.9948 2.71694C43.1877 2.52459 43.4493 2.4165 43.7222 2.4165H52.9422C53.215 2.4165 53.4767 2.52459 53.6696 2.71694C53.8626 2.9093 53.971 3.17017 53.971 3.4422V43.3036C53.9647 43.5714 53.8534 43.8261 53.6612 44.0132C53.4689 44.2003 53.2109 44.3051 52.9422 44.305Z" fill="#FEDA44"/>
<path d="M56.9582 41.0829H55.9266C55.6518 41.0829 55.3882 40.9734 55.1938 40.7784C54.9995 40.5834 54.8903 40.319 54.8903 40.0432C54.8903 39.7674 54.9995 39.503 55.1938 39.308C55.3882 39.113 55.6518 39.0035 55.9266 39.0035V9.32946H55.8137C55.5388 9.32946 55.2752 9.2199 55.0809 9.02492C54.8865 8.82993 54.7773 8.56547 54.7773 8.28972C54.7773 8.01397 54.8865 7.7495 55.0809 7.55452C55.2752 7.35953 55.5388 7.25 55.8137 7.25H56.9631C57.2379 7.25 57.5015 7.35953 57.6959 7.55452C57.8903 7.7495 57.9995 8.01397 57.9995 8.28972V40.0432C58.0002 40.1803 57.9736 40.3163 57.9215 40.443C57.8693 40.5698 57.7925 40.6849 57.6957 40.7816C57.5988 40.8784 57.4836 40.9548 57.357 41.0066C57.2304 41.0583 57.0949 41.0843 56.9582 41.0829Z" fill="#FEDA44"/>
<circle cx="11.2777" cy="24.972" r="10.4027" stroke="#FEDA44" stroke-width="1.75"/>
<line x1="6.87611" y1="20.9443" x2="15.4126" y2="29.4809" stroke="#FEDA44" stroke-width="1.75" stroke-linecap="round"/>
<line x1="6.87611" y1="20.9443" x2="15.4126" y2="29.4809" stroke="#FEDA44" stroke-width="1.75" stroke-linecap="round"/>
<line x1="0.875" y1="-0.875" x2="12.9475" y2="-0.875" transform="matrix(-0.707107 0.707107 0.707107 0.707107 16.7734 21.1499)" stroke="#FEDA44" stroke-width="1.75" stroke-linecap="round"/>
<line x1="0.875" y1="-0.875" x2="12.9475" y2="-0.875" transform="matrix(-0.707107 0.707107 0.707107 0.707107 16.7734 21.1499)" stroke="#FEDA44" stroke-width="1.75" stroke-linecap="round"/>
</svg>
